<svg width="25" height="24" viewBox="0 0 25 24" fill="none" xmlns="http://www.w3.org/2000/svg">
<path d="M18.8572 12.7284C18.8898 16.2534 21.9498 17.4266 21.9836 17.4416C21.9577 17.5241 21.4947 19.1134 20.3716 20.7546C19.4007 22.1736 18.3929 23.5873 16.8057 23.6169C15.2461 23.6454 14.7446 22.6918 12.9612 22.6918C11.1785 22.6918 10.6214 23.5873 9.14487 23.6454C7.61262 23.7036 6.44581 22.1107 5.46687 20.6972C3.46662 17.8052 1.93794 12.525 3.9905 8.96081C5.01012 7.19081 6.83262 6.07012 8.81056 6.04125C10.3151 6.01256 11.7352 7.05337 12.6549 7.05337C13.574 7.05337 15.2997 5.80162 17.114 5.98537C17.8736 6.01706 20.0054 6.29212 21.3744 8.29612C21.2643 8.36456 18.8307 9.78131 18.8572 12.7284ZM15.926 4.07231C16.7394 3.08775 17.2869 1.71675 17.1376 0.353062C15.965 0.400124 14.5471 1.13437 13.7062 2.11856C12.9524 2.98987 12.2924 4.38487 12.4704 5.72156C13.7774 5.82281 15.1124 5.05744 15.926 4.07231Z" fill="white"/>
</svg>
