<svg width="20" height="20" viewBox="0 0 20 20" fill="none" xmlns="http://www.w3.org/2000/svg">
<path d="M12.5 5L10 2.5M10 2.5L7.5 5M10 2.5V12.5M14.1667 7.5H14.8333C15.7668 7.5 16.2335 7.5 16.59 7.68166C16.9036 7.84144 17.1586 8.09641 17.3183 8.41002C17.5 8.76654 17.5 9.23325 17.5 10.1667V14.8333C17.5 15.7668 17.5 16.2335 17.3183 16.59C17.1586 16.9036 16.9036 17.1586 16.59 17.3183C16.2335 17.5 15.7668 17.5 14.8333 17.5H5.16667C4.23325 17.5 3.76654 17.5 3.41002 17.3183C3.09641 17.1586 2.84144 16.9036 2.68166 16.59C2.5 16.2335 2.5 15.7668 2.5 14.8333V10.1667C2.5 9.23325 2.5 8.76654 2.68166 8.41002C2.84144 8.09641 3.09641 7.84144 3.41002 7.68166C3.76654 7.5 4.23325 7.5 5.16667 7.5H5.83333" stroke="#EAEAEA" stroke-width="2" stroke-linecap="round" stroke-linejoin="round"/>
</svg>
