<svg width="28" height="28" viewBox="0 0 28 28" fill="none" xmlns="http://www.w3.org/2000/svg">
<path fill-rule="evenodd" clip-rule="evenodd" d="M8.25427 4.56065C9.79101 3.12636 11.8591 2.33331 14.0001 2.33331C16.141 2.33331 18.2091 3.12636 19.7458 4.56065C21.2853 5.99748 22.1667 7.96416 22.1667 10.0333C22.1667 12.9606 22.9005 14.9623 23.7135 16.2926L23.7262 16.3134C24.1654 17.032 24.5104 17.5966 24.7425 18.0047C24.8586 18.2089 24.9626 18.402 25.039 18.5707C25.077 18.6546 25.1194 18.7565 25.1525 18.8663C25.1787 18.9532 25.2349 19.1559 25.2133 19.4024C25.2001 19.5539 25.1684 19.8296 25.0093 20.1133C24.8502 20.397 24.6314 20.5678 24.5092 20.658C24.3298 20.7904 24.1508 20.85 24.0551 20.8777C23.9457 20.9093 23.8399 20.9281 23.7526 20.9404C23.5786 20.965 23.3786 20.9774 23.1736 20.9849C22.7657 21 22.1981 21 21.4875 21H6.51265C5.80203 21 5.23442 21 4.82646 20.9849C4.62148 20.9774 4.42152 20.965 4.2475 20.9404C4.16019 20.9281 4.05445 20.9093 3.94502 20.8777C3.84929 20.85 3.67031 20.7904 3.49095 20.658C3.36867 20.5678 3.1499 20.397 2.9908 20.1133C2.8317 19.8296 2.80005 19.5539 2.78681 19.4024C2.76524 19.1559 2.82141 18.9532 2.84765 18.8663C2.88075 18.7565 2.92306 18.6546 2.96108 18.5707C3.0375 18.402 3.14153 18.2089 3.25764 18.0047C3.48966 17.5966 3.83462 17.0322 4.27365 16.3138L4.2866 16.2926C5.09959 14.9623 5.83338 12.9606 5.83338 10.0333C5.83338 7.96415 6.7148 5.99748 8.25427 4.56065ZM9.33338 24.5C9.33338 23.8556 9.85572 23.3333 10.5001 23.3333H17.5001C18.1444 23.3333 18.6667 23.8556 18.6667 24.5C18.6667 25.1443 18.1444 25.6666 17.5001 25.6666H10.5001C9.85572 25.6666 9.33338 25.1443 9.33338 24.5Z" fill="white"/>
</svg>
