<svg width="33" height="32" viewBox="0 0 33 32" fill="none" xmlns="http://www.w3.org/2000/svg">
<path opacity="0.3" d="M23.8333 29.3333C12.4195 29.3333 3.16667 20.0806 3.16667 8.66667C3.16667 8.15171 3.1855 7.64114 3.22252 7.13563C3.265 6.55549 3.28624 6.26542 3.43827 6.00138C3.56418 5.78268 3.78734 5.57528 4.01464 5.46567C4.28908 5.33333 4.60917 5.33333 5.24935 5.33333H9.00576C9.5441 5.33333 9.81328 5.33333 10.044 5.42193C10.2479 5.5002 10.4294 5.62732 10.5726 5.79213C10.7347 5.97871 10.8267 6.23168 11.0106 6.73761L12.5655 11.0134C12.7795 11.602 12.8866 11.8964 12.8684 12.1756C12.8524 12.4218 12.7683 12.6588 12.6256 12.8601C12.4638 13.0884 12.1953 13.2495 11.6582 13.5718L9.83333 14.6667C11.4359 18.1985 14.3002 21.0665 17.8333 22.6667L18.9282 20.8418C19.2505 20.3047 19.4116 20.0362 19.6399 19.8744C19.8412 19.7317 20.0782 19.6476 20.3244 19.6316C20.6036 19.6134 20.898 19.7205 21.4866 19.9345L25.7624 21.4894C26.2683 21.6733 26.5213 21.7653 26.7079 21.9274C26.8727 22.0707 26.9998 22.2521 27.0781 22.456C27.1667 22.6867 27.1667 22.9559 27.1667 23.4942V27.2506C27.1667 27.8908 27.1667 28.2109 27.0343 28.4854C26.9247 28.7127 26.7173 28.9358 26.4986 29.0617C26.2346 29.2138 25.9445 29.235 25.3644 29.2775C24.8589 29.3145 24.3483 29.3333 23.8333 29.3333Z" fill="#26BA78"/>
<path d="M18.0472 2.67493C17.3153 2.59363 16.6561 3.12102 16.5748 3.8529C16.4935 4.58478 17.0209 5.24399 17.7528 5.3253C20.1578 5.59248 22.4006 6.6695 24.1128 8.37953C25.8249 10.0896 26.9048 12.3309 27.175 14.7357C27.2572 15.4674 27.9171 15.994 28.6489 15.9118C29.3807 15.8295 29.9072 15.1697 29.825 14.4379C29.4872 11.432 28.1374 8.63025 25.9972 6.49272C23.857 4.35519 21.0535 3.00891 18.0472 2.67493Z" fill="#26BA78"/>
<path d="M18.1553 8.02479C17.4326 7.88378 16.7323 8.35537 16.5913 9.07812C16.4503 9.80088 16.9219 10.5011 17.6447 10.6421C18.6865 10.8454 19.644 11.3549 20.3946 12.1055C21.1452 12.8561 21.6547 13.8136 21.858 14.8554C21.999 15.5782 22.6992 16.0498 23.422 15.9088C24.1447 15.7678 24.6163 15.0675 24.4753 14.3448C24.1704 12.782 23.4061 11.3458 22.2802 10.2199C21.1543 9.094 19.7181 8.32969 18.1553 8.02479Z" fill="#26BA78"/>
</svg>
