<svg width="55" height="24" viewBox="0 0 55 24" fill="none" xmlns="http://www.w3.org/2000/svg">
<path fill-rule="evenodd" clip-rule="evenodd" d="M10.821 3.22004V2.28552C10.821 2.01851 11.0394 1.80005 11.3065 1.80005C11.5735 1.80005 11.7919 2.01851 11.7919 2.28552V3.22004H14.0129C14.2799 3.22004 14.4984 3.4385 14.4984 3.70551V5.23473H14.9232C15.1902 5.23473 15.4087 5.45319 15.4087 5.7202C15.4087 5.9872 15.1902 6.20567 14.9232 6.20567H14.0129H13.7217C13.576 6.47267 13.5275 6.72754 13.576 6.99455C13.6731 7.63779 14.2799 8.25676 14.814 8.633C15.6271 9.20343 15.9184 9.85881 15.9548 10.5385C18.0787 9.2277 20.9794 9.21556 21.125 9.21556C21.2949 9.21556 21.4527 9.30052 21.5377 9.4583C21.6348 9.60394 21.6226 9.79812 21.5377 9.94376L20.6032 11.5094C20.5303 11.6429 20.3968 11.7279 20.2512 11.7521C18.4671 11.9827 17.1806 12.6502 16.4403 13.7183C15.348 15.3082 15.797 17.2986 15.8092 17.3229C15.8092 17.3471 15.8092 17.3714 15.8213 17.3957C16.0762 18.4394 16.3432 19.1919 16.3553 19.2041V19.2162C16.7801 20.5027 16.3675 21.6435 15.2023 22.4324C15.1295 22.481 15.0324 22.5174 14.9353 22.5174H7.66545C7.56836 22.5174 7.4834 22.481 7.39844 22.4324C6.23332 21.6435 5.83281 20.5027 6.24546 19.2162V19.2041C6.24546 19.1919 6.26973 19.1434 6.30614 19.0463C5.27452 17.6748 4.42495 16.4248 3.76957 15.3203C1.58497 11.6308 2.49522 10.2108 3.22342 9.68889C4.18222 9.00924 5.69931 9.26411 6.7552 9.94376C6.91297 9.47043 7.22853 9.03351 7.79895 8.633C8.32083 8.25676 8.92766 7.63779 9.03689 6.99455C9.0733 6.72754 9.02476 6.47267 8.89125 6.20567H8.58784H7.67759C7.41058 6.20567 7.19212 5.9872 7.19212 5.7202C7.19212 5.45319 7.41058 5.23473 7.67759 5.23473H8.10237V3.70551C8.10237 3.4385 8.32083 3.22004 8.58784 3.22004H10.821ZM12.6658 6.20567H9.93501C10.02 6.52122 10.0442 6.83677 9.98356 7.15233C9.80151 8.34172 8.68493 9.19129 8.35724 9.42189C7.76254 9.83453 7.58049 10.2593 7.6169 10.8419C7.6169 10.854 7.6169 10.8783 7.6169 10.8904C7.64118 11.2667 7.75041 11.6914 7.88391 12.2133C8.06596 12.8687 8.24801 13.5484 8.22374 14.2644C8.17519 16.6918 7.24066 19.3133 7.16784 19.5196C6.90084 20.357 7.1193 21.0124 7.82323 21.5464H14.7775C15.4815 21.0124 15.6999 20.357 15.4329 19.5196C15.3601 19.3133 14.4256 16.6918 14.377 14.2644C14.3649 13.5484 14.5469 12.8687 14.7169 12.2133C15.081 10.854 15.2266 10.1015 14.2557 9.42189C13.9158 9.19129 12.8114 8.32958 12.6172 7.15233C12.5565 6.83677 12.5808 6.52122 12.6658 6.20567ZM6.6581 17.8933C6.92511 16.9224 7.22853 15.5388 7.2528 14.2401C7.26494 13.6576 7.10716 13.0508 6.94938 12.4682C6.82802 12.0191 6.70665 11.5579 6.6581 11.0967C5.91777 10.3321 4.46136 10.0044 3.78171 10.4778C3.0171 11.0239 3.32052 12.6502 4.607 14.8227C5.15316 15.7451 5.83281 16.7767 6.6581 17.8933ZM9.14612 5.23473H13.4546H13.4668H13.5275V4.19098H11.3065H9.0733V5.23473H9.14612ZM15.8092 11.8614C15.7606 12.0677 15.7121 12.2619 15.6514 12.4682C15.5543 12.8202 15.4572 13.1964 15.3965 13.5605C15.4693 13.427 15.5543 13.3056 15.6393 13.1721C16.501 11.9099 17.9331 11.121 19.8871 10.8176L20.2391 10.235C19.0861 10.3564 17.0592 10.7205 15.8092 11.8614Z" fill="white" stroke="white"/>
<path d="M32.2358 17.1392C31.6525 17.1392 31.1271 17.0232 30.6598 16.7912C30.1925 16.5592 29.8179 16.241 29.5362 15.8366C29.2545 15.4323 29.1004 14.9716 29.0739 14.4545H30.267C30.3134 14.9152 30.5223 15.2964 30.8935 15.598C31.268 15.8963 31.7154 16.0455 32.2358 16.0455C32.6534 16.0455 33.0246 15.9477 33.3494 15.7521C33.6776 15.5566 33.9344 15.2881 34.12 14.9467C34.3089 14.602 34.4034 14.2126 34.4034 13.7784C34.4034 13.3343 34.3056 12.9382 34.1101 12.5902C33.9179 12.2389 33.6527 11.9621 33.3146 11.7599C32.9766 11.5578 32.5904 11.455 32.1562 11.4517C31.8447 11.4484 31.5249 11.4964 31.1967 11.5959C30.8686 11.692 30.5985 11.8163 30.3864 11.9688L29.233 11.8295L29.8494 6.81818H35.1392V7.91193H30.8835L30.5256 10.9148H30.5852C30.794 10.7491 31.0559 10.6115 31.3707 10.5021C31.6856 10.3928 32.0137 10.3381 32.3551 10.3381C32.9782 10.3381 33.5334 10.4872 34.0206 10.7855C34.5111 11.0805 34.8956 11.4848 35.174 11.9986C35.4557 12.5123 35.5966 13.099 35.5966 13.7585C35.5966 14.4081 35.4508 14.9882 35.1591 15.4986C34.8707 16.0057 34.473 16.4067 33.9659 16.7017C33.4588 16.9934 32.8821 17.1392 32.2358 17.1392ZM40.8926 17.1392C40.1435 17.1392 39.5055 16.9354 38.9785 16.5277C38.4515 16.1167 38.0488 15.5218 37.7704 14.7429C37.492 13.9607 37.3528 13.0161 37.3528 11.9091C37.3528 10.8087 37.492 9.86908 37.7704 9.0902C38.0521 8.308 38.4565 7.71141 38.9835 7.30043C39.5138 6.88613 40.1502 6.67898 40.8926 6.67898C41.635 6.67898 42.2697 6.88613 42.7967 7.30043C43.327 7.71141 43.7314 8.308 44.0098 9.0902C44.2915 9.86908 44.4324 10.8087 44.4324 11.9091C44.4324 13.0161 44.2931 13.9607 44.0147 14.7429C43.7363 15.5218 43.3336 16.1167 42.8066 16.5277C42.2797 16.9354 41.6416 17.1392 40.8926 17.1392ZM40.8926 16.0455C41.635 16.0455 42.2117 15.6875 42.6227 14.9716C43.0337 14.2557 43.2392 13.2348 43.2392 11.9091C43.2392 11.0275 43.1447 10.2768 42.9558 9.65696C42.7702 9.03717 42.5017 8.56487 42.1504 8.24006C41.8024 7.91525 41.3831 7.75284 40.8926 7.75284C40.1568 7.75284 39.5817 8.11577 39.1674 8.84162C38.7531 9.56416 38.546 10.5866 38.546 11.9091C38.546 12.7907 38.6388 13.5398 38.8244 14.1562C39.01 14.7727 39.2768 15.2417 39.6248 15.5632C39.9761 15.8847 40.3987 16.0455 40.8926 16.0455ZM46.0829 14.9119V13.8977L50.5574 6.81818H51.2931V8.3892H50.796L47.4153 13.7386V13.8182H53.4409V14.9119H46.0829ZM50.8755 17V14.6037V14.1314V6.81818H52.0488V17H50.8755Z" fill="white"/>
</svg>
