<svg width="37" height="24" viewBox="0 0 37 24" fill="none" xmlns="http://www.w3.org/2000/svg">
<path d="M18 9V7.2C18 6.0799 18 5.51984 17.782 5.09202C17.5903 4.71569 17.2843 4.40973 16.908 4.21799C16.4802 4 15.9201 4 14.8 4H7.2C6.0799 4 5.51984 4 5.09202 4.21799C4.71569 4.40973 4.40973 4.71569 4.21799 5.09202C4 5.51984 4 6.0799 4 7.2V18L8.01863 15.9907M8.01863 15.9907C8 15.6781 8 15.2934 8 14.8V12.2C8 11.0799 8 10.5198 8.21799 10.092C8.40973 9.71569 8.71569 9.40973 9.09202 9.21799C9.51984 9 10.0799 9 11.2 9H16.8C17.9201 9 18.4802 9 18.908 9.21799C19.2843 9.40973 19.5903 9.71569 19.782 10.092C20 10.5198 20 11.0799 20 12.2V20L17.8062 18.5374C17.5065 18.3377 17.3567 18.2378 17.1946 18.167C17.0507 18.1042 16.9 18.0586 16.7454 18.031C16.5713 18 16.3912 18 16.0311 18H11.2C10.0799 18 9.51984 18 9.09202 17.782C8.71569 17.5903 8.40973 17.2843 8.21799 16.908C8.09601 16.6686 8.04229 16.3878 8.01863 15.9907Z" stroke="white" stroke-width="2" stroke-linecap="round" stroke-linejoin="round"/>
<path d="M32.2358 17.1392C31.6525 17.1392 31.1271 17.0232 30.6598 16.7912C30.1925 16.5592 29.8179 16.241 29.5362 15.8366C29.2545 15.4323 29.1004 14.9716 29.0739 14.4545H30.267C30.3134 14.9152 30.5223 15.2964 30.8935 15.598C31.268 15.8963 31.7154 16.0455 32.2358 16.0455C32.6534 16.0455 33.0246 15.9477 33.3494 15.7521C33.6776 15.5566 33.9344 15.2881 34.12 14.9467C34.3089 14.602 34.4034 14.2126 34.4034 13.7784C34.4034 13.3343 34.3056 12.9382 34.1101 12.5902C33.9179 12.2389 33.6527 11.9621 33.3146 11.7599C32.9766 11.5578 32.5904 11.455 32.1562 11.4517C31.8447 11.4484 31.5249 11.4964 31.1967 11.5959C30.8686 11.692 30.5985 11.8163 30.3864 11.9688L29.233 11.8295L29.8494 6.81818H35.1392V7.91193H30.8835L30.5256 10.9148H30.5852C30.794 10.7491 31.0559 10.6115 31.3707 10.5021C31.6856 10.3928 32.0137 10.3381 32.3551 10.3381C32.9782 10.3381 33.5334 10.4872 34.0206 10.7855C34.5111 11.0805 34.8956 11.4848 35.174 11.9986C35.4557 12.5123 35.5966 13.099 35.5966 13.7585C35.5966 14.4081 35.4508 14.9882 35.1591 15.4986C34.8707 16.0057 34.473 16.4067 33.9659 16.7017C33.4588 16.9934 32.8821 17.1392 32.2358 17.1392Z" fill="#EAEAEA"/>
</svg>
