<svg width="46" height="24" viewBox="0 0 46 24" fill="none" xmlns="http://www.w3.org/2000/svg">
<path fill-rule="evenodd" clip-rule="evenodd" d="M14.9287 22.3523H7.66606C7.56927 22.3523 7.47459 22.3233 7.39433 22.2693C6.23468 21.4862 5.8248 20.346 6.23994 19.0585C6.24195 19.0523 6.2441 19.046 6.24648 19.0398C6.24782 19.0362 6.26698 18.9836 6.29903 18.89C5.27134 17.5195 4.41969 16.2658 3.76621 15.1608C1.58289 11.4696 2.48637 10.0487 3.21911 9.53016C4.18475 8.84715 5.69896 9.10001 6.75637 9.78054C6.90743 9.31437 7.22058 8.8695 7.7918 8.47079C8.32027 8.10208 8.9223 7.48017 9.02679 6.84144C9.07127 6.56985 9.02383 6.31006 8.88194 6.05247H7.67639C7.40819 6.05247 7.19101 5.83524 7.19101 5.56709C7.19101 5.29894 7.40819 5.08172 7.67639 5.08172H9.14082L9.14512 5.08167L13.4498 5.08157L13.4606 5.08172H14.9182C15.1864 5.08172 15.4036 5.29894 15.4036 5.56709C15.4036 5.83524 15.1864 6.05247 14.9182 6.05247H13.7128C13.5709 6.30996 13.5234 6.56985 13.5679 6.84144C13.6722 7.48016 14.2742 8.10188 14.8029 8.47079C16.3792 9.571 15.9918 11.0229 15.6497 12.3039C15.4922 12.8934 15.3297 13.503 15.341 14.087C15.3864 16.4035 16.3386 19.0135 16.3482 19.0397C16.3505 19.0459 16.3526 19.0521 16.3548 19.0585C16.77 20.346 16.36 21.4861 15.2001 22.2693C15.1199 22.3233 15.0254 22.3523 14.9287 22.3523H14.9287ZM10.8121 2.84609V2.12844C10.8121 1.86029 11.0293 1.64307 11.2974 1.64307C11.5656 1.64307 11.7828 1.86029 11.7828 2.12844V2.84609H14.0095C14.2777 2.84609 14.4949 3.06331 14.4949 3.33146V4.5941H8.09989V3.33146C8.09989 3.06331 8.31711 2.84609 8.58526 2.84609H10.8121ZM16.4144 10.1244C18.4758 9.06767 20.9839 9.05238 21.1146 9.05238C21.2891 9.05238 21.45 9.14582 21.5363 9.29736C21.6227 9.44894 21.6211 9.63511 21.5322 9.78512L20.6016 11.3557C20.5257 11.4836 20.3953 11.5699 20.2479 11.5895C18.4588 11.8269 17.1774 12.4893 16.439 13.5581C16.161 13.9607 15.9827 14.3897 15.8713 14.8063C15.8485 14.5641 15.8333 14.3208 15.8286 14.0775C15.818 13.5353 15.9811 12.9528 16.1208 12.4298C16.3104 11.7195 16.5003 10.9885 16.4287 10.2467C16.4247 10.2054 16.4199 10.1647 16.4144 10.1244L16.4144 10.1244ZM6.65242 17.7361C6.92105 16.76 7.22842 15.3764 7.25364 14.0868C7.26491 13.5031 7.10234 12.8933 6.94493 12.3038C6.82693 11.8615 6.70344 11.3989 6.65729 10.9374C5.91203 10.1679 4.45816 9.8424 3.77977 10.3226C3.00829 10.8686 3.31556 12.4925 4.60181 14.6669C5.14594 15.5869 5.83406 16.6166 6.65241 17.7361L6.65242 17.7361Z" fill="white"/>
<path d="M29.054 17V16.1051L32.4148 12.4261C32.8092 11.9953 33.134 11.6207 33.3892 11.3026C33.6444 10.9811 33.8333 10.6795 33.956 10.3977C34.0819 10.1127 34.1449 9.81439 34.1449 9.50284C34.1449 9.14489 34.0587 8.83499 33.8864 8.57315C33.7173 8.31132 33.4853 8.10914 33.1903 7.96662C32.8954 7.8241 32.5639 7.75284 32.196 7.75284C31.8049 7.75284 31.4635 7.83404 31.1719 7.99645C30.8835 8.15554 30.6598 8.37926 30.5007 8.66761C30.3449 8.95597 30.267 9.29403 30.267 9.68182H29.0938C29.0938 9.08523 29.2313 8.56155 29.5064 8.1108C29.7815 7.66004 30.156 7.30871 30.63 7.05682C31.1072 6.80492 31.6425 6.67898 32.2358 6.67898C32.8324 6.67898 33.361 6.80492 33.8217 7.05682C34.2824 7.30871 34.6437 7.64844 34.9055 8.07599C35.1674 8.50355 35.2983 8.97917 35.2983 9.50284C35.2983 9.87737 35.2304 10.2436 35.0945 10.6016C34.9619 10.9562 34.7299 11.3523 34.3984 11.7898C34.0703 12.224 33.6146 12.7543 33.0312 13.3807L30.7443 15.8267V15.9062H35.4773V17H29.054ZM37.0732 14.9119V13.8977L41.5476 6.81818H42.2834V8.3892H41.7862L38.4055 13.7386V13.8182H44.4311V14.9119H37.0732ZM41.8658 17V14.6037V14.1314V6.81818H43.0391V17H41.8658Z" fill="white"/>
</svg>
