<svg width="53" height="56" viewBox="0 0 53 56" fill="none" xmlns="http://www.w3.org/2000/svg">
<path d="M5.77082 36.976V36.8085C5.79315 36.8085 5.80431 36.7862 5.80431 36.7415C5.78199 36.7415 5.77082 36.7639 5.77082 36.8085L5.73733 36.909L5.77082 36.976C5.79315 37.0876 5.78199 37.2104 5.73733 37.3444C5.69267 37.4784 5.62569 37.6347 5.53637 37.8133C5.44706 38.0143 5.39123 38.1594 5.36891 38.2487C5.23493 38.6953 5.00048 39.4433 4.66555 40.4927C4.33062 41.5645 4.07384 42.3907 3.89521 42.9712C3.71658 43.5741 3.51562 44.2998 3.29234 45.1483C3.06905 45.9968 2.90158 46.7671 2.78994 47.4593C2.76761 47.6379 2.74528 47.9059 2.72295 48.2631C2.6783 48.6427 2.63364 48.9776 2.58898 49.2679C2.522 49.5805 2.43268 49.8931 2.32104 50.2057C2.43268 50.2281 2.45501 50.3285 2.38802 50.5072C2.32104 50.6858 2.32104 50.7863 2.38802 50.8086C2.38802 50.8533 2.3657 50.8979 2.32104 50.9426C2.25405 50.9872 2.22056 51.0207 2.22056 51.0431C2.24289 51.2217 2.24289 51.5231 2.22056 51.9474C2.1759 52.3716 2.09775 52.6731 1.98611 52.8517C2.00844 53.2089 1.96378 53.7113 1.85214 54.3589C1.71816 55.0287 1.67351 55.5535 1.71816 55.933C1.58419 55.9777 1.49488 56 1.45022 56C1.38323 56 1.30508 55.9777 1.21577 55.933C1.10412 55.8884 1.02597 55.8661 0.981316 55.8661C0.981316 55.7544 0.958987 55.6316 0.91433 55.4976C0.892001 55.4976 0.880837 55.5535 0.880837 55.6651C0.880837 55.7321 0.847343 55.7544 0.780357 55.7321V55.4976C0.55707 55.3413 0.378441 55.0846 0.244469 54.7273C0.110497 54.3924 0.0658391 54.0798 0.110497 53.7895C0.132825 52.3604 0.423098 50.5518 0.981316 48.3636C1.53953 46.1977 1.85214 44.5677 1.91912 43.4736C2.25405 41.8213 2.44385 40.3364 2.4885 39.0191C2.6448 38.2822 2.78994 37.1769 2.92391 35.7032C3.03556 34.2072 3.15836 33.1578 3.29234 32.5549C3.27001 32.2646 3.28117 31.818 3.32583 31.2152C3.34816 30.6123 3.33699 30.1992 3.29234 29.9759C3.67192 29.842 4.02918 29.9201 4.36411 30.2104C4.69904 30.4783 4.84418 30.8133 4.79952 31.2152C4.75487 31.7957 4.67672 32.633 4.56507 33.7271C4.45343 34.7989 4.38644 35.5023 4.36411 35.8372C4.31946 35.8372 4.29713 35.8707 4.29713 35.9377C4.29713 35.9823 4.26363 36.0158 4.19665 36.0382C4.26363 36.5071 4.23014 37.0206 4.09617 37.5788C4.14083 37.4672 4.25247 37.1769 4.4311 36.708C4.63206 36.2391 4.75487 35.9377 4.79952 35.8037C4.86651 35.6474 4.98932 35.3683 5.16795 34.9664C5.34658 34.5421 5.48055 34.2407 5.56986 34.0621C5.65918 33.8834 5.78199 33.6155 5.93829 33.2582C6.11692 32.901 6.26205 32.6219 6.3737 32.4209C6.50767 32.1976 6.66397 31.952 6.8426 31.6841C7.02123 31.3938 7.19986 31.137 7.37849 30.9137C7.55712 30.6681 7.73575 30.4337 7.91438 30.2104C6.61931 32.086 5.56986 34.0956 4.76603 36.2391C4.76603 36.2838 4.77719 36.3173 4.79952 36.3396C4.84418 36.3396 4.85535 36.3619 4.83302 36.4066C4.72137 36.3843 4.63206 36.4736 4.56507 36.6745C4.49809 36.8532 4.49809 36.9983 4.56507 37.1099C4.38644 37.2216 4.23014 37.4895 4.09617 37.9138C3.98453 38.338 3.93987 38.7064 3.9622 39.0191C4.45343 37.5007 5.36891 35.2902 6.70863 32.3874L6.80911 32.4879C6.80911 32.3986 6.86493 32.2758 6.97657 32.1195C7.11054 31.9409 7.1552 31.818 7.11054 31.7511C7.3115 31.6617 7.42315 31.5054 7.44547 31.2822C7.66876 30.9249 8.01486 30.4672 8.48376 29.9089C8.95266 29.3284 9.2541 28.96 9.38807 28.8037C9.70067 28.4911 10.0468 28.3013 10.4264 28.2343C10.8283 28.1673 11.2079 28.2678 11.5651 28.5357C11.5651 28.625 11.5316 28.6474 11.4646 28.6027C11.7326 28.692 11.9782 28.8483 12.2015 29.0716C12.1568 29.1609 12.1457 29.2168 12.168 29.2391C12.1903 29.2614 12.2238 29.3061 12.2685 29.3731C12.3355 29.4177 12.3801 29.4512 12.4024 29.4735C12.6034 29.9648 12.6257 30.59 12.4694 31.3491C12.3355 32.086 12.1122 32.7 11.7996 33.1913C11.7772 33.2359 11.7103 33.2917 11.5986 33.3587C11.5093 33.4257 11.4535 33.4815 11.4311 33.5262C11.3642 33.6155 11.2525 33.8276 11.0962 34.1626C10.9399 34.4752 10.7836 34.6984 10.6273 34.8324C9.97978 35.4799 9.47739 35.8819 9.12013 36.0382C9.07547 36.0605 9.00848 36.0605 8.91917 36.0382C8.85218 36.0158 8.80752 36.0382 8.7852 36.1052C8.36095 35.8149 8.05951 35.4465 7.88088 34.9999C7.70225 34.531 7.80273 34.0956 8.18232 33.6937C8.18232 33.716 8.15999 33.7941 8.11534 33.9281C8.09301 34.0621 8.05951 34.1849 8.01486 34.2965C8.01486 34.3858 8.05951 34.4528 8.14883 34.4975C8.26047 34.5198 8.29396 34.5868 8.24931 34.6984C9.23177 34.0286 10.0244 33.1578 10.6273 32.086C11.2525 31.0142 11.3977 29.9871 11.0627 29.0046C10.9957 29.0046 10.8953 29.0604 10.7613 29.1721C10.6273 29.2837 10.5157 29.3284 10.4264 29.3061C9.7565 29.9759 9.12013 30.7798 8.51725 31.7176C7.93671 32.633 7.47897 33.4257 7.14404 34.0956C6.83144 34.7431 6.38486 35.7032 5.80431 36.976H5.77082ZM10.1919 28.5692C10.1472 28.5692 10.0914 28.5915 10.0244 28.6362L9.95745 28.7032C10.0914 28.7032 10.1696 28.6585 10.1919 28.5692C10.2589 28.5469 10.3147 28.5134 10.3594 28.4687C10.3594 28.4911 10.3259 28.5022 10.2589 28.5022C10.2142 28.5022 10.1919 28.5246 10.1919 28.5692ZM9.75649 28.9041C9.80115 28.9265 9.83465 28.9153 9.85697 28.8707C9.8793 28.826 9.86814 28.7925 9.82348 28.7702C9.82348 28.7925 9.81232 28.8148 9.78999 28.8372C9.76766 28.8595 9.75649 28.8818 9.75649 28.9041ZM8.85218 29.9089C8.69588 29.9536 8.60657 30.0317 8.58424 30.1434H8.55074C8.55074 30.1657 8.52842 30.1992 8.48376 30.2439C8.4391 30.2885 8.41677 30.3332 8.41677 30.3778H8.38328C7.51246 31.5613 6.85376 32.6889 6.40719 33.7606L6.3737 33.7941C6.39603 33.7941 6.40719 33.783 6.40719 33.7606C6.47418 33.7383 6.53 33.6825 6.57466 33.5932C6.61931 33.4815 6.66397 33.4145 6.70863 33.3922V33.4257C6.82027 33.448 6.89842 33.4034 6.94308 33.2917C6.89842 33.2917 6.85376 33.3141 6.80911 33.3587C6.76445 33.3811 6.73096 33.3922 6.70863 33.3922C6.8426 33.0126 7.13287 32.4767 7.57945 31.7846C8.02602 31.07 8.30513 30.6011 8.41677 30.3778C8.4391 30.3555 8.49492 30.3444 8.58424 30.3444V30.1434C8.67355 30.1211 8.76287 30.0429 8.85218 29.9089C9.29876 29.4624 9.55554 29.1386 9.62252 28.9376C9.15362 29.4512 8.89684 29.775 8.85218 29.9089ZM9.38807 29.6745V29.5405V29.6745ZM8.98615 30.1769C9.12013 30.1769 9.19828 30.1657 9.22061 30.1434C9.22061 30.0987 9.19828 30.0541 9.15362 30.0094C9.15362 30.0317 9.12013 30.0541 9.05314 30.0764C8.98615 30.0987 8.96383 30.1322 8.98615 30.1769ZM8.7852 30.7128V30.5788V30.7128ZM8.38328 30.8802C8.45027 30.9026 8.50609 30.8579 8.55074 30.7463C8.52842 30.7463 8.50609 30.7463 8.48376 30.7463C8.46143 30.7239 8.4391 30.7128 8.41677 30.7128C8.41677 30.7351 8.40561 30.7686 8.38328 30.8133C8.38328 30.8356 8.38328 30.8579 8.38328 30.8802ZM11.5986 31.3156C11.5316 31.5166 11.554 31.6059 11.6656 31.5836C11.6433 31.5389 11.6544 31.5054 11.6991 31.4831C11.7214 31.4385 11.7326 31.405 11.7326 31.3826C11.6879 31.405 11.6544 31.3938 11.6321 31.3491C11.6321 31.3268 11.6209 31.3156 11.5986 31.3156C11.6656 31.2487 11.6656 31.204 11.5986 31.1817C11.5093 31.271 11.5093 31.3156 11.5986 31.3156ZM10.8618 32.2869C10.7725 32.4209 10.605 32.6777 10.3594 33.0573C10.1138 33.4145 9.92396 33.6937 9.78999 33.8946C9.67834 34.0732 9.49971 34.2965 9.2541 34.5645C9.03081 34.8324 8.80752 35.0557 8.58424 35.2343C8.96383 35.011 9.29876 34.7319 9.58903 34.397C9.8793 34.0621 10.1026 33.7606 10.2589 33.4927C10.4152 33.2248 10.6161 32.8228 10.8618 32.2869C10.9064 32.2869 10.9399 32.2646 10.9622 32.22C11.0069 32.153 11.0292 32.0972 11.0292 32.0525C11.0516 32.0078 11.0404 31.9743 10.9957 31.952C10.9957 31.9967 10.9734 32.0525 10.9288 32.1195C10.9064 32.1641 10.8841 32.22 10.8618 32.2869ZM7.01006 33.0238C7.05472 33.0461 7.08822 33.0461 7.11054 33.0238C7.13287 32.9791 7.12171 32.9456 7.07705 32.9233C7.05472 32.901 7.03239 32.901 7.01006 32.9233V33.0238ZM6.20623 34.1291C6.0276 34.3747 5.88247 34.7208 5.77082 35.1673C5.77082 35.145 5.79315 35.1339 5.83781 35.1339C5.90479 35.1339 5.94945 35.1227 5.97178 35.1004C5.94945 34.9664 6.0611 34.6984 6.30671 34.2965C6.32904 34.2519 6.31787 34.2295 6.27322 34.2295C6.22856 34.2072 6.20623 34.1737 6.20623 34.1291H6.44068C6.44068 34.0621 6.3737 34.0063 6.23972 33.9616C6.2174 33.9839 6.20623 34.0397 6.20623 34.1291ZM6.50767 34.0286C6.57465 34.0732 6.60815 34.0509 6.60815 33.9616C6.51883 33.9616 6.48534 33.9839 6.50767 34.0286ZM5.63685 35.4353C5.74849 35.3237 5.77082 35.2455 5.70384 35.2008C5.63685 35.3348 5.61452 35.413 5.63685 35.4353ZM5.93829 35.6028C6.00527 35.6028 6.03877 35.5804 6.03877 35.5358C5.97178 35.5358 5.93829 35.5581 5.93829 35.6028ZM5.23493 36.6076C5.25726 36.6076 5.30192 36.5517 5.36891 36.4401C5.32425 36.4624 5.30192 36.4401 5.30192 36.3731L5.33541 36.3061C5.35774 36.2391 5.38007 36.1945 5.4024 36.1721C5.44706 36.1945 5.48055 36.2391 5.50288 36.3061C5.54753 36.3508 5.58103 36.3731 5.60336 36.3731C5.60336 36.3508 5.62569 36.3396 5.67034 36.3396C5.715 36.3173 5.73733 36.2838 5.73733 36.2391C5.715 36.2168 5.68151 36.2168 5.63685 36.2391C5.59219 36.2615 5.56986 36.2503 5.56986 36.2056V36.1386C5.50288 36.1163 5.46938 36.0828 5.46938 36.0382C5.46938 35.9935 5.48055 35.9489 5.50288 35.9042C5.52521 35.8372 5.53637 35.7926 5.53637 35.7702C5.44706 35.8595 5.38007 35.9489 5.33541 36.0382C5.29075 36.1275 5.2461 36.2503 5.20144 36.4066C5.17911 36.5406 5.14562 36.6522 5.10096 36.7415C5.12329 36.7415 5.14562 36.7527 5.16795 36.775C5.19028 36.775 5.2126 36.775 5.23493 36.775V36.6076ZM5.03397 37.1099C5.03397 37.0653 5.0563 37.0206 5.10096 36.976C5.16795 36.9536 5.19028 36.909 5.16795 36.842H5.03397C5.01165 36.8643 5.00048 36.909 5.00048 36.976C5.00048 37.043 5.01165 37.0876 5.03397 37.1099ZM4.96699 37.5454C4.94466 37.4784 4.95582 37.4114 5.00048 37.3444L4.9 37.2439C4.81069 37.3332 4.78836 37.4226 4.83302 37.5119C4.85535 37.5565 4.9 37.5677 4.96699 37.5454ZM4.69904 38.0478C4.69904 38.0254 4.71021 37.9808 4.73254 37.9138C4.75487 37.8691 4.7437 37.8468 4.69904 37.8468C4.69904 37.8691 4.68788 37.9026 4.66555 37.9473C4.64322 37.9919 4.65439 38.0254 4.69904 38.0478ZM4.23014 39.153C4.29713 39.1977 4.36411 39.153 4.4311 39.0191C4.38644 38.9967 4.36411 38.9632 4.36411 38.9186C4.38644 38.8739 4.38644 38.8404 4.36411 38.8181C4.4311 38.8181 4.47576 38.7958 4.49809 38.7511C4.52041 38.7064 4.54274 38.6618 4.56507 38.6171C4.60973 38.5725 4.65439 38.539 4.69904 38.5167C4.60973 38.4943 4.53158 38.5055 4.46459 38.5501C4.41994 38.5948 4.38644 38.6506 4.36411 38.7176C4.34178 38.7846 4.31946 38.8627 4.29713 38.9521C4.2748 39.0414 4.25247 39.1084 4.23014 39.153ZM4.19665 39.6219C3.97336 39.6443 3.88405 39.8787 3.9287 40.3253C3.9287 40.2806 3.93987 40.2471 3.9622 40.2248C3.98453 40.1801 4.00685 40.1913 4.02918 40.2583C4.02918 40.236 4.05151 40.2025 4.09617 40.1578C4.14083 40.1355 4.15199 40.102 4.12966 40.0573C4.085 40.0573 4.04035 40.035 3.99569 39.9903C4.10733 39.968 4.14083 39.8899 4.09617 39.7559C4.1185 39.7336 4.16316 39.7001 4.23014 39.6554C4.2748 39.5214 4.25247 39.4321 4.16316 39.3875C4.14083 39.4768 4.15199 39.5549 4.19665 39.6219ZM3.82823 40.7607C3.8059 40.7384 3.8059 40.7049 3.82823 40.6602C3.85055 40.6156 3.83939 40.5821 3.79473 40.5597C3.7724 40.5821 3.76124 40.6156 3.76124 40.6602C3.76124 40.7272 3.78357 40.7607 3.82823 40.7607ZM3.99569 40.9951C3.99569 40.9728 4.00685 40.9393 4.02918 40.8947C4.07384 40.85 4.06268 40.8277 3.99569 40.8277C3.95103 40.917 3.95103 40.9728 3.99569 40.9951ZM3.76124 41.866C3.73891 41.8213 3.73891 41.7655 3.76124 41.6985C3.8059 41.6315 3.82823 41.5757 3.82823 41.531C3.85055 41.5087 3.82822 41.4864 3.76124 41.464C3.76124 41.4864 3.75007 41.531 3.72775 41.598C3.70542 41.6873 3.69425 41.7543 3.69425 41.799C3.69425 41.8436 3.71658 41.866 3.76124 41.866ZM2.78994 42.2679C2.8346 42.2902 2.86809 42.2567 2.89042 42.1674L2.78994 42.2679ZM2.89042 42.5358C2.89042 42.4912 2.85693 42.4465 2.78994 42.4018C2.72295 42.5135 2.75645 42.5582 2.89042 42.5358ZM2.72295 43.0717C2.70063 43.0494 2.72295 42.9712 2.78994 42.8373C2.85693 42.7033 2.84576 42.6251 2.75645 42.6028C2.68946 42.8931 2.6783 43.0494 2.72295 43.0717ZM2.22056 46.3875C2.22056 46.3429 2.23172 46.2982 2.25405 46.2535C2.27638 46.1866 2.25405 46.1531 2.18707 46.1531C2.18707 46.1754 2.18707 46.2201 2.18707 46.287C2.18707 46.354 2.19823 46.3875 2.22056 46.3875ZM1.21577 48.2296C1.21577 48.2073 1.2381 48.1961 1.28275 48.1961C1.26042 48.1292 1.22693 48.0957 1.18227 48.0957C1.18227 48.185 1.19344 48.2296 1.21577 48.2296ZM1.11529 49.067C1.02597 49.067 0.970151 49.1339 0.947823 49.2679C0.925494 49.4242 0.947823 49.5247 1.01481 49.5694C1.10412 49.3014 1.13762 49.1339 1.11529 49.067C1.13762 49.0446 1.17111 48.8548 1.21577 48.4976C1.10412 48.6539 1.07063 48.8437 1.11529 49.067ZM0.947823 49.9043C0.746864 50.0159 0.7357 50.1164 0.91433 50.2057C0.91433 50.1611 0.936658 50.1052 0.981316 50.0383C1.00364 49.9936 0.99248 49.9489 0.947823 49.9043C1.03714 49.9043 1.05947 49.8485 1.01481 49.7368C1.01481 49.6922 0.99248 49.6698 0.947823 49.6698C0.947823 49.7368 0.925494 49.748 0.880837 49.7033C0.858508 49.681 0.836179 49.6698 0.81385 49.6698C0.81385 49.7145 0.836179 49.7703 0.880837 49.8373L0.947823 49.9043ZM9.99095 28.1673C10.0356 28.212 10.0579 28.2566 10.0579 28.3013C10.0356 28.3013 10.0133 28.2901 9.99095 28.2678H9.95745V28.2343C9.97978 28.212 9.99095 28.1896 9.99095 28.1673ZM9.78999 28.3348C9.74533 28.3571 9.67834 28.4129 9.58903 28.5022C9.49971 28.5692 9.4104 28.6362 9.32108 28.7032C9.2541 28.7478 9.19828 28.7702 9.15362 28.7702C9.33225 28.5469 9.54437 28.4018 9.78999 28.3348ZM9.01965 28.9041C8.97499 29.0158 8.81869 29.2056 8.55074 29.4735C8.66239 29.1833 8.81869 28.9935 9.01965 28.9041ZM7.94787 30.1769C8.05951 29.9536 8.24931 29.7191 8.51725 29.4735C8.29396 29.8308 8.10417 30.0652 7.94787 30.1769ZM7.91438 30.2104C7.91438 30.188 7.92554 30.1769 7.94787 30.1769C7.94787 30.2215 7.93671 30.2327 7.91438 30.2104Z" fill="white"/>
<path d="M18.0468 33.6937L18.0803 33.6602L18.0468 33.6937C18.0245 33.716 17.9687 33.7495 17.8793 33.7941C17.8124 33.8165 17.7565 33.85 17.7119 33.8946C17.6895 33.9169 17.6784 33.9504 17.6784 33.9951C17.6337 34.0621 17.5444 34.1291 17.4104 34.1961C17.2765 34.2407 17.1872 34.2742 17.1425 34.2965C16.8746 34.4752 16.4056 34.8994 15.7358 35.5693C15.0883 36.2391 14.4631 36.7415 13.8602 37.0765C13.2573 37.4337 12.6656 37.5007 12.085 37.2774C12.0627 37.1881 12.0181 37.0765 11.9511 36.9425C11.8841 36.8308 11.8394 36.7415 11.8171 36.6745C11.8171 36.6076 11.7948 36.5964 11.7501 36.641C11.7055 36.6634 11.6831 36.6522 11.6831 36.6076C11.6385 36.5406 11.5938 36.4513 11.5492 36.3396C11.5045 36.228 11.4598 36.1498 11.4152 36.1052C11.4598 35.8819 11.5157 35.6586 11.5827 35.4353C11.6496 35.1897 11.7166 34.9776 11.7836 34.7989C11.8506 34.6203 11.9399 34.4193 12.0516 34.1961C12.1632 33.9504 12.2525 33.7606 12.3195 33.6267C12.3642 33.4927 12.4646 33.3141 12.6209 33.0908C12.7772 32.8452 12.8889 32.6777 12.9559 32.5884C13.0005 32.4767 13.1233 32.2981 13.3243 32.0525C13.5029 31.7846 13.6146 31.6283 13.6592 31.5836C13.7039 31.5166 13.8267 31.3491 14.0276 31.0812C14.2509 30.7909 14.3737 30.6235 14.3961 30.5788C15.0883 30.0429 15.6911 29.775 16.2047 29.775C17.2765 30.0206 17.857 30.456 17.9463 31.0812C17.991 31.4161 17.8793 31.8069 17.6114 32.2535C17.6784 32.2535 17.8235 32.22 18.0468 32.153C18.2701 32.0637 18.4599 32.0302 18.6162 32.0525C18.9065 32.1641 19.0739 32.4544 19.1186 32.9233C19.1856 33.3922 19.1074 33.7383 18.8841 33.9616C18.9958 34.1402 18.9958 34.4417 18.8841 34.8659C18.7725 35.2902 18.7502 35.5916 18.8171 35.7702C19.4647 35.6586 20.0564 35.5023 20.5923 35.3013C21.1505 35.1004 21.7199 34.7878 22.3004 34.3635C22.881 33.9169 23.2941 33.582 23.5397 33.3587C23.8076 33.1354 24.2654 32.7 24.9129 32.0525C25.5827 31.3826 25.9735 30.9919 26.0851 30.8802C26.0182 31.4161 25.8172 31.8962 25.4823 32.3204C25.1697 32.7447 24.7008 33.2136 24.0756 33.7271C23.4727 34.2184 23.0708 34.5645 22.8698 34.7654C21.5524 35.5023 20.8267 35.9042 20.6928 35.9712C20.7151 35.9935 20.7374 36.0047 20.7597 36.0047C20.8044 35.9823 20.8491 35.96 20.8937 35.9377C20.9384 35.9154 20.983 35.9042 21.0277 35.9042C21.0277 35.9265 20.9942 35.9489 20.9272 35.9712C20.8826 35.9935 20.8602 36.027 20.8602 36.0717C21.3515 35.893 21.9543 35.5358 22.6688 34.9999C23.4057 34.4417 23.9416 34.0844 24.2765 33.9281C24.2765 33.8834 24.243 33.8723 24.176 33.8946C24.1314 33.9169 24.0979 33.9281 24.0756 33.9281C24.1872 33.7495 24.2654 33.7271 24.31 33.8611C24.4886 33.4592 24.8012 33.2136 25.2478 33.1243C24.0197 34.6203 22.1888 35.9377 19.755 37.0765C19.6433 37.0988 19.4982 37.0876 19.3195 37.043C19.1409 37.0206 19.0069 37.0095 18.9176 37.0095C18.5604 36.8978 18.2589 36.6076 18.0133 36.1386C17.9687 35.0669 17.9798 34.2519 18.0468 33.6937ZM12.7214 36.0047C13.235 35.7591 13.715 35.4576 14.1616 35.1004C14.6082 34.7208 15.0994 34.2742 15.6353 33.7606C16.1935 33.2248 16.6066 32.834 16.8746 32.5884C16.7629 32.4991 16.7071 32.2646 16.7071 31.885C16.7071 31.4831 16.7071 31.271 16.7071 31.2487C16.3945 31.338 16.1042 31.4608 15.8363 31.6171C15.5907 31.7511 15.345 31.9409 15.0994 32.1865C14.8761 32.4321 14.6863 32.633 14.53 32.7893C14.3737 32.9456 14.1839 33.2136 13.9607 33.5932C13.7597 33.9504 13.6257 34.1961 13.5587 34.33C13.4918 34.4417 13.3466 34.7319 13.1233 35.2008C12.9 35.6474 12.7661 35.9154 12.7214 36.0047ZM25.4823 31.885C25.5493 31.952 25.6051 31.9074 25.6497 31.7511C25.5381 31.818 25.4823 31.8627 25.4823 31.885ZM21.4296 35.0669C21.3849 35.0445 21.3515 35.0445 21.3291 35.0669C21.2621 35.0445 21.2063 35.078 21.1617 35.1673C21.2063 35.1673 21.2621 35.1339 21.3291 35.0669H21.4296C21.4073 35.1115 21.2845 35.1897 21.0612 35.3013C21.0612 35.279 21.0723 35.2567 21.0947 35.2343C21.1393 35.1897 21.1282 35.1673 21.0612 35.1673C20.9495 35.3683 20.8379 35.4241 20.7263 35.3348C20.6593 35.5134 20.6593 35.6028 20.7263 35.6028C22.8028 34.531 24.377 33.3029 25.4488 31.9185C25.2701 32.0748 24.9575 32.3539 24.511 32.7558C24.0644 33.1354 23.7183 33.4257 23.4727 33.6267C23.2494 33.8053 22.9368 34.0398 22.5349 34.33C22.1553 34.6203 21.7869 34.8659 21.4296 35.0669ZM17.2095 33.0573C17.2318 33.1019 17.2765 33.1019 17.3435 33.0573C17.4104 32.9903 17.4104 32.9456 17.3435 32.9233C17.3435 32.9456 17.31 32.968 17.243 32.9903C17.1983 32.9903 17.1872 33.0126 17.2095 33.0573ZM17.0085 33.2582C16.9639 33.2359 16.9192 33.2582 16.8746 33.3252C16.8522 33.3699 16.8634 33.3922 16.908 33.3922C16.908 33.3699 16.9192 33.3587 16.9415 33.3587C16.9862 33.3364 17.0085 33.3029 17.0085 33.2582C17.0309 33.2582 17.042 33.2694 17.042 33.2917C17.042 33.2917 17.0532 33.2917 17.0755 33.2917C17.0978 33.2694 17.109 33.2248 17.109 33.1578C17.042 33.1578 17.0085 33.1913 17.0085 33.2582ZM12.4535 35.6028C12.3195 35.826 12.2637 35.9489 12.286 35.9712C12.3976 35.7926 12.4535 35.6697 12.4535 35.6028ZM20.4248 36.1386C20.5811 36.0717 20.6593 36.027 20.6593 36.0047C20.57 36.0047 20.503 36.0158 20.4583 36.0382C20.4137 36.0382 20.4025 36.0717 20.4248 36.1386ZM20.4918 36.2726C20.7151 36.161 20.8267 36.094 20.8267 36.0717C20.6481 36.1163 20.5365 36.1833 20.4918 36.2726ZM12.2525 36.2726C12.2972 36.2056 12.2637 36.1721 12.152 36.1721C12.1074 36.1721 12.085 36.1833 12.085 36.2056C12.1074 36.2056 12.1409 36.2168 12.1855 36.2391C12.2079 36.2615 12.2302 36.2726 12.2525 36.2726ZM25.5158 32.5884C25.5827 32.633 25.5827 32.6777 25.5158 32.7224C25.4711 32.767 25.4264 32.7782 25.3818 32.7558C25.3818 32.7335 25.4041 32.7112 25.4488 32.6889C25.4934 32.6665 25.5158 32.633 25.5158 32.5884ZM25.4488 32.8898C25.4711 32.9568 25.4376 33.0015 25.3483 33.0238C25.3036 32.9791 25.2701 32.9456 25.2478 32.9233C25.2701 32.9233 25.2925 32.9121 25.3148 32.8898C25.3595 32.8675 25.4041 32.8675 25.4488 32.8898ZM21.2956 35.7702C21.2956 35.8149 21.2733 35.8484 21.2286 35.8707C21.184 35.8707 21.1617 35.8819 21.1617 35.9042C21.117 35.8595 21.1617 35.8149 21.2956 35.7702Z" fill="white"/>
<path d="M26.2801 37.0095C26.2801 37.0318 26.2801 37.0541 26.2801 37.0765C26.3024 37.1211 26.3136 37.1546 26.3136 37.1769C26.3359 37.1769 26.3694 37.1546 26.4141 37.1099C26.4587 37.1323 26.5034 37.1658 26.548 37.2104C26.5927 37.2774 26.6262 37.3221 26.6485 37.3444C27.0504 37.2551 27.4523 37.0988 27.8542 36.8755C28.2562 36.6745 28.5576 36.5071 28.7586 36.3731C28.9595 36.2391 29.2833 35.9935 29.7299 35.6363C30.1988 35.2567 30.4779 35.0334 30.5672 34.9664C32.5321 33.2694 34.1733 31.8069 35.4907 30.5788H35.6581C35.6805 30.5788 35.7028 30.5453 35.7251 30.4783C35.7251 30.4337 35.7474 30.4113 35.7921 30.4113C35.7251 30.5676 35.5353 30.8133 35.2227 31.1482C34.9101 31.4831 34.7315 31.7511 34.6868 31.952C34.3742 31.9297 34.0058 32.2423 33.5816 32.8898C33.5369 32.9121 33.4922 32.8898 33.4476 32.8228V33.0238C33.269 32.9568 33.1573 33.0126 33.1127 33.1913C32.8001 33.3029 32.6661 33.4369 32.7107 33.5932C32.4875 33.6602 32.3312 33.7718 32.2418 33.9281C32.2642 33.9281 32.2977 33.9058 32.3423 33.8611C32.387 33.8165 32.4205 33.8276 32.4428 33.8946C32.3758 33.9616 32.2865 33.9951 32.1749 33.9951C32.1749 34.0397 32.1637 34.0732 32.1414 34.0956C32.1414 34.0956 32.119 34.0956 32.0744 34.0956C32.052 34.0956 32.0297 34.1067 32.0074 34.1291C32.0074 34.1291 32.0186 34.1626 32.0409 34.2295C31.9739 34.2519 31.9181 34.2407 31.8734 34.1961C31.8734 34.263 31.7841 34.3747 31.6055 34.531C31.4492 34.6873 31.371 34.8101 31.371 34.8994L31.304 34.8324C31.3264 34.8547 31.3375 34.8436 31.3375 34.7989L31.304 34.8324C31.2594 34.8771 31.1701 34.9664 31.0361 35.1004C30.9021 35.212 30.8016 35.3013 30.7347 35.3683C30.757 35.4353 30.8016 35.4353 30.8686 35.3683C30.9579 35.279 31.0361 35.2678 31.1031 35.3348C31.1254 35.2008 31.2259 35.0669 31.4045 34.9329C31.6055 34.7766 31.7729 34.7208 31.9069 34.7654C31.8399 34.8547 31.7283 34.9664 31.572 35.1004C31.438 35.212 31.3375 35.3125 31.2705 35.4018C31.4045 35.3125 31.5943 35.1673 31.8399 34.9664C32.0855 34.7431 32.2865 34.598 32.4428 34.531C32.2418 34.7766 31.9069 35.0892 31.438 35.4688C30.9691 35.826 30.6342 36.1275 30.4332 36.3731C30.4779 36.4178 30.5337 36.4178 30.6007 36.3731C30.69 36.3284 30.7458 36.2726 30.7681 36.2056C30.8351 36.2503 30.8351 36.3284 30.7681 36.4401C30.7235 36.4847 30.6788 36.4847 30.6342 36.4401C30.5895 36.5741 30.6118 36.641 30.7012 36.641C29.6294 37.6682 28.5799 38.2264 27.5528 38.3157C26.6597 38.1594 25.9452 37.7352 25.4093 37.043C24.8734 36.3508 24.5831 35.4799 24.5384 34.4305C24.5608 34.3858 24.5496 34.3635 24.5049 34.3635C24.4603 34.3412 24.438 34.3189 24.438 34.2965C24.7282 33.1131 24.7617 32.1976 24.5384 31.5501C24.7841 31.3045 24.9739 30.8356 25.1078 30.1434C25.2195 29.4512 25.2865 29.0716 25.3088 29.0046C25.3534 29.0046 25.3646 29.0493 25.3423 29.1386C25.3199 29.2279 25.3088 29.2949 25.3088 29.3396C25.3758 29.2726 25.4093 29.1721 25.4093 29.0381C25.4316 28.8818 25.3981 28.7813 25.3088 28.7367C26.2019 24.2709 27.5305 19.8052 29.2945 15.3395C29.4284 15.0938 29.7187 14.558 30.1653 13.7318C30.6342 12.8833 30.9803 12.2693 31.2036 11.8897C31.4492 11.4878 31.7953 10.9965 32.2418 10.416C32.7107 9.83544 33.1796 9.36654 33.6486 9.00928C34.3407 9.05393 34.8208 9.36654 35.0887 9.94708C35.379 10.5053 35.4907 11.1082 35.4237 11.7557C35.3567 12.3809 35.2116 12.995 34.9883 13.5978C34.9883 14.4463 34.7427 15.3395 34.2514 16.2773C33.9612 17.1704 33.6262 18.1082 33.2466 19.0907C32.867 20.0508 32.5321 20.8547 32.2418 21.5022C31.9739 22.1274 31.5831 22.9982 31.0696 24.1146C30.5784 25.2311 30.2099 26.0796 29.9643 26.6601C29.875 26.7494 29.7968 26.8164 29.7299 26.8611C29.7299 26.8834 29.741 26.9281 29.7634 26.995C29.7857 27.0397 29.7857 27.0844 29.7634 27.129C29.5401 27.4639 29.2275 28.0222 28.8256 28.8037C28.446 29.5852 28.0664 30.255 27.6868 30.8133C27.3072 31.3491 26.8606 31.7846 26.3471 32.1195C26.2354 32.2535 26.1461 32.5326 26.0791 32.9568C26.0121 33.3587 25.9451 33.6155 25.8782 33.7271C25.9228 34.0844 25.9228 34.4417 25.8782 34.7989C25.8335 35.1339 25.8335 35.5246 25.8782 35.9712C25.9451 36.3954 26.0791 36.7415 26.2801 37.0095ZM33.2801 10.5835C33.2578 10.5835 33.2355 10.5611 33.2131 10.5165C33.2131 10.4495 33.1908 10.4271 33.1462 10.4495C33.1238 10.4941 33.135 10.5276 33.1796 10.55C33.2243 10.5723 33.2466 10.5946 33.2466 10.6169C33.1796 10.6616 33.0903 10.7621 32.9787 10.9184C32.8894 11.0524 32.8001 11.1417 32.7107 11.1863C32.7331 11.1193 32.7219 11.0747 32.6773 11.0524C32.6103 11.1193 32.5098 11.2645 32.3758 11.4878C32.3758 11.5324 32.3981 11.5213 32.4428 11.4543C32.5098 11.3873 32.5544 11.3873 32.5768 11.4543C32.5544 11.4989 32.4875 11.5994 32.3758 11.7557C32.2865 11.8897 32.2083 12.0013 32.1414 12.0906C32.0967 12.1576 32.0297 12.2358 31.9404 12.3251C31.8511 12.4144 31.7729 12.4591 31.706 12.4591C31.7506 12.6154 31.7506 12.7382 31.706 12.8275C31.6836 12.8945 31.6166 12.995 31.505 13.1289C31.3934 13.2629 31.3264 13.3634 31.304 13.4304C31.304 13.475 31.3264 13.5085 31.371 13.5308C31.438 13.5532 31.4603 13.5978 31.438 13.6648C31.3264 13.6648 31.2594 13.676 31.237 13.6983C31.2147 13.7206 31.237 13.7653 31.304 13.8323C31.2817 13.8323 31.2594 13.8434 31.237 13.8658C31.2147 13.8881 31.1812 13.8881 31.1366 13.8658C31.2036 13.9551 31.1701 14.1225 31.0361 14.3682C30.9244 14.5915 30.9244 14.7478 31.0361 14.8371C31.0138 14.8371 30.9691 14.8706 30.9021 14.9375C30.8575 14.9822 30.8016 15.0045 30.7347 15.0045C30.7123 15.0492 30.7235 15.0827 30.7681 15.105C30.8128 15.105 30.8351 15.1162 30.8351 15.1385C30.7458 15.3395 30.5895 15.6632 30.3662 16.1098C30.1653 16.534 29.9978 16.9248 29.8638 17.2821C29.7299 17.617 29.6294 17.9519 29.5624 18.2869C29.4508 18.4655 29.3056 18.8227 29.127 19.3586C28.9484 19.8945 28.7362 20.2741 28.4906 20.4974C28.4683 20.5421 28.4906 20.5755 28.5576 20.5979C28.6469 20.6202 28.6916 20.6425 28.6916 20.6649C28.6692 20.7095 28.6246 20.877 28.5576 21.1673C28.4906 21.4352 28.4013 21.625 28.2897 21.7366C28.2897 21.9376 28.2227 22.239 28.0887 22.6409C27.9771 23.0205 27.9101 23.2885 27.8877 23.4448C27.8654 23.4671 27.8208 23.4783 27.7538 23.4783C27.7091 23.4783 27.6868 23.4894 27.6868 23.5118C27.7538 23.5118 27.7873 23.5564 27.7873 23.6457C27.8096 23.7351 27.7873 23.8132 27.7203 23.8802C27.6756 23.9472 27.6198 23.9807 27.5528 23.9807C27.5975 24.8292 27.43 25.4767 27.0504 25.9233C27.1174 25.9903 27.1397 26.0907 27.1174 26.2247C27.1174 26.3587 27.1286 26.4703 27.1509 26.5596C27.0839 26.5596 27.0281 26.5931 26.9834 26.6601C26.9611 26.7048 26.9388 26.7829 26.9164 26.8946C26.9164 26.9839 26.9053 27.0509 26.883 27.0955C26.9723 27.0955 27.0281 27.0509 27.0504 26.9616C26.6932 28.4129 26.5145 29.2614 26.5145 29.507C27.229 28.3459 27.8989 27.1402 28.5241 25.8898C29.1493 24.617 29.8973 22.9982 30.7681 21.0333C31.6613 19.046 32.2195 17.7956 32.4428 17.2821C32.5544 16.8578 32.7442 16.2438 33.0122 15.4399C33.3025 14.6361 33.5257 13.9216 33.682 13.2964C33.8607 12.6712 33.9835 12.0571 34.0505 11.4543C34.1398 11.3203 34.1844 11.097 34.1844 10.7844C34.1844 10.4495 34.1844 10.1815 34.1844 9.98058C34.0951 9.98058 34.017 9.96941 33.95 9.94708C33.9053 9.92475 33.8383 9.95825 33.749 10.0476C33.6597 10.1369 33.5927 10.2039 33.5481 10.2485C33.5257 10.2708 33.4699 10.3267 33.3806 10.416C33.3136 10.5053 33.2801 10.5611 33.2801 10.5835ZM34.6868 11.0524H34.7538C34.7538 11.03 34.765 11.0077 34.7873 10.9854C34.8096 10.963 34.8096 10.9407 34.7873 10.9184H34.6868V11.0524ZM34.7203 11.2198C34.6533 11.3984 34.6422 11.5882 34.6868 11.7892C34.6645 11.8339 34.631 11.845 34.5864 11.8227C34.564 11.8004 34.5417 11.7892 34.5194 11.7892C34.5417 11.8115 34.564 11.8897 34.5864 12.0237C34.6087 12.1353 34.6422 12.2023 34.6868 12.2246C34.6868 12.0906 34.7092 11.9008 34.7538 11.6552C34.7985 11.4096 34.7873 11.2645 34.7203 11.2198ZM32.1079 11.8897C32.1302 11.8897 32.2083 11.7892 32.3423 11.5882C32.2307 11.5882 32.1525 11.6887 32.1079 11.8897ZM28.7251 17.483C29.4173 16.0093 30.3886 14.0891 31.639 11.7222C30.5449 13.3299 29.5736 15.2501 28.7251 17.483ZM34.5529 12.6265C34.5529 12.5819 34.5529 12.5484 34.5529 12.526C34.5752 12.4814 34.5975 12.4367 34.6198 12.3921C34.6422 12.3474 34.6533 12.3139 34.6533 12.2916C34.564 12.2916 34.5082 12.2804 34.4859 12.2581C34.4412 12.3028 34.4189 12.3697 34.4189 12.4591C34.4412 12.5484 34.4859 12.6042 34.5529 12.6265ZM34.1509 13.4304H34.2849C34.2849 13.475 34.2626 13.5085 34.2179 13.5308C34.1733 13.5532 34.1509 13.5867 34.1509 13.6313C34.2403 13.6536 34.2961 13.6425 34.3184 13.5978C34.3631 13.5308 34.3854 13.4415 34.3854 13.3299C34.4077 13.2182 34.4301 13.1401 34.4524 13.0954C34.4301 13.0954 34.4077 13.0731 34.3854 13.0284C34.3631 12.9615 34.3296 12.928 34.2849 12.928C34.2179 12.995 34.1844 13.0843 34.1844 13.1959C34.2068 13.2852 34.1956 13.3634 34.1509 13.4304ZM34.5194 13.4304C34.5194 13.408 34.5417 13.3634 34.5864 13.2964C34.6533 13.1847 34.6422 13.1178 34.5529 13.0954C34.5529 13.1401 34.5305 13.2071 34.4859 13.2964C34.4635 13.3857 34.4747 13.4304 34.5194 13.4304ZM30.8351 13.7318C30.8128 13.7988 30.8351 13.8323 30.9021 13.8323C31.0138 13.8099 31.0807 13.7653 31.1031 13.6983C30.9914 13.7206 30.9021 13.7318 30.8351 13.7318ZM34.1509 13.9997L34.2514 13.7988C34.2291 13.7988 34.1956 13.7876 34.1509 13.7653C34.1286 13.7206 34.0951 13.7095 34.0505 13.7318C34.0281 13.8658 34.0616 13.9551 34.1509 13.9997ZM34.0505 14.3012C33.9612 14.2789 33.9053 14.3123 33.883 14.4017C33.8607 14.424 33.8718 14.4463 33.9165 14.4686C33.9612 14.4463 34.0058 14.4575 34.0505 14.5021C34.0728 14.4798 34.084 14.4463 34.084 14.4017C34.1063 14.3347 34.1175 14.2677 34.1175 14.2007C34.1398 14.1337 34.1509 14.0891 34.1509 14.0667C34.0616 14.0667 34.0058 14.0556 33.9835 14.0332C33.9612 14.0556 33.9835 14.1449 34.0505 14.3012ZM34.2514 14.4352H34.3184V14.3347H34.2514V14.4352ZM30.6677 14.5021H30.5002C30.5225 14.5021 30.556 14.5245 30.6007 14.5691C30.6453 14.5915 30.6677 14.5691 30.6677 14.5021ZM33.7825 14.6696C33.8942 14.6696 33.95 14.6473 33.95 14.6026C33.8607 14.5803 33.8048 14.6026 33.7825 14.6696ZM30.3662 14.9375C30.4109 14.9599 30.4444 14.9487 30.4667 14.9041C30.5114 14.8371 30.5114 14.8036 30.4667 14.8036C30.4667 14.8259 30.4444 14.8482 30.3997 14.8706C30.3774 14.8706 30.3662 14.8929 30.3662 14.9375ZM33.9165 14.9041C33.9388 14.8371 33.9277 14.8036 33.883 14.8036C33.8383 14.7812 33.7937 14.7812 33.749 14.8036C33.749 14.8706 33.8048 14.9041 33.9165 14.9041ZM33.95 15.105C34.1733 15.0604 34.2291 14.9599 34.1175 14.8036C34.0505 14.8036 33.9946 14.9041 33.95 15.105ZM33.4811 15.4734C33.6374 15.5628 33.7267 15.5628 33.749 15.4734L33.7155 15.4399C33.6486 15.4399 33.6262 15.4064 33.6486 15.3395L33.9165 15.0715C33.7825 15.0269 33.6932 14.9822 33.6486 14.9375C33.6486 15.0269 33.6374 15.0938 33.6151 15.1385C33.5927 15.1832 33.5704 15.239 33.5481 15.306C33.5257 15.3506 33.5034 15.4064 33.4811 15.4734ZM33.8495 15.5069H33.9165V15.4399H33.8495V15.5069ZM32.0744 19.1577H32.0409C32.0409 19.2247 31.9962 19.2582 31.9069 19.2582C31.9516 19.3698 31.9404 19.4703 31.8734 19.5596C31.8288 19.6266 31.8176 19.6936 31.8399 19.7605L31.639 19.861C31.6166 19.9057 31.6166 19.9503 31.639 19.995C31.6613 20.0397 31.6725 20.0731 31.6725 20.0955C31.6725 20.1178 31.639 20.129 31.572 20.129C31.5273 20.129 31.505 20.1401 31.505 20.1625C31.5497 20.2741 31.5385 20.3969 31.4715 20.5309C31.4268 20.6425 31.3599 20.7207 31.2705 20.7653C31.2482 20.8547 31.237 20.9216 31.237 20.9663C31.2594 20.9886 31.2817 21.0221 31.304 21.0668C31.3487 21.0891 31.371 21.1114 31.371 21.1338C31.2371 21.1114 31.1477 21.1449 31.1031 21.2342C31.0584 21.3236 31.0473 21.4352 31.0696 21.5692C30.9803 21.5692 30.9133 21.6138 30.8686 21.7031C30.9133 21.7478 30.9356 21.7925 30.9356 21.8371C30.891 21.9264 30.8016 22.0604 30.6677 22.239C30.556 22.4177 30.4667 22.5628 30.3997 22.6744C30.3551 22.7638 30.2992 22.9089 30.2323 23.1099C30.1876 23.2885 30.2211 23.4336 30.3327 23.5453C30.3104 23.5453 30.2881 23.5564 30.2658 23.5788C30.2434 23.6011 30.2099 23.6011 30.1653 23.5788V23.4448C29.942 23.6904 29.6852 24.137 29.3949 24.7845C29.127 25.432 28.8925 25.8786 28.6916 26.1242C28.6916 26.1912 28.6804 26.2694 28.6581 26.3587C28.6134 26.4703 28.6358 26.5373 28.7251 26.5596C28.7697 26.5373 28.7697 26.515 28.7251 26.4926C28.7027 26.448 28.6916 26.4033 28.6916 26.3587C28.7139 26.3363 28.7697 26.3029 28.859 26.2582C28.9484 26.2135 29.0042 26.1689 29.0265 26.1242C29.0265 26.0126 29.0488 25.8898 29.0935 25.7558C29.1605 25.6218 29.2386 25.4767 29.3279 25.3204C29.4173 25.1418 29.4842 25.0078 29.5289 24.9185C29.5736 24.9185 29.6071 24.952 29.6294 25.019C29.6294 25.0636 29.6517 25.0859 29.6964 25.0859C29.6964 25.019 29.741 24.9408 29.8303 24.8515C29.8303 24.8961 29.8415 24.9185 29.8638 24.9185C29.8862 24.8961 29.9085 24.8515 29.9308 24.7845C29.9085 24.7845 29.8862 24.7957 29.8638 24.818L29.8303 24.8515C29.8303 24.6505 29.875 24.5501 29.9643 24.5501C29.9866 24.5054 29.9755 24.4719 29.9308 24.4496C29.8862 24.4049 29.875 24.3714 29.8973 24.3491C29.942 24.3491 29.9755 24.3714 29.9978 24.4161C30.0425 24.4607 30.0871 24.4719 30.1318 24.4496C30.1988 24.4049 30.1988 24.3714 30.1318 24.3491C30.0871 24.3268 30.0648 24.2933 30.0648 24.2486C30.0871 24.204 30.1094 24.204 30.1318 24.2486C30.1764 24.2709 30.2211 24.2821 30.2658 24.2821C30.1988 24.1481 30.1988 23.9695 30.2658 23.7462C30.3104 23.7909 30.3327 23.8244 30.3327 23.8467C30.3327 23.869 30.3216 23.9025 30.2992 23.9472C30.2769 23.9695 30.2658 24.003 30.2658 24.0477C30.4444 23.802 30.6677 23.3555 30.9356 22.7079C31.2036 22.0381 31.438 21.5915 31.639 21.3682C31.5497 21.2566 31.5831 21.1784 31.7394 21.1338C31.7618 21.0891 31.7618 21.0444 31.7394 20.9998C31.7171 20.9551 31.706 20.9216 31.706 20.8993C31.8399 20.8547 31.8846 20.7653 31.8399 20.6314C31.8623 20.6314 31.8957 20.609 31.9404 20.5644C31.9851 20.4974 32.0297 20.4639 32.0744 20.4639C32.0744 20.4192 32.052 20.3858 32.0074 20.3634C31.9627 20.3188 31.9404 20.2853 31.9404 20.2629C31.9404 20.2406 31.9627 20.2294 32.0074 20.2294C32.0744 20.2294 32.1079 20.2071 32.1079 20.1625C32.0855 20.1178 32.052 20.1066 32.0074 20.129C31.9851 20.129 31.9627 20.1178 31.9404 20.0955C31.9404 20.0062 31.9851 19.9838 32.0744 20.0285C32.0967 20.0508 32.119 20.062 32.1414 20.062C32.1637 19.995 32.1972 19.8834 32.2418 19.7271C32.2865 19.5484 32.3312 19.4145 32.3758 19.3251C32.3535 19.3251 32.32 19.3475 32.2753 19.3921C32.253 19.4368 32.2195 19.4479 32.1749 19.4256C32.1749 19.4033 32.186 19.3698 32.2083 19.3251C32.2307 19.2805 32.2195 19.247 32.1749 19.2247C32.1749 19.314 32.1414 19.314 32.0744 19.2247C32.0744 19.2023 32.0744 19.18 32.0744 19.1577C32.119 19.18 32.1414 19.1688 32.1414 19.1242C32.1414 19.0572 32.1749 19.0349 32.2418 19.0572C32.2195 19.1018 32.2195 19.1353 32.2418 19.1577C32.2642 19.18 32.2865 19.18 32.3088 19.1577C32.3312 19.1577 32.3423 19.1242 32.3423 19.0572C32.3423 18.9679 32.3758 18.9232 32.4428 18.9232C32.4428 18.9455 32.4316 18.979 32.4093 19.0237C32.3647 19.1577 32.3758 19.2358 32.4428 19.2582C32.4428 19.1912 32.4651 19.113 32.5098 19.0237C32.5768 18.9344 32.5991 18.8451 32.5768 18.7558C32.5098 18.8004 32.4428 18.7781 32.3758 18.6888C32.4428 18.6441 32.4763 18.6218 32.4763 18.6218C32.4093 18.5548 32.3981 18.5101 32.4428 18.4878C32.4875 18.4878 32.521 18.5213 32.5433 18.5883C32.5879 18.6553 32.6438 18.6888 32.7107 18.6888C32.6884 18.5771 32.7219 18.4655 32.8112 18.3538C32.9005 18.2199 32.9452 18.1194 32.9452 18.0524C32.9452 18.0301 32.9229 18.0189 32.8782 18.0189C32.8335 18.0189 32.8001 17.9966 32.7777 17.9519C32.8447 17.8403 32.8894 17.7733 32.9117 17.751C32.934 17.7956 32.934 17.8403 32.9117 17.8849C32.8894 17.9073 32.8782 17.9296 32.8782 17.9519C32.9899 17.9743 33.0792 17.9519 33.1462 17.8849C33.1238 17.8403 33.1015 17.7845 33.0792 17.7175C33.0792 17.6282 33.0792 17.5612 33.0792 17.5165C33.1238 17.4942 33.1573 17.483 33.1796 17.483C33.2466 17.5053 33.2801 17.4607 33.2801 17.349C33.2131 17.349 33.1462 17.3379 33.0792 17.3156C33.0122 17.2932 32.9675 17.2821 32.9452 17.2821C32.9452 17.2151 32.9899 17.1704 33.0792 17.1481C33.1908 17.1258 33.2578 17.1034 33.2801 17.0811C33.2355 17.1258 33.2131 17.1816 33.2131 17.2486C33.2355 17.2932 33.269 17.3156 33.3136 17.3156C33.3136 17.2709 33.3136 17.1927 33.3136 17.0811C33.3359 16.9471 33.3583 16.8578 33.3806 16.8132C33.3583 16.7908 33.3359 16.7908 33.3136 16.8132L33.2801 16.8467C33.2578 16.7797 33.269 16.7462 33.3136 16.7462C33.3583 16.7238 33.3806 16.7015 33.3806 16.6792C33.2913 16.6569 33.2913 16.601 33.3806 16.5117C33.4699 16.4001 33.5257 16.3889 33.5481 16.4782C33.5481 16.4559 33.5704 16.3777 33.6151 16.2438C33.682 16.1098 33.6709 16.0317 33.5816 16.0093C33.5592 16.0093 33.5481 16.0428 33.5481 16.1098C33.5481 16.2214 33.5146 16.2661 33.4476 16.2438C33.4699 16.2214 33.4811 16.188 33.4811 16.1433C33.4811 16.0763 33.4811 16.0205 33.4811 15.9758C33.4811 15.9312 33.4922 15.8977 33.5146 15.8754C33.5369 15.8307 33.5816 15.8084 33.6486 15.8084C33.6486 15.7637 33.6151 15.7302 33.5481 15.7079C33.5034 15.6632 33.4922 15.6074 33.5146 15.5404C33.1796 16.0317 33.1238 16.2996 33.3471 16.3443C33.3025 16.4559 33.269 16.5117 33.2466 16.5117L33.2131 16.4782C33.1685 16.4782 33.135 16.4782 33.1127 16.4782C33.0903 16.6122 33.0345 16.7908 32.9452 17.0141C32.8559 17.2374 32.8001 17.416 32.7777 17.55C32.7554 17.5723 32.7107 17.5947 32.6438 17.617C32.5991 17.6393 32.5656 17.6616 32.5433 17.684C32.521 17.7286 32.521 17.7733 32.5433 17.818C32.5656 17.8626 32.5768 17.8961 32.5768 17.9184C32.5321 17.8961 32.4986 17.9073 32.4763 17.9519C32.4763 17.9966 32.4651 18.0189 32.4428 18.0189C32.4875 18.0859 32.4763 18.164 32.4093 18.2534C32.3647 18.3427 32.3423 18.4208 32.3423 18.4878H32.1749C32.1972 18.5771 32.1749 18.6553 32.1079 18.7223C32.0632 18.7892 32.0409 18.8451 32.0409 18.8897C32.0632 18.9344 32.0744 19.0237 32.0744 19.1577ZM33.4476 16.6792H33.5146V16.6122H33.4476V16.6792ZM28.1222 19.0907C28.3008 18.8004 28.5018 18.3203 28.7251 17.6505C28.7251 17.5835 28.7027 17.5723 28.6581 17.617C28.6358 17.6393 28.5464 17.8514 28.3901 18.2534C28.2562 18.6329 28.1669 18.9121 28.1222 19.0907ZM33.1796 17.7175C33.202 17.6951 33.2243 17.684 33.2466 17.684C33.202 17.6393 33.1685 17.617 33.1462 17.617C33.1462 17.684 33.1573 17.7175 33.1796 17.7175ZM27.9547 19.4926C28.044 19.4926 28.0999 19.4479 28.1222 19.3586C28.1669 19.2693 28.1669 19.2023 28.1222 19.1577C28.0552 19.18 27.9994 19.2916 27.9547 19.4926ZM27.9212 19.6601H28.0217V19.5596H27.9212V19.6601ZM27.6868 20.2964C27.7538 20.2741 27.8096 20.2183 27.8542 20.129C27.8989 20.0173 27.8989 19.928 27.8542 19.861C27.7649 20.0397 27.7091 20.1848 27.6868 20.2964ZM28.0887 20.2964C28.1334 20.3411 28.1557 20.3188 28.1557 20.2294C28.1334 20.2071 28.111 20.1848 28.0887 20.1625V20.2964ZM28.0217 20.5644H28.0887V20.4304H28.0217V20.5644ZM27.5528 20.6314C27.6198 20.6537 27.6645 20.6202 27.6868 20.5309C27.7091 20.5086 27.698 20.4862 27.6533 20.4639C27.6533 20.4862 27.6421 20.5086 27.6198 20.5309C27.5751 20.5532 27.5528 20.5867 27.5528 20.6314ZM27.6198 20.9663C27.6198 20.944 27.6198 20.9105 27.6198 20.8658C27.6198 20.8212 27.6086 20.7988 27.5863 20.7988C27.5863 20.7765 27.564 20.7653 27.5193 20.7653C27.4747 20.81 27.4635 20.8658 27.4858 20.9328C27.5082 20.9775 27.5528 20.9886 27.6198 20.9663ZM27.9212 20.9663C27.9212 20.944 27.9324 20.9328 27.9547 20.9328C27.9547 20.8658 27.9324 20.8435 27.8877 20.8658C27.8877 20.9328 27.8989 20.9663 27.9212 20.9663ZM27.1509 21.9041C27.2402 21.8148 27.3184 21.6697 27.3853 21.4687C27.4747 21.2454 27.497 21.1003 27.4523 21.0333C27.43 21.1003 27.3853 21.2342 27.3184 21.4352C27.2514 21.6362 27.1956 21.7925 27.1509 21.9041ZM28.1222 21.8371H28.2227V21.7366H28.1222V21.8371ZM27.1174 22.0381H27.1509C27.1732 22.0604 27.1956 22.0716 27.2179 22.0716C27.1732 21.9823 27.1397 21.9376 27.1174 21.9376V22.0381ZM26.9499 22.6744C26.9499 22.6298 26.9723 22.5628 27.0169 22.4735C27.0839 22.3842 27.1174 22.3172 27.1174 22.2725C27.1397 22.2279 27.1286 22.1832 27.0839 22.1386C27.0839 22.1832 27.0504 22.2725 26.9834 22.4065C26.9388 22.5181 26.9276 22.6075 26.9499 22.6744ZM26.816 23.0429C26.9053 23.0429 26.9499 22.9759 26.9499 22.8419C26.883 22.8642 26.8383 22.9312 26.816 23.0429ZM26.6485 23.8802C26.6485 23.8132 26.6708 23.7462 26.7155 23.6792C26.7601 23.6122 26.7936 23.5453 26.816 23.4783C26.7936 23.4783 26.7713 23.4671 26.749 23.4448C26.7267 23.4225 26.7043 23.4225 26.682 23.4448C26.682 23.4894 26.6708 23.5453 26.6485 23.6122C26.6262 23.6792 26.6038 23.7351 26.5815 23.7797C26.5815 23.802 26.6038 23.8355 26.6485 23.8802ZM27.1509 24.1816C27.1956 24.204 27.229 24.204 27.2514 24.1816C27.2737 24.137 27.2625 24.1035 27.2179 24.0812C27.1956 24.0588 27.1732 24.0588 27.1509 24.0812V24.1816ZM26.481 24.3826H26.548V24.2486H26.481V24.3826ZM27.1174 24.4831H27.2179V24.3826H27.1174V24.4831ZM29.4954 25.2534H29.5624V25.1529H29.4954V25.2534ZM29.6629 25.3204C29.7075 25.3427 29.741 25.3092 29.7634 25.2199C29.7857 25.1976 29.7745 25.1753 29.7299 25.1529C29.7299 25.1753 29.7075 25.1976 29.6629 25.2199C29.6405 25.2422 29.6405 25.2757 29.6629 25.3204ZM29.3279 25.7223C29.3279 25.6777 29.3503 25.6218 29.3949 25.5548C29.4396 25.4655 29.4731 25.3874 29.4954 25.3204C29.4284 25.3427 29.3726 25.4097 29.3279 25.5214C29.2833 25.6107 29.2833 25.6777 29.3279 25.7223ZM29.4954 25.7223C29.5401 25.7 29.5736 25.6553 29.5959 25.5883C29.6182 25.5214 29.6405 25.4767 29.6629 25.4544C29.5512 25.4544 29.4954 25.5437 29.4954 25.7223ZM25.8112 27.2965C25.8782 27.2295 25.8893 27.1625 25.8447 27.0955C25.8223 27.0732 25.7888 27.062 25.7442 27.062C25.7442 27.1067 25.7442 27.1513 25.7442 27.196C25.7219 27.2407 25.7442 27.2742 25.8112 27.2965ZM25.7107 27.397H25.8112V27.33H25.7107V27.397ZM34.5864 31.5836C34.6757 31.5836 34.7315 31.5501 34.7538 31.4831C34.7538 31.4608 34.7315 31.4385 34.6868 31.4161C34.6868 31.4608 34.6645 31.4831 34.6198 31.4831C34.5975 31.5278 34.5864 31.5613 34.5864 31.5836ZM24.8734 33.6937C24.8734 33.716 24.8622 33.7383 24.8399 33.7606V33.7941C24.8622 33.8165 24.8845 33.8165 24.9069 33.7941C24.9069 33.7495 24.8957 33.716 24.8734 33.6937ZM24.9069 33.9616L24.8734 33.9281L24.8399 33.8946C24.8399 33.9169 24.8622 33.9393 24.9069 33.9616ZM25.1078 35.3348C25.1078 35.2232 25.0967 35.1673 25.0743 35.1673C25.0073 35.2567 25.0185 35.3125 25.1078 35.3348ZM30.3327 35.7032C30.3774 35.7032 30.5002 35.6363 30.7012 35.5023C30.6788 35.5023 30.6677 35.48 30.6677 35.4353L30.6342 35.4018L30.3327 35.7032ZM30.9691 35.6363C31.0807 35.6363 31.1366 35.5916 31.1366 35.5023C31.0696 35.5023 31.0138 35.5469 30.9691 35.6363ZM29.9308 35.9712V36.0382H30.0313C30.076 35.9935 30.0536 35.96 29.9643 35.9377C29.9643 35.96 29.9531 35.9712 29.9308 35.9712ZM30.2992 36.6076C30.2992 36.5852 30.3104 36.5741 30.3327 36.5741C30.3774 36.5294 30.3886 36.4847 30.3662 36.4401C30.2992 36.4178 30.2658 36.4513 30.2658 36.5406C30.2434 36.5629 30.2546 36.5852 30.2992 36.6076ZM30.1653 36.842C30.2099 36.8643 30.2546 36.8532 30.2992 36.8085C30.3439 36.7639 30.3439 36.7304 30.2992 36.708C30.2992 36.7304 30.2769 36.7527 30.2323 36.775C30.1653 36.775 30.1429 36.7973 30.1653 36.842ZM28.6246 37.3444C28.8925 37.2328 29.0265 37.1546 29.0265 37.1099C29.0042 37.1546 28.9372 37.1881 28.8256 37.2104C28.7139 37.2551 28.6469 37.2997 28.6246 37.3444ZM29.5289 37.3109C29.6405 37.2662 29.7075 37.2216 29.7299 37.1769C29.6405 37.1546 29.5736 37.1993 29.5289 37.3109ZM34.2849 13.0954C34.3742 13.1178 34.3854 13.1736 34.3184 13.2629C34.2961 13.2629 34.2849 13.2071 34.2849 13.0954ZM33.2801 16.8467L33.1796 16.9471C33.2466 16.9695 33.2801 16.936 33.2801 16.8467ZM32.9117 17.751C32.9117 17.617 32.9564 17.55 33.0457 17.55C33.001 17.684 32.9564 17.751 32.9117 17.751ZM32.7442 17.6505H32.8447V17.7175H32.7442V17.6505ZM32.6773 17.8514L32.7107 17.9854C32.7107 18.0301 32.6884 18.0412 32.6438 18.0189C32.6661 17.9966 32.6773 17.9408 32.6773 17.8514ZM32.7107 18.0859H32.7777V18.1529H32.7107V18.0859ZM31.9739 19.5596C32.0632 19.6042 32.1079 19.6601 32.1079 19.7271C32.0186 19.6824 31.9739 19.6266 31.9739 19.5596ZM32.1079 19.7605V19.8945C32.0186 19.9392 31.9516 19.8945 31.9069 19.7605C31.9292 19.7382 31.9516 19.7382 31.9739 19.7605C32.0186 19.7605 32.0632 19.7605 32.1079 19.7605ZM31.8399 20.0955C31.8176 20.0955 31.7953 20.1178 31.7729 20.1625C31.7729 20.2071 31.7506 20.2294 31.706 20.2294L31.7394 20.1625C31.7394 20.0955 31.7729 20.0731 31.8399 20.0955ZM31.639 20.3299C31.6836 20.3299 31.7171 20.3411 31.7394 20.3634C31.7841 20.4081 31.8176 20.4304 31.8399 20.4304C31.8176 20.5644 31.7506 20.5755 31.639 20.4639C31.6166 20.4192 31.6166 20.3746 31.639 20.3299ZM31.505 20.6649C31.6166 20.6649 31.6725 20.6984 31.6725 20.7653C31.5608 20.7653 31.505 20.7318 31.505 20.6649ZM31.5385 20.9663V21.1003V20.9663ZM31.1366 21.4687C31.2036 21.4687 31.237 21.5357 31.237 21.6697C31.1701 21.692 31.1254 21.6808 31.1031 21.6362C31.0807 21.5692 31.0919 21.5133 31.1366 21.4687ZM31.1366 21.7366C31.2259 21.7366 31.2705 21.7701 31.2705 21.8371H31.1366V21.7366ZM30.9691 21.9041C30.9914 21.8818 31.0138 21.8706 31.0361 21.8706C31.0807 21.8706 31.1031 21.8818 31.1031 21.9041C31.1254 21.9488 31.1031 21.9711 31.0361 21.9711C30.9914 21.9711 30.9691 21.9488 30.9691 21.9041ZM30.9691 22.1386H31.0696V22.239H30.9691V22.1386ZM30.7012 22.4735C30.7235 22.4512 30.7458 22.4512 30.7681 22.4735C30.7905 22.4958 30.8128 22.507 30.8351 22.507C30.8351 22.5516 30.8016 22.574 30.7347 22.574C30.69 22.5516 30.6788 22.5181 30.7012 22.4735ZM30.4332 23.3778L30.5002 23.3108C30.5449 23.3331 30.5449 23.3778 30.5002 23.4448C30.4779 23.4671 30.4667 23.4894 30.4667 23.5118C30.3997 23.5118 30.3886 23.4671 30.4332 23.3778ZM29.7634 24.684C29.7634 24.7957 29.7299 24.8515 29.6629 24.8515C29.5512 24.7398 29.5847 24.684 29.7634 24.684ZM35.5911 30.9472C35.6581 30.9919 35.6023 31.0924 35.4237 31.2487C35.3567 31.2933 35.3232 31.338 35.3232 31.3826C35.2785 31.3156 35.3679 31.1705 35.5911 30.9472ZM35.0887 31.5501C35.0218 31.7287 34.9101 31.8515 34.7538 31.9185C34.7761 31.8292 34.8878 31.7064 35.0887 31.5501ZM34.4524 32.086C34.497 32.086 34.5194 32.1195 34.5194 32.1865C34.497 32.2088 34.4747 32.2088 34.4524 32.1865C34.4301 32.1641 34.4077 32.153 34.3854 32.153L34.4524 32.086ZM34.3519 32.22H34.4524V32.3204H34.3519V32.22ZM33.8495 32.7893C33.8272 32.767 33.8272 32.7447 33.8495 32.7224C33.8942 32.7447 33.9277 32.767 33.95 32.7893H33.8495ZM33.8495 32.7893C33.8495 32.834 33.8272 32.8787 33.7825 32.9233C33.7379 32.9233 33.7267 32.901 33.749 32.8563C33.7714 32.7893 33.8048 32.767 33.8495 32.7893ZM34.3519 32.8228C34.4189 32.8675 34.3966 32.9121 34.2849 32.9568C34.2849 32.9345 34.2961 32.9121 34.3184 32.8898C34.3407 32.8675 34.3519 32.8452 34.3519 32.8228ZM33.749 32.9903H33.883C33.8607 32.9903 33.8383 33.0238 33.816 33.0908C33.816 33.1354 33.7937 33.1466 33.749 33.1243V32.9903ZM34.1844 32.9903H34.2849V33.0908C34.2626 33.0685 34.2514 33.0796 34.2514 33.1243H34.1509V33.0238C34.1733 33.0461 34.1844 33.035 34.1844 32.9903ZM33.3471 33.2917C33.3471 33.2024 33.3918 33.1578 33.4811 33.1578C33.4811 33.2471 33.4364 33.2917 33.3471 33.2917ZM33.749 33.1578H33.95C33.7267 33.3811 33.5592 33.5374 33.4476 33.6267C33.4029 33.649 33.3694 33.649 33.3471 33.6267C33.3248 33.582 33.3025 33.5597 33.2801 33.5597C33.4141 33.4927 33.4922 33.4034 33.5146 33.2917C33.5369 33.2917 33.5592 33.3029 33.5816 33.3252C33.6039 33.3476 33.6262 33.3587 33.6486 33.3587C33.6709 33.3587 33.6597 33.3364 33.6151 33.2917C33.5927 33.2471 33.5816 33.2136 33.5816 33.1913C33.6039 33.1913 33.6374 33.2024 33.682 33.2248C33.7044 33.2471 33.7155 33.2582 33.7155 33.2582C33.7379 33.2359 33.749 33.2024 33.749 33.1578ZM33.1127 33.1913H33.1462H33.1127ZM33.3471 33.2917C33.3694 33.3364 33.3583 33.3699 33.3136 33.3922C33.2913 33.4145 33.2466 33.4145 33.1796 33.3922C33.2243 33.3029 33.2801 33.2694 33.3471 33.2917ZM33.883 33.4927C33.6597 33.8053 33.2355 34.2407 32.6103 34.7989C31.9851 35.3348 31.6166 35.6586 31.505 35.7702C31.505 35.7926 31.5162 35.8037 31.5385 35.8037C31.5831 35.7814 31.6166 35.7591 31.639 35.7367C31.6166 35.826 31.505 35.96 31.304 36.1386C31.1031 36.2949 30.9914 36.4178 30.9691 36.5071C30.9468 36.5071 30.9244 36.4847 30.9021 36.4401C30.9021 36.3954 30.8798 36.3843 30.8351 36.4066C30.9021 36.2726 30.9244 36.1275 30.9021 35.9712C30.9244 35.9712 31.0026 35.9935 31.1366 36.0382C31.1812 36.0382 31.1812 36.027 31.1366 36.0047C31.0919 35.9823 31.0807 35.9489 31.1031 35.9042C32.3535 34.8324 33.2801 34.0286 33.883 33.4927ZM31.2705 35.9712C31.3152 35.9935 31.3487 35.9823 31.371 35.9377C31.3934 35.893 31.3822 35.8595 31.3375 35.8372C31.3375 35.8595 31.3264 35.8819 31.304 35.9042C31.2817 35.9265 31.2705 35.9489 31.2705 35.9712ZM33.1462 33.5932C33.1908 33.5708 33.2243 33.582 33.2466 33.6267C33.269 33.6713 33.3025 33.6937 33.3471 33.6937C33.3248 33.7383 33.2801 33.7941 33.2131 33.8611C33.1685 33.9058 33.135 33.9393 33.1127 33.9616C33.0233 33.9169 32.9787 33.8611 32.9787 33.7941C33.001 33.7718 33.0345 33.7718 33.0792 33.7941C33.1238 33.7941 33.1573 33.7941 33.1796 33.7941C33.1796 33.7718 33.1685 33.7495 33.1462 33.7271C33.1238 33.6825 33.1238 33.6378 33.1462 33.5932ZM33.0457 34.0286C32.934 34.0063 32.8336 34.0063 32.7442 34.0286C32.7442 33.9839 32.7666 33.9504 32.8112 33.9281C32.9675 33.8834 33.0457 33.9169 33.0457 34.0286ZM32.5433 33.9616H32.6438V34.0286H32.5433V33.9616ZM32.4763 34.1961C32.4093 34.1961 32.3758 34.1626 32.3758 34.0956C32.4428 34.0956 32.4875 34.1067 32.5098 34.1291C32.5098 34.1514 32.4986 34.1626 32.4763 34.1626C32.4763 34.1626 32.4763 34.1737 32.4763 34.1961ZM32.6773 34.1626C32.7442 34.1849 32.7889 34.1849 32.8112 34.1626C32.8559 34.1179 32.9005 34.0956 32.9452 34.0956C32.9452 34.1179 32.9229 34.1402 32.8782 34.1626C32.8559 34.1626 32.8559 34.1849 32.8782 34.2295C32.7442 34.1849 32.6773 34.1626 32.6773 34.1626ZM32.2753 34.1961C32.3647 34.3077 32.4205 34.3747 32.4428 34.397C32.3758 34.4193 32.32 34.3524 32.2753 34.1961ZM32.4763 34.1961C32.5656 34.1961 32.5879 34.2295 32.5433 34.2965H32.4763V34.1961ZM32.1414 34.4305H32.2418V34.5645H32.1079V34.4975C32.1302 34.4975 32.1414 34.4752 32.1414 34.4305ZM24.438 34.4975H24.5049V34.5645H24.438V34.4975ZM31.7729 34.598H31.8734V34.6984H31.7729V34.598ZM31.9069 34.598H32.0744C32.0297 34.6873 31.9739 34.7319 31.9069 34.7319V34.598ZM32.1079 35.3348C32.1525 35.3571 32.1525 35.3906 32.1079 35.4353C32.0632 35.4576 32.0186 35.4576 31.9739 35.4353C31.9739 35.413 31.9962 35.4018 32.0409 35.4018C32.0855 35.3795 32.1079 35.3571 32.1079 35.3348ZM31.7729 35.5693C31.8623 35.5916 31.8734 35.6363 31.8064 35.7032C31.7841 35.7256 31.7506 35.7367 31.706 35.7367C31.6836 35.6921 31.6836 35.6586 31.706 35.6363C31.7506 35.6139 31.7729 35.5916 31.7729 35.5693ZM26.0791 36.4066C26.1014 36.4066 26.1573 36.4847 26.2466 36.641C26.1349 36.641 26.0791 36.5629 26.0791 36.4066ZM30.7681 36.5071C30.8351 36.4847 30.8686 36.5182 30.8686 36.6076H30.7347C30.757 36.5852 30.7681 36.5517 30.7681 36.5071ZM26.4141 37.1099C26.3917 37.1099 26.3694 37.0988 26.3471 37.0765C26.3247 37.0541 26.3024 37.0318 26.2801 37.0095C26.2801 36.9425 26.2577 36.8643 26.2131 36.775C26.2577 36.7304 26.2912 36.7415 26.3136 36.8085C26.3582 36.8755 26.3917 36.976 26.4141 37.1099Z" fill="white"/>
<path d="M37.0303 30.3109C37.008 30.3109 36.9968 30.322 36.9968 30.3444C37.0191 30.3444 37.0303 30.3332 37.0303 30.3109C37.0973 30.2885 37.2982 30.1099 37.6332 29.775C37.9681 29.44 38.3365 29.2949 38.7384 29.3396C38.8724 29.4289 39.0287 29.5963 39.2073 29.842C39.4083 30.0876 39.5534 30.255 39.6428 30.3444C39.7097 30.9026 39.5758 31.6841 39.2408 32.6889C38.9059 33.6713 38.705 34.33 38.638 34.665C39.1962 34.3747 39.9665 33.7606 40.949 32.8228C41.9538 31.885 42.8246 31.271 43.5614 30.9807C43.5838 31.003 43.7512 31.1482 44.0638 31.4161C44.3764 31.6841 44.5774 31.9297 44.6667 32.153C44.6444 32.153 44.6332 32.1418 44.6332 32.1195C44.6332 32.0972 44.6221 32.086 44.5997 32.086C44.6667 32.4432 44.6221 32.9456 44.4658 33.5932C44.3095 34.2407 44.276 34.7319 44.3653 35.0669C45.4594 35.5581 47.0894 35.0222 49.2553 33.4592C49.7688 33.1913 50.4387 32.7112 51.2648 32.019C52.1133 31.3268 52.6604 30.8914 52.906 30.7128C52.906 31.0254 52.7832 31.338 52.5376 31.6506C52.3143 31.9409 52.0798 32.0972 51.8342 32.1195C51.8342 32.1641 51.7672 32.3093 51.6333 32.5549C51.7226 32.5326 51.8342 32.4767 51.9682 32.3874C52.1022 32.2758 52.2473 32.2088 52.4036 32.1865C52.3813 32.2311 52.3366 32.2869 52.2696 32.3539C52.225 32.4209 52.1915 32.4656 52.1692 32.4879C52.1692 32.5102 52.1915 32.5661 52.2361 32.6554C50.6955 34.2184 48.7194 35.4911 46.3079 36.4736C45.4817 36.5629 44.7449 36.4624 44.0973 36.1721C44.075 36.1052 43.9634 35.9712 43.7624 35.7702C43.3382 34.9441 43.1819 33.9504 43.2935 32.7893C43.1595 32.9233 42.8246 33.1801 42.2887 33.5597C41.7752 33.9393 41.3956 34.2742 41.1499 34.5645C40.7927 34.9887 40.5024 35.3125 40.2791 35.5358C40.0558 35.7367 39.7432 35.9377 39.3413 36.1386C38.9394 36.3173 38.5487 36.3396 38.1691 36.2056C38.1021 36.1386 38.0128 35.9935 37.9011 35.7702C37.7895 35.5469 37.689 35.3906 37.5997 35.3013C37.5327 34.7878 37.5215 34.3077 37.5662 33.8611C37.6332 33.4145 37.756 32.901 37.9346 32.3204C38.1132 31.7176 38.2249 31.3156 38.2695 31.1147C37.7337 31.6283 37.2201 32.2869 36.7289 33.0908C36.2376 33.8723 35.8804 34.5087 35.6571 34.9999C35.4338 35.4911 35.0765 36.2949 34.5853 37.4114C34.5183 37.4114 34.4402 37.4225 34.3509 37.4449C34.2615 37.4895 34.1834 37.5007 34.1164 37.4784C33.8931 37.0988 33.7926 36.8308 33.815 36.6745C33.5694 36.295 33.6252 35.6363 33.9824 34.6984C34.9426 32.2423 35.5008 30.6235 35.6571 29.842C35.4338 29.4847 35.4673 29.1609 35.7576 28.8707C36.0255 28.8707 36.2488 28.96 36.4274 29.1386C36.6061 29.2949 36.7289 29.4512 36.7958 29.6075C36.8628 29.7638 36.941 29.9983 37.0303 30.3109ZM52.1357 31.7511C52.091 31.7734 52.0017 31.818 51.8677 31.885C51.7561 31.952 51.6668 32.0078 51.5998 32.0525C51.5328 32.0972 51.4546 32.1641 51.3653 32.2535C51.2983 32.3204 51.2425 32.3986 51.1979 32.4879C51.1755 32.4879 51.1644 32.4656 51.1644 32.4209L51.1309 32.3874C51.0416 32.4098 50.9634 32.4432 50.8964 32.4879C50.8294 32.5326 50.7513 32.5995 50.662 32.6889C50.5727 32.7558 50.5057 32.8117 50.461 32.8563C50.5503 32.9456 50.6731 32.9233 50.8294 32.7893C50.9857 32.6554 51.1085 32.6107 51.1979 32.6554V32.4879C51.2202 32.5102 51.2537 32.5102 51.2983 32.4879C51.343 32.4432 51.3877 32.4432 51.4323 32.4879C51.41 32.3986 51.4323 32.3316 51.4993 32.2869C51.5886 32.2423 51.6444 32.2088 51.6668 32.1865C51.6668 32.2758 51.6891 32.3204 51.7337 32.3204C51.7114 32.1865 51.7672 32.0637 51.9012 31.952C52.0352 31.8404 52.1133 31.7734 52.1357 31.7511C52.158 31.7287 52.1915 31.7176 52.2361 31.7176C52.3255 31.6952 52.359 31.6506 52.3366 31.5836C52.2026 31.6506 52.1357 31.7064 52.1357 31.7511ZM42.9586 31.8515C42.9809 31.8739 43.0144 31.885 43.059 31.885C43.126 31.885 43.1819 31.8739 43.2265 31.8515C43.2265 31.7176 43.1707 31.6506 43.059 31.6506C43.059 31.6952 43.0367 31.7287 42.9921 31.7511C42.9474 31.7511 42.9362 31.7846 42.9586 31.8515ZM42.8916 31.9855C42.9362 31.9409 42.9362 31.9074 42.8916 31.885V31.9855ZM42.1547 32.5549C42.2664 32.5549 42.3669 32.4879 42.4562 32.3539C42.5678 32.22 42.6906 32.153 42.8246 32.153C42.8246 32.0413 42.7799 31.9855 42.6906 31.9855C42.646 32.0525 42.5567 32.1418 42.4227 32.2535C42.2887 32.3651 42.1994 32.4656 42.1547 32.5549ZM41.8198 32.8898C41.9091 32.8228 41.9984 32.7 42.0877 32.5214C41.9538 32.5214 41.8645 32.6442 41.8198 32.8898ZM51.5998 32.6889C51.5774 32.7335 51.5216 32.7447 51.4323 32.7224C51.3653 32.6777 51.3207 32.6554 51.2983 32.6554C51.2314 32.7224 51.1197 32.8005 50.9634 32.8898C50.8071 32.9568 50.6731 33.035 50.5615 33.1243C50.4722 33.1913 50.4275 33.2806 50.4275 33.3922C50.4722 33.3699 50.5615 33.3029 50.6955 33.1913C50.8518 33.0573 50.9857 32.968 51.0974 32.9233C51.209 32.8563 51.3095 32.8452 51.3988 32.8898C51.2648 32.9345 51.1979 32.9568 51.1979 32.9568C51.3095 32.9568 51.3765 32.9345 51.3988 32.8898C51.4212 32.8675 51.4435 32.8563 51.4658 32.8563C51.5105 32.834 51.544 32.8117 51.5663 32.7893C51.5886 32.767 51.5998 32.7335 51.5998 32.6889H51.6668V32.5884C51.6221 32.5884 51.5998 32.6219 51.5998 32.6889ZM50.461 33.0573C50.461 32.968 50.4387 32.901 50.394 32.8563C50.394 33.0126 50.4164 33.0796 50.461 33.0573ZM41.5854 32.9903L41.6523 33.0573C41.6523 32.9456 41.63 32.901 41.5854 32.9233V32.9903ZM38.1356 33.2917V33.1578C38.0909 33.2248 38.0909 33.2694 38.1356 33.2917ZM37.9346 33.7941C37.9346 33.7718 37.9458 33.7606 37.9681 33.7606C38.0128 33.7383 38.0239 33.7048 38.0016 33.6602C37.9569 33.6378 37.9235 33.6602 37.9011 33.7271C37.8788 33.7718 37.89 33.7941 37.9346 33.7941ZM49.3892 33.9616H49.4562V33.8946H49.3892V33.9616ZM52.5376 31.9855C52.5822 32.0078 52.5822 32.0525 52.5376 32.1195C52.5153 32.1641 52.4818 32.1753 52.4371 32.153C52.4148 32.1083 52.4259 32.086 52.4706 32.086C52.5153 32.0637 52.5376 32.0302 52.5376 31.9855Z" fill="white"/>
<path d="M36.0499 7.93548C36.3775 7.43563 36.8492 6.97747 37.5 6.54435L39.2252 5.50435C40.1539 4.95289 41.2271 4.75327 42.2602 4.90523L38.3053 7.45437C37.5434 7.54954 36.7835 7.68065 36.0499 7.93548Z" stroke="white" stroke-width="2"/>
<path d="M46.2789 13.251L44.8613 12.9708C45.1626 13.3191 45.416 13.7114 45.6109 14.1383L46.7703 14.3675C46.644 13.9747 46.4786 13.6012 46.2789 13.251ZM39.6099 10.8778C39.6101 10.8779 39.6103 10.8779 39.6105 10.8779L39.803 9.89665L39.6091 10.8777L39.6099 10.8778ZM36.8847 11.1259C36.4046 10.9739 35.9145 10.8548 35.4178 10.7694C35.0445 11.0174 34.6969 11.3101 34.3833 11.6446C34.8108 11.6804 35.2348 11.7434 35.6528 11.833C36.0294 11.5362 36.4449 11.299 36.8847 11.1259ZM38.3853 11.7244C38.3456 11.7051 38.3058 11.6861 38.2659 11.6672L38.142 11.6428L37.9481 12.6238L38.3853 11.7244Z" stroke="white" stroke-width="2"/>
<path d="M39.964 17.1388C40.7717 18.5137 41.0205 20.1185 40.7073 21.6363L36.6464 14.5269C37.9801 15.0285 39.1449 15.933 39.964 17.1388Z" stroke="white" stroke-width="2"/>
<path d="M29.1413 13.4055L23.2272 18.3288C23.5338 16.8471 24.3657 15.4993 25.6078 14.558C26.6643 13.846 27.89 13.4527 29.1413 13.4055Z" stroke="white" stroke-width="2"/>
<path d="M28.0613 7.68458L25.5661 7.19142C23.8677 6.85335 22.1295 7.28236 20.7948 8.32279L22.2123 8.60295M28.0613 7.68458L27.866 8.66533C27.8662 8.66537 27.8664 8.66541 27.8667 8.66545M28.0613 7.68458C29.5977 7.99053 30.9286 8.89171 31.7852 10.1605C31.2935 10.0507 30.7951 9.97448 30.2935 9.93243M28.0613 7.68458L27.8674 8.66561L27.8667 8.66545M27.8667 8.66545L25.3722 8.17244L25.3709 8.17218C24.2812 7.95527 23.1717 8.11872 22.2123 8.60295M27.8667 8.66545C28.7946 8.85037 29.6323 9.29698 30.2935 9.93243M22.2123 8.60295C21.8011 8.81046 21.4176 9.07688 21.0749 9.39751L28.743 10.9131M22.2123 8.60295L28.8131 9.90758M28.8131 9.90758C28.7691 9.90978 28.725 9.91226 28.681 9.91499L28.743 10.9131M28.8131 9.90758L28.9369 9.93204L28.743 10.9131M28.8131 9.90758C29.3074 9.88279 29.802 9.89122 30.2935 9.93243M28.743 10.9131C29.5539 10.8627 30.3665 10.9107 31.1632 11.0548C30.9279 10.6372 30.6341 10.2598 30.2935 9.93243" stroke="white" stroke-width="2"/>
<path d="M32.619 6.42771C32.7998 6.6786 32.9512 6.94895 33.0703 7.2334C32.9696 7.44907 32.8913 7.66679 32.828 7.87703C32.3987 7.52445 31.9468 7.20717 31.5219 6.95529L28.8306 3.08808C29.844 3.34042 30.7609 3.93342 31.4097 4.79709L32.619 6.42771Z" stroke="white" stroke-width="2"/>
</svg>
