<svg width="151" height="160" viewBox="0 0 151 160" fill="none" xmlns="http://www.w3.org/2000/svg">
<path d="M16.2742 105.646V105.167C16.338 105.167 16.3699 105.103 16.3699 104.976C16.3061 104.976 16.2742 105.04 16.2742 105.167L16.1785 105.454L16.2742 105.646C16.338 105.965 16.3061 106.315 16.1785 106.698C16.0509 107.081 15.8595 107.528 15.6043 108.038C15.3491 108.612 15.1896 109.027 15.1258 109.282C14.743 110.558 14.0732 112.695 13.1162 115.693C12.1593 118.756 11.4256 121.116 10.9153 122.775C10.4049 124.497 9.83074 126.571 9.19277 128.995C8.55481 131.419 8.07634 133.62 7.75736 135.598C7.69356 136.108 7.62976 136.874 7.56597 137.895C7.43837 138.979 7.31078 139.936 7.18319 140.765C6.9918 141.659 6.73662 142.552 6.41763 143.445C6.73662 143.509 6.80041 143.796 6.60902 144.306C6.41763 144.816 6.41763 145.104 6.60902 145.167C6.60902 145.295 6.54523 145.423 6.41763 145.55C6.22625 145.678 6.13055 145.773 6.13055 145.837C6.19435 146.348 6.19435 147.209 6.13055 148.421C6.00296 149.633 5.77967 150.494 5.46069 151.005C5.52449 152.025 5.39689 153.461 5.07791 155.311C4.69513 157.225 4.56754 158.724 4.69513 159.809C4.31236 159.936 4.05717 160 3.92958 160C3.73819 160 3.5149 159.936 3.25972 159.809C2.94074 159.681 2.71745 159.617 2.58986 159.617C2.58986 159.298 2.52606 158.947 2.39847 158.565C2.33467 158.565 2.30277 158.724 2.30277 159.043C2.30277 159.234 2.20708 159.298 2.01569 159.234V158.565C1.37773 158.118 0.867358 157.384 0.48458 156.364C0.101802 155.407 -0.0257904 154.514 0.101802 153.684C0.165598 149.601 0.99495 144.434 2.58986 138.182C4.18476 131.993 5.07791 127.336 5.2693 124.21C6.22625 119.489 6.76851 115.247 6.89611 111.483C7.34268 109.378 7.75736 106.22 8.14013 102.009C8.45912 97.7348 8.80999 94.7364 9.19277 93.0139C9.12898 92.1846 9.16087 90.9086 9.28847 89.1861C9.35226 87.4636 9.32036 86.2834 9.19277 85.6454C10.2773 85.2627 11.298 85.4859 12.255 86.3153C13.2119 87.0809 13.6266 88.0378 13.499 89.1861C13.3714 90.8448 13.1481 93.2372 12.8292 96.3632C12.5102 99.4254 12.3188 101.435 12.255 102.392C12.1274 102.392 12.0636 102.488 12.0636 102.679C12.0636 102.807 11.9679 102.902 11.7765 102.966C11.9679 104.306 11.8722 105.773 11.4894 107.368C11.617 107.049 11.936 106.22 12.4464 104.88C13.0205 103.54 13.3714 102.679 13.499 102.296C13.6904 101.85 14.0413 101.052 14.5517 99.9039C15.062 98.6918 15.4448 97.8305 15.7 97.3202C15.9552 96.8098 16.3061 96.0442 16.7526 95.0235C17.263 94.0028 17.6777 93.2053 17.9967 92.6311C18.3794 91.9932 18.826 91.2914 19.3364 90.5258C19.8468 89.6965 20.3571 88.9628 20.8675 88.3249C21.3779 87.6231 21.8882 86.9533 22.3986 86.3153C18.6984 91.6742 15.7 97.4158 13.4033 103.54C13.4033 103.668 13.4352 103.764 13.499 103.827C13.6266 103.827 13.6585 103.891 13.5947 104.019C13.2757 103.955 13.0205 104.21 12.8292 104.784C12.6378 105.295 12.6378 105.709 12.8292 106.028C12.3188 106.347 11.8722 107.113 11.4894 108.325C11.1705 109.537 11.0429 110.59 11.1067 111.483C12.5102 107.145 15.1258 100.829 18.9536 92.5354L19.2407 92.8225C19.2407 92.5673 19.4002 92.2165 19.7192 91.7699C20.1019 91.2595 20.2295 90.9086 20.1019 90.7172C20.6761 90.4621 20.9951 90.0155 21.0589 89.3775C21.6968 88.3568 22.6857 87.049 24.0254 85.454C25.3651 83.7953 26.2264 82.7427 26.6092 82.2961C27.5023 81.403 28.4911 80.8607 29.5757 80.6693C30.724 80.4779 31.8086 80.765 32.8293 81.5306C32.8293 81.7858 32.7336 81.8496 32.5422 81.722C33.3078 81.9771 34.0095 82.4237 34.6475 83.0617C34.5199 83.3169 34.488 83.4764 34.5518 83.5402C34.6156 83.604 34.7113 83.7315 34.8389 83.9229C35.0303 84.0505 35.1579 84.1462 35.2217 84.21C35.7958 85.6135 35.8596 87.3998 35.413 89.5689C35.0303 91.6742 34.3923 93.4286 33.4992 94.8321C33.4354 94.9597 33.244 95.1192 32.925 95.3106C32.6698 95.502 32.5103 95.6614 32.4465 95.789C32.2551 96.0442 31.9361 96.6503 31.4896 97.6072C31.043 98.5004 30.5964 99.1383 30.1499 99.5211C28.2998 101.371 26.8643 102.52 25.8436 102.966C25.716 103.03 25.5246 103.03 25.2694 102.966C25.078 102.902 24.9505 102.966 24.8867 103.158C23.6745 102.328 22.8133 101.276 22.3029 99.9996C21.7925 98.6599 22.0796 97.4158 23.1642 96.2675C23.1642 96.3313 23.1004 96.5546 22.9728 96.9374C22.909 97.3202 22.8133 97.671 22.6857 97.99C22.6857 98.2452 22.8133 98.4366 23.0685 98.5642C23.3874 98.628 23.4831 98.8194 23.3555 99.1383C26.1626 97.2245 28.4274 94.7364 30.1499 91.6742C31.9361 88.612 32.3508 85.6773 31.3939 82.8703C31.2025 82.8703 30.9154 83.0298 30.5326 83.3488C30.1499 83.6678 29.8309 83.7953 29.5757 83.7315C27.6618 85.6454 25.8436 87.9421 24.1211 90.6215C22.4624 93.2372 21.1546 95.502 20.1976 97.4159C19.3045 99.2659 18.0286 102.009 16.3699 105.646H16.2742ZM28.9058 81.6263C28.7782 81.6263 28.6187 81.6901 28.4274 81.8177L28.236 82.009C28.6187 82.009 28.842 81.8815 28.9058 81.6263C29.0972 81.5625 29.2567 81.4668 29.3843 81.3392C29.3843 81.403 29.2886 81.4349 29.0972 81.4349C28.9696 81.4349 28.9058 81.4987 28.9058 81.6263ZM27.6618 82.5832C27.7894 82.647 27.8851 82.6151 27.9489 82.4875C28.0127 82.3599 27.9808 82.2642 27.8532 82.2004C27.8532 82.2642 27.8213 82.328 27.7575 82.3918C27.6937 82.4556 27.6618 82.5194 27.6618 82.5832ZM25.078 85.454C24.6315 85.5816 24.3763 85.8049 24.3125 86.1239H24.2168C24.2168 86.1877 24.153 86.2834 24.0254 86.411C23.8978 86.5386 23.834 86.6662 23.834 86.7938H23.7383C21.2503 90.175 19.3683 93.3967 18.0924 96.4589L17.9967 96.5546C18.0605 96.5546 18.0924 96.5227 18.0924 96.4589C18.2837 96.3951 18.4432 96.2356 18.5708 95.9804C18.6984 95.6614 18.826 95.4701 18.9536 95.4063V95.502C19.2726 95.5658 19.4959 95.4382 19.6235 95.1192C19.4959 95.1192 19.3683 95.183 19.2407 95.3106C19.1131 95.3744 19.0174 95.4063 18.9536 95.4063C19.3364 94.3217 20.1657 92.7906 21.4417 90.8129C22.7176 88.7715 23.515 87.4317 23.834 86.7938C23.8978 86.73 24.0573 86.6981 24.3125 86.6981V86.1239C24.5677 86.0601 24.8229 85.8368 25.078 85.454C26.354 84.1781 27.0876 83.2531 27.279 82.6789C25.9393 84.1462 25.2056 85.0713 25.078 85.454ZM26.6092 84.7842V84.4014V84.7842ZM25.4608 86.2196C25.8436 86.2196 26.0669 86.1877 26.1307 86.1239C26.1307 85.9963 26.0669 85.8687 25.9393 85.7411C25.9393 85.8049 25.8436 85.8687 25.6522 85.9325C25.4608 85.9963 25.397 86.092 25.4608 86.2196ZM24.8867 87.7507V87.3679V87.7507ZM23.7383 88.2292C23.9297 88.293 24.0892 88.1654 24.2168 87.8464C24.153 87.8464 24.0892 87.8464 24.0254 87.8464C23.9616 87.7826 23.8978 87.7507 23.834 87.7507C23.834 87.8145 23.8021 87.9102 23.7383 88.0378C23.7383 88.1016 23.7383 88.1654 23.7383 88.2292ZM32.925 89.4732C32.7336 90.0474 32.7974 90.3026 33.1164 90.2388C33.0526 90.1112 33.0845 90.0155 33.2121 89.9517C33.2759 89.8241 33.3078 89.7284 33.3078 89.6646C33.1802 89.7284 33.0845 89.6965 33.0207 89.5689C33.0207 89.5051 32.9888 89.4732 32.925 89.4732C33.1164 89.2818 33.1164 89.1542 32.925 89.0904C32.6698 89.3456 32.6698 89.4732 32.925 89.4732ZM30.8197 92.2483C30.5645 92.6311 30.0861 93.3648 29.3843 94.4493C28.6825 95.4701 28.1403 96.2675 27.7575 96.8417C27.4385 97.3521 26.9281 97.99 26.2264 98.7556C25.5884 99.5211 24.9505 100.159 24.3125 100.669C25.397 100.031 26.354 99.234 27.1833 98.2771C28.0127 97.3202 28.6506 96.4589 29.0972 95.6934C29.5438 94.9278 30.118 93.7795 30.8197 92.2483C30.9473 92.2483 31.043 92.1846 31.1068 92.057C31.2344 91.8656 31.2982 91.7061 31.2982 91.5785C31.362 91.4509 31.3301 91.3552 31.2025 91.2914C31.2025 91.419 31.1387 91.5785 31.0111 91.7699C30.9473 91.8975 30.8835 92.057 30.8197 92.2483ZM19.8149 94.3536C19.9424 94.4174 20.0381 94.4174 20.1019 94.3536C20.1657 94.226 20.1338 94.1303 20.0062 94.0665C19.9424 94.0027 19.8786 94.0027 19.8149 94.0665V94.3536ZM17.5182 97.5115C17.0078 98.2133 16.5931 99.2021 16.2742 100.478C16.2742 100.414 16.338 100.382 16.4655 100.382C16.6569 100.382 16.7845 100.35 16.8483 100.287C16.7845 99.9039 17.1035 99.1383 17.8053 97.99C17.8691 97.8624 17.8372 97.7986 17.7096 97.7986C17.582 97.7348 17.5182 97.6391 17.5182 97.5115H18.188C18.188 97.3202 17.9967 97.1607 17.6139 97.0331C17.5501 97.0969 17.5182 97.2564 17.5182 97.5115ZM18.3794 97.2245C18.5708 97.3521 18.6665 97.2883 18.6665 97.0331C18.4113 97.0331 18.3156 97.0969 18.3794 97.2245ZM15.8914 101.244C16.2104 100.925 16.2742 100.701 16.0828 100.574C15.8914 100.957 15.8276 101.18 15.8914 101.244ZM16.7526 101.722C16.944 101.722 17.0397 101.658 17.0397 101.531C16.8483 101.531 16.7526 101.595 16.7526 101.722ZM14.743 104.593C14.8068 104.593 14.9344 104.433 15.1258 104.114C14.9982 104.178 14.9344 104.114 14.9344 103.923L15.0301 103.732C15.0939 103.54 15.1577 103.413 15.2215 103.349C15.3491 103.413 15.4448 103.54 15.5086 103.732C15.6362 103.859 15.7319 103.923 15.7957 103.923C15.7957 103.859 15.8595 103.827 15.9871 103.827C16.1147 103.764 16.1785 103.668 16.1785 103.54C16.1147 103.476 16.019 103.476 15.8914 103.54C15.7638 103.604 15.7 103.572 15.7 103.445V103.253C15.5086 103.189 15.4129 103.094 15.4129 102.966C15.4129 102.839 15.4448 102.711 15.5086 102.583C15.5724 102.392 15.6043 102.264 15.6043 102.201C15.3491 102.456 15.1577 102.711 15.0301 102.966C14.9025 103.221 14.7749 103.572 14.6474 104.019C14.5836 104.402 14.4879 104.721 14.3603 104.976C14.4241 104.976 14.4879 105.008 14.5517 105.071C14.6155 105.071 14.6793 105.071 14.743 105.071V104.593ZM14.1689 106.028C14.1689 105.901 14.2327 105.773 14.3603 105.646C14.5517 105.582 14.6155 105.454 14.5517 105.263H14.1689C14.1051 105.327 14.0732 105.454 14.0732 105.646C14.0732 105.837 14.1051 105.965 14.1689 106.028ZM13.9775 107.272C13.9137 107.081 13.9456 106.89 14.0732 106.698L13.7861 106.411C13.5309 106.666 13.4671 106.922 13.5947 107.177C13.6585 107.304 13.7861 107.336 13.9775 107.272ZM13.2119 108.708C13.2119 108.644 13.2438 108.516 13.3076 108.325C13.3714 108.197 13.3395 108.134 13.2119 108.134C13.2119 108.197 13.18 108.293 13.1162 108.421C13.0524 108.548 13.0843 108.644 13.2119 108.708ZM11.8722 111.866C12.0636 111.993 12.255 111.866 12.4464 111.483C12.3188 111.419 12.255 111.323 12.255 111.196C12.3188 111.068 12.3188 110.973 12.255 110.909C12.4464 110.909 12.574 110.845 12.6378 110.717C12.7016 110.59 12.7654 110.462 12.8292 110.335C12.9568 110.207 13.0843 110.111 13.2119 110.048C12.9568 109.984 12.7335 110.016 12.5421 110.143C12.4145 110.271 12.3188 110.43 12.255 110.622C12.1912 110.813 12.1274 111.036 12.0636 111.292C11.9998 111.547 11.936 111.738 11.8722 111.866ZM11.7765 113.205C11.1386 113.269 10.8834 113.939 11.011 115.215C11.011 115.087 11.0429 114.992 11.1067 114.928C11.1705 114.8 11.2343 114.832 11.298 115.024C11.298 114.96 11.3618 114.864 11.4894 114.737C11.617 114.673 11.6489 114.577 11.5851 114.449C11.4575 114.449 11.3299 114.386 11.2024 114.258C11.5213 114.194 11.617 113.971 11.4894 113.588C11.5532 113.524 11.6808 113.429 11.8722 113.301C11.9998 112.918 11.936 112.663 11.6808 112.536C11.617 112.791 11.6489 113.014 11.7765 113.205ZM10.7239 116.459C10.6601 116.395 10.6601 116.3 10.7239 116.172C10.7877 116.044 10.7558 115.949 10.6282 115.885C10.5644 115.949 10.5325 116.044 10.5325 116.172C10.5325 116.363 10.5963 116.459 10.7239 116.459ZM11.2024 117.129C11.2024 117.065 11.2343 116.969 11.298 116.842C11.4256 116.714 11.3937 116.65 11.2024 116.65C11.0748 116.906 11.0748 117.065 11.2024 117.129ZM10.5325 119.617C10.4687 119.489 10.4687 119.33 10.5325 119.138C10.6601 118.947 10.7239 118.788 10.7239 118.66C10.7877 118.596 10.7239 118.532 10.5325 118.469C10.5325 118.532 10.5006 118.66 10.4368 118.851C10.373 119.107 10.3411 119.298 10.3411 119.426C10.3411 119.553 10.4049 119.617 10.5325 119.617ZM7.75736 120.765C7.88495 120.829 7.98064 120.733 8.04444 120.478L7.75736 120.765ZM8.04444 121.531C8.04444 121.403 7.94874 121.276 7.75736 121.148C7.56597 121.467 7.66166 121.595 8.04444 121.531ZM7.56597 123.062C7.50217 122.998 7.56597 122.775 7.75736 122.392C7.94874 122.009 7.91685 121.786 7.66166 121.722C7.47027 122.552 7.43837 122.998 7.56597 123.062ZM6.13055 132.536C6.13055 132.408 6.16245 132.281 6.22625 132.153C6.29004 131.962 6.22625 131.866 6.03486 131.866C6.03486 131.93 6.03486 132.057 6.03486 132.249C6.03486 132.44 6.06675 132.536 6.13055 132.536ZM3.25972 137.799C3.25972 137.735 3.32351 137.703 3.45111 137.703C3.38731 137.512 3.29162 137.416 3.16402 137.416C3.16402 137.671 3.19592 137.799 3.25972 137.799ZM2.97264 140.191C2.71745 140.191 2.55796 140.383 2.49416 140.765C2.43037 141.212 2.49416 141.499 2.68555 141.627C2.94074 140.861 3.03643 140.383 2.97264 140.191C3.03643 140.127 3.13213 139.585 3.25972 138.564C2.94074 139.011 2.84504 139.553 2.97264 140.191ZM2.49416 142.584C1.92 142.903 1.8881 143.19 2.39847 143.445C2.39847 143.317 2.46226 143.158 2.58986 142.966C2.65365 142.839 2.62176 142.711 2.49416 142.584C2.74935 142.584 2.81314 142.424 2.68555 142.105C2.68555 141.978 2.62176 141.914 2.49416 141.914C2.49416 142.105 2.43037 142.137 2.30277 142.009C2.23898 141.946 2.17518 141.914 2.11138 141.914C2.11138 142.041 2.17518 142.201 2.30277 142.392L2.49416 142.584ZM28.3317 80.4779C28.4592 80.6055 28.523 80.7331 28.523 80.8607C28.4592 80.8607 28.3955 80.8288 28.3317 80.765H28.236V80.6693C28.2998 80.6055 28.3317 80.5417 28.3317 80.4779ZM27.7575 80.9564C27.6299 81.0202 27.4385 81.1797 27.1833 81.4349C26.9281 81.6263 26.673 81.8177 26.4178 82.009C26.2264 82.1366 26.0669 82.2004 25.9393 82.2004C26.4497 81.5625 27.0557 81.1478 27.7575 80.9564ZM25.5565 82.5832C25.4289 82.9022 24.9824 83.4445 24.2168 84.21C24.5358 83.3807 24.9824 82.8384 25.5565 82.5832ZM22.4943 86.2196C22.8133 85.5816 23.3555 84.9118 24.1211 84.21C23.4831 85.2308 22.9409 85.9006 22.4943 86.2196ZM22.3986 86.3153C22.3986 86.2515 22.4305 86.2196 22.4943 86.2196C22.4943 86.3472 22.4624 86.3791 22.3986 86.3153Z" fill="white"/>
<path d="M51.3484 96.2675L51.4441 96.1718L51.3484 96.2675C51.2846 96.3313 51.1251 96.427 50.8699 96.5546C50.6785 96.6184 50.5191 96.7141 50.3915 96.8417C50.3277 96.9055 50.2958 97.0012 50.2958 97.1288C50.1682 97.3202 49.913 97.5115 49.5302 97.7029C49.1474 97.8305 48.8923 97.9262 48.7647 97.99C47.9991 98.5004 46.6594 99.7125 44.7455 101.626C42.8954 103.54 41.1091 104.976 39.3866 105.933C37.6641 106.953 35.9735 107.145 34.3148 106.507C34.251 106.252 34.1234 105.933 33.932 105.55C33.7406 105.231 33.613 104.976 33.5492 104.784C33.5492 104.593 33.4855 104.561 33.3579 104.689C33.2303 104.752 33.1665 104.721 33.1665 104.593C33.0389 104.402 32.9113 104.146 32.7837 103.827C32.6561 103.508 32.5285 103.285 32.4009 103.158C32.5285 102.52 32.688 101.882 32.8794 101.244C33.0708 100.542 33.2622 99.9358 33.4536 99.4254C33.6449 98.9151 33.9001 98.3409 34.2191 97.7029C34.5381 97.0012 34.7933 96.4589 34.9847 96.0761C35.1123 95.6934 35.3993 95.183 35.8459 94.545C36.2925 93.8433 36.6115 93.3648 36.8029 93.1096C36.9304 92.7906 37.2813 92.2803 37.8555 91.5785C38.3659 90.8129 38.6848 90.3664 38.8124 90.2388C38.94 90.0474 39.2909 89.5689 39.8651 88.8034C40.503 87.974 40.8539 87.4955 40.9177 87.3679C42.8954 85.8368 44.6179 85.0713 46.0852 85.0713C49.1474 85.773 50.8061 87.0171 51.0613 88.8034C51.1889 89.7603 50.8699 90.8767 50.1044 92.1527C50.2958 92.1527 50.7104 92.057 51.3484 91.8656C51.9864 91.6104 52.5286 91.5147 52.9752 91.5785C53.8046 91.8975 54.283 92.7268 54.4106 94.0665C54.602 95.4063 54.3787 96.3951 53.7408 97.0331C54.0597 97.5434 54.0597 98.4047 53.7408 99.6168C53.4218 100.829 53.358 101.69 53.5494 102.201C55.3995 101.882 57.0901 101.435 58.6212 100.861C60.2161 100.287 61.8429 99.3935 63.5016 98.1814C65.1603 96.9055 66.3405 95.9485 67.0423 95.3106C67.8078 94.6726 69.1157 93.4286 70.9658 91.5785C72.8796 89.6646 73.9961 88.5482 74.3151 88.2292C74.1237 89.7603 73.5495 91.1319 72.5926 92.344C71.6994 93.5562 70.3597 94.8959 68.5734 96.3632C66.8509 97.7667 65.7026 98.7556 65.1284 99.3297C61.3644 101.435 59.291 102.583 58.9083 102.775C58.9721 102.839 59.0359 102.87 59.0997 102.87C59.2272 102.807 59.3548 102.743 59.4824 102.679C59.61 102.615 59.7376 102.583 59.8652 102.583C59.8652 102.647 59.7695 102.711 59.5781 102.775C59.4505 102.839 59.3867 102.934 59.3867 103.062C60.7903 102.551 62.5128 101.531 64.5542 99.9996C66.6595 98.4047 68.1906 97.3839 69.1476 96.9374C69.1476 96.8098 69.0519 96.7779 68.8605 96.8417C68.7329 96.9055 68.6372 96.9374 68.5734 96.9374C68.8924 96.427 69.1157 96.3632 69.2433 96.746C69.7536 95.5976 70.6468 94.8959 71.9227 94.6407C68.4139 98.9151 63.1826 102.679 56.2288 105.933C55.9098 105.996 55.4952 105.965 54.9848 105.837C54.4744 105.773 54.0916 105.741 53.8365 105.741C52.8157 105.422 51.9545 104.593 51.2527 103.253C51.1251 100.191 51.157 97.8624 51.3484 96.2675ZM36.133 102.87C37.6003 102.169 38.9719 101.307 40.2479 100.287C41.5238 99.2021 42.9273 97.9262 44.4584 96.4589C46.0533 94.9278 47.2335 93.8114 47.9991 93.1096C47.6801 92.8544 47.5206 92.1846 47.5206 91.1C47.5206 89.9517 47.5206 89.3456 47.5206 89.2818C46.6275 89.537 45.7981 89.8879 45.0326 90.3345C44.3308 90.7172 43.6291 91.2595 42.9273 91.9613C42.2893 92.663 41.7471 93.2372 41.3005 93.6838C40.8539 94.1303 40.3116 94.8959 39.6737 95.9804C39.0995 97.0012 38.7167 97.7029 38.5254 98.0857C38.334 98.4047 37.9193 99.234 37.2813 100.574C36.6434 101.85 36.2606 102.615 36.133 102.87ZM72.5926 91.1C72.784 91.2914 72.9434 91.1638 73.071 90.7172C72.7521 90.9086 72.5926 91.0362 72.5926 91.1ZM61.0135 100.191C60.8859 100.127 60.7903 100.127 60.7265 100.191C60.5351 100.127 60.3756 100.223 60.248 100.478C60.3756 100.478 60.5351 100.382 60.7265 100.191H61.0135C60.9497 100.319 60.5989 100.542 59.9609 100.861C59.9609 100.797 59.9928 100.733 60.0566 100.669C60.1842 100.542 60.1523 100.478 59.9609 100.478C59.6419 101.052 59.3229 101.212 59.004 100.957C58.8126 101.467 58.8126 101.722 59.004 101.722C64.937 98.6599 69.4347 95.1511 72.4969 91.1957C71.9865 91.6423 71.0934 92.4397 69.8174 93.5881C68.5415 94.6726 67.5527 95.502 66.8509 96.0761C66.2129 96.5865 65.3198 97.2564 64.1715 98.0857C63.0869 98.9151 62.0343 99.6168 61.0135 100.191ZM48.956 94.4493C49.0198 94.5769 49.1474 94.5769 49.3388 94.4493C49.5302 94.2579 49.5302 94.1303 49.3388 94.0665C49.3388 94.1303 49.2431 94.1941 49.0517 94.2579C48.9241 94.2579 48.8923 94.3217 48.956 94.4493ZM48.3819 95.0235C48.2543 94.9597 48.1267 95.0235 47.9991 95.2149C47.9353 95.3425 47.9672 95.4063 48.0948 95.4063C48.0948 95.3425 48.1267 95.3106 48.1905 95.3106C48.3181 95.2468 48.3819 95.1511 48.3819 95.0235C48.4457 95.0235 48.4776 95.0554 48.4776 95.1192C48.4776 95.1192 48.5095 95.1192 48.5733 95.1192C48.6371 95.0554 48.669 94.9278 48.669 94.7364C48.4776 94.7364 48.3819 94.8321 48.3819 95.0235ZM35.3674 101.722C34.9847 102.36 34.8252 102.711 34.889 102.775C35.2079 102.264 35.3674 101.913 35.3674 101.722ZM58.1427 103.253C58.5893 103.062 58.8126 102.934 58.8126 102.87C58.5574 102.87 58.366 102.902 58.2384 102.966C58.1108 102.966 58.0789 103.062 58.1427 103.253ZM58.3341 103.636C58.9721 103.317 59.291 103.126 59.291 103.062C58.7807 103.189 58.4617 103.381 58.3341 103.636ZM34.7933 103.636C34.9209 103.445 34.8252 103.349 34.5062 103.349C34.3786 103.349 34.3148 103.381 34.3148 103.445C34.3786 103.445 34.4743 103.476 34.6019 103.54C34.6657 103.604 34.7295 103.636 34.7933 103.636ZM72.6883 93.1096C72.8796 93.2372 72.8796 93.3648 72.6883 93.4924C72.5607 93.62 72.4331 93.6519 72.3055 93.5881C72.3055 93.5243 72.3693 93.4605 72.4969 93.3967C72.6245 93.3329 72.6883 93.2372 72.6883 93.1096ZM72.4969 93.9708C72.5607 94.1622 72.465 94.2898 72.2098 94.3536C72.0822 94.226 71.9865 94.1303 71.9227 94.0665C71.9865 94.0665 72.0503 94.0346 72.1141 93.9708C72.2417 93.9071 72.3693 93.9071 72.4969 93.9708ZM60.6308 102.201C60.6308 102.328 60.567 102.424 60.4394 102.488C60.3118 102.488 60.248 102.52 60.248 102.583C60.1204 102.456 60.248 102.328 60.6308 102.201Z" fill="white"/>
<path d="M74.872 105.741C74.872 105.805 74.872 105.869 74.872 105.933C74.9358 106.06 74.9677 106.156 74.9677 106.22C75.0315 106.22 75.1272 106.156 75.2548 106.028C75.3824 106.092 75.51 106.188 75.6376 106.315C75.7652 106.507 75.8609 106.634 75.9247 106.698C77.073 106.443 78.2213 105.996 79.3697 105.358C80.518 104.784 81.3792 104.306 81.9534 103.923C82.5276 103.54 83.4526 102.839 84.7286 101.818C86.0683 100.733 86.8657 100.095 87.1209 99.9039C92.735 95.0554 97.424 90.8767 101.188 87.3679H101.666C101.73 87.3679 101.794 87.2722 101.858 87.0808C101.858 86.9533 101.922 86.8895 102.049 86.8895C101.858 87.336 101.316 88.0378 100.422 88.9947C99.5293 89.9517 99.0189 90.7172 98.8913 91.2914C97.9982 91.2276 96.9455 92.1208 95.7334 93.9708C95.6058 94.0346 95.4782 93.9708 95.3506 93.7795V94.3536C94.8403 94.1622 94.5213 94.3217 94.3937 94.8321C93.5005 95.1511 93.1178 95.5339 93.2454 95.9804C92.6074 96.1718 92.1608 96.4908 91.9056 96.9374C91.9694 96.9374 92.0651 96.8736 92.1927 96.746C92.3203 96.6184 92.416 96.6503 92.4798 96.8417C92.2884 97.0331 92.0332 97.1288 91.7142 97.1288C91.7142 97.2564 91.6824 97.3521 91.6186 97.4159C91.6186 97.4159 91.5548 97.4159 91.4272 97.4159C91.3634 97.4159 91.2996 97.4477 91.2358 97.5115C91.2358 97.5115 91.2677 97.6072 91.3315 97.7986C91.1401 97.8624 90.9806 97.8305 90.853 97.7029C90.853 97.8943 90.5978 98.2133 90.0874 98.6599C89.6409 99.1065 89.4176 99.4573 89.4176 99.7125L89.2262 99.5211C89.29 99.5849 89.3219 99.553 89.3219 99.4254L89.2262 99.5211C89.0986 99.6487 88.8434 99.9039 88.4606 100.287C88.0779 100.606 87.7908 100.861 87.5994 101.052C87.6632 101.244 87.7908 101.244 87.9822 101.052C88.2374 100.797 88.4606 100.765 88.652 100.957C88.7158 100.574 89.0029 100.191 89.5133 99.8082C90.0874 99.3616 90.5659 99.2021 90.9487 99.3297C90.7573 99.5849 90.4383 99.9039 89.9918 100.287C89.609 100.606 89.3219 100.893 89.1305 101.148C89.5133 100.893 90.0555 100.478 90.7573 99.9039C91.4591 99.2659 92.0332 98.8513 92.4798 98.6599C91.9056 99.3616 90.9487 100.255 89.609 101.339C88.2693 102.36 87.3123 103.221 86.7381 103.923C86.8657 104.051 87.0252 104.051 87.2166 103.923C87.4718 103.795 87.6313 103.636 87.6951 103.445C87.8865 103.572 87.8865 103.795 87.6951 104.114C87.5675 104.242 87.4399 104.242 87.3123 104.114C87.1847 104.497 87.2485 104.689 87.5037 104.689C84.4415 107.623 81.443 109.218 78.5084 109.473C75.9566 109.027 73.9151 107.815 72.384 105.837C70.8529 103.859 70.0235 101.371 69.8959 98.3728C69.9597 98.2452 69.9278 98.1814 69.8002 98.1814C69.6726 98.1176 69.6088 98.0538 69.6088 97.99C70.4382 94.6088 70.5339 91.9932 69.8959 90.1431C70.5977 89.4413 71.14 88.1016 71.5227 86.1239C71.8417 84.1462 72.0331 83.0617 72.0969 82.8703C72.2245 82.8703 72.2564 82.9979 72.1926 83.2531C72.1288 83.5083 72.0969 83.6996 72.0969 83.8272C72.2883 83.6359 72.384 83.3488 72.384 82.966C72.4478 82.5194 72.3521 82.2323 72.0969 82.1047C74.6488 69.3455 78.4446 56.5862 83.4845 43.827C83.8673 43.1252 84.6967 41.5941 85.9726 39.2336C87.3123 36.8094 88.3011 35.055 88.9391 33.9704C89.6409 32.8221 90.6297 31.4186 91.9056 29.7599C93.2454 28.1012 94.5851 26.7615 95.9248 25.7407C97.9025 25.8683 99.2741 26.7615 100.04 28.4202C100.869 30.0151 101.188 31.7376 100.997 33.5877C100.805 35.374 100.391 37.1284 99.7526 38.8509C99.7526 41.2751 99.0508 43.827 97.6473 46.5064C96.8179 49.0583 95.861 51.7377 94.7765 54.5447C93.6919 57.288 92.735 59.5847 91.9056 61.4347C91.1401 63.221 90.0237 65.7091 88.5563 68.8989C87.1528 72.0887 86.1002 74.513 85.3984 76.1717C85.1432 76.4269 84.9199 76.6183 84.7286 76.7459C84.7286 76.8097 84.7605 76.9372 84.8243 77.1286C84.8881 77.2562 84.8881 77.3838 84.8243 77.5114C84.1863 78.4683 83.2931 80.0633 82.1448 82.2961C81.0603 84.529 79.9757 86.4429 78.8912 88.0378C77.8067 89.5689 76.5307 90.8129 75.0634 91.7699C74.7444 92.1527 74.4893 92.9501 74.2979 94.1622C74.1065 95.3106 73.9151 96.0442 73.7237 96.3632C73.8513 97.3839 73.8513 98.4047 73.7237 99.4254C73.5961 100.382 73.5961 101.499 73.7237 102.775C73.9151 103.987 74.2979 104.976 74.872 105.741ZM94.8722 30.2384C94.8084 30.2384 94.7446 30.1746 94.6808 30.047C94.6808 29.8556 94.617 29.7918 94.4894 29.8556C94.4256 29.9832 94.4575 30.0789 94.5851 30.1427C94.7127 30.2065 94.7765 30.2703 94.7765 30.3341C94.5851 30.4616 94.3299 30.7487 94.0109 31.1953C93.7557 31.5781 93.5005 31.8333 93.2454 31.9609C93.3092 31.7695 93.2773 31.6419 93.1497 31.5781C92.9583 31.7695 92.6712 32.1841 92.2884 32.8221C92.2884 32.9497 92.3522 32.9178 92.4798 32.7264C92.6712 32.535 92.7988 32.535 92.8626 32.7264C92.7988 32.854 92.6074 33.1411 92.2884 33.5877C92.0332 33.9704 91.8099 34.2894 91.6186 34.5446C91.491 34.736 91.2996 34.9593 91.0444 35.2145C90.7892 35.4697 90.5659 35.5972 90.3745 35.5972C90.5021 36.0438 90.5021 36.3947 90.3745 36.6499C90.3107 36.8413 90.1193 37.1284 89.8004 37.5111C89.4814 37.8939 89.29 38.181 89.2262 38.3724C89.2262 38.5 89.29 38.5957 89.4176 38.6595C89.609 38.7233 89.6728 38.8509 89.609 39.0422C89.29 39.0422 89.0986 39.0741 89.0348 39.1379C88.971 39.2017 89.0348 39.3293 89.2262 39.5207C89.1624 39.5207 89.0986 39.5526 89.0348 39.6164C88.971 39.6802 88.8753 39.6802 88.7477 39.6164C88.9391 39.8716 88.8434 40.3501 88.4606 41.0518C88.1417 41.6898 88.1417 42.1364 88.4606 42.3916C88.3968 42.3916 88.2692 42.4872 88.0779 42.6786C87.9503 42.8062 87.7908 42.87 87.5994 42.87C87.5356 42.9976 87.5675 43.0933 87.6951 43.1571C87.8227 43.1571 87.8865 43.189 87.8865 43.2528C87.6313 43.827 87.1847 44.752 86.5467 46.0279C85.9726 47.2401 85.4941 48.3565 85.1113 49.3772C84.7286 50.3342 84.4415 51.2911 84.2501 52.2481C83.9311 52.7584 83.5164 53.7792 83.0061 55.3103C82.4957 56.8414 81.8896 57.9259 81.1879 58.5639C81.1241 58.6915 81.1879 58.7872 81.3793 58.851C81.6344 58.9148 81.762 58.9786 81.762 59.0424C81.6982 59.17 81.5706 59.6484 81.3793 60.4778C81.1879 61.2434 80.9327 61.7856 80.6137 62.1046C80.6137 62.6788 80.4223 63.54 80.0395 64.6884C79.7206 65.7729 79.5292 66.5384 79.4654 66.985C79.4016 67.0488 79.274 67.0807 79.0826 67.0807C78.955 67.0807 78.8912 67.1126 78.8912 67.1764C79.0826 67.1764 79.1783 67.304 79.1783 67.5592C79.2421 67.8144 79.1783 68.0377 78.9869 68.229C78.8593 68.4204 78.6998 68.5161 78.5084 68.5161C78.636 70.9404 78.1575 72.7905 77.073 74.0664C77.2644 74.2578 77.3282 74.5449 77.2644 74.9277C77.2644 75.3104 77.2963 75.6294 77.3601 75.8846C77.1687 75.8846 77.0092 75.9803 76.8816 76.1717C76.8178 76.2993 76.754 76.5226 76.6902 76.8415C76.6902 77.0967 76.6583 77.2881 76.5945 77.4157C76.8497 77.4157 77.0092 77.2881 77.073 77.0329C76.0523 81.1797 75.5419 83.604 75.5419 84.3057C77.5834 80.9883 79.4973 77.5433 81.2836 73.9707C83.0699 70.3343 85.207 65.7091 87.6951 60.095C90.2469 54.4171 91.8418 50.8446 92.4798 49.3772C92.7988 48.1651 93.3411 46.4107 94.1066 44.114C94.936 41.8174 95.5739 39.7759 96.0205 37.9896C96.5309 36.2033 96.8817 34.4489 97.0731 32.7264C97.3283 32.3436 97.4559 31.7057 97.4559 30.8125C97.4559 29.8556 97.4559 29.09 97.4559 28.5159C97.2007 28.5159 96.9774 28.484 96.7861 28.4202C96.6585 28.3564 96.4671 28.4521 96.2119 28.7073C95.9567 28.9624 95.7653 29.1538 95.6377 29.2814C95.5739 29.3452 95.4144 29.5047 95.1593 29.7599C94.9679 30.0151 94.8722 30.1746 94.8722 30.2384ZM98.8913 31.5781H99.0827C99.0827 31.5143 99.1146 31.4505 99.1784 31.3867C99.2422 31.3229 99.2422 31.2591 99.1784 31.1953H98.8913V31.5781ZM98.987 32.0566C98.7956 32.5669 98.7637 33.1092 98.8913 33.6834C98.8275 33.811 98.7318 33.8428 98.6042 33.7791C98.5405 33.7153 98.4767 33.6834 98.4129 33.6834C98.4767 33.7472 98.5405 33.9704 98.6042 34.3532C98.668 34.6722 98.7637 34.8636 98.8913 34.9274C98.8913 34.5446 98.9551 34.0023 99.0827 33.3006C99.2103 32.5988 99.1784 32.1841 98.987 32.0566ZM91.5229 33.9704C91.5867 33.9704 91.8099 33.6834 92.1927 33.1092C91.8737 33.1092 91.6505 33.3963 91.5229 33.9704ZM81.8577 49.9514C83.8354 45.7409 86.6105 40.2544 90.1831 33.492C87.0571 38.0853 84.282 43.5718 81.8577 49.9514ZM98.5086 36.0757C98.5086 35.9481 98.5086 35.8524 98.5086 35.7886C98.5723 35.661 98.6361 35.5335 98.6999 35.4059C98.7637 35.2783 98.7956 35.1826 98.7956 35.1188C98.5405 35.1188 98.381 35.0869 98.3172 35.0231C98.1896 35.1507 98.1258 35.3421 98.1258 35.5972C98.1896 35.8524 98.3172 36.0119 98.5086 36.0757ZM97.3602 38.3724H97.743C97.743 38.5 97.6792 38.5957 97.5516 38.6595C97.424 38.7233 97.3602 38.819 97.3602 38.9466C97.6154 39.0104 97.7749 38.9785 97.8387 38.8509C97.9663 38.6595 98.0301 38.4043 98.0301 38.0853C98.0939 37.7663 98.1577 37.543 98.2215 37.4154C98.1577 37.4154 98.0939 37.3516 98.0301 37.2241C97.9663 37.0327 97.8706 36.937 97.743 36.937C97.5516 37.1284 97.4559 37.3835 97.4559 37.7025C97.5197 37.9577 97.4878 38.181 97.3602 38.3724ZM98.4129 38.3724C98.4129 38.3086 98.4767 38.181 98.6042 37.9896C98.7956 37.6706 98.7637 37.4792 98.5086 37.4154C98.5086 37.543 98.4448 37.7344 98.3172 37.9896C98.2534 38.2448 98.2853 38.3724 98.4129 38.3724ZM87.8865 39.2336C87.8227 39.425 87.8865 39.5207 88.0779 39.5207C88.3968 39.4569 88.5882 39.3293 88.652 39.1379C88.333 39.2017 88.0779 39.2336 87.8865 39.2336ZM97.3602 39.9992L97.6473 39.425C97.5835 39.425 97.4878 39.3931 97.3602 39.3293C97.2964 39.2017 97.2007 39.1698 97.0731 39.2336C97.0093 39.6164 97.105 39.8716 97.3602 39.9992ZM97.0731 40.8604C96.8179 40.7966 96.6585 40.8923 96.5947 41.1475C96.5309 41.2113 96.5628 41.2751 96.6904 41.3389C96.8179 41.2751 96.9455 41.307 97.0731 41.4346C97.1369 41.3708 97.1688 41.2751 97.1688 41.1475C97.2326 40.9561 97.2645 40.7647 97.2645 40.5734C97.3283 40.382 97.3602 40.2544 97.3602 40.1906C97.105 40.1906 96.9455 40.1587 96.8817 40.0949C96.818 40.1587 96.8817 40.4139 97.0731 40.8604ZM97.6473 41.2432H97.8387V40.9561H97.6473V41.2432ZM87.408 41.4346H86.9295C86.9933 41.4346 87.089 41.4984 87.2166 41.626C87.3442 41.6898 87.408 41.626 87.408 41.4346ZM96.3076 41.9131C96.6266 41.9131 96.7861 41.8493 96.7861 41.7217C96.5309 41.6579 96.3714 41.7217 96.3076 41.9131ZM86.5467 42.6786C86.6743 42.7424 86.77 42.7105 86.8338 42.5829C86.9614 42.3916 86.9614 42.2959 86.8338 42.2959C86.8338 42.3597 86.77 42.4235 86.6424 42.4872C86.5787 42.4872 86.5467 42.551 86.5467 42.6786ZM96.6904 42.5829C96.7542 42.3916 96.7223 42.2959 96.5947 42.2959C96.4671 42.2321 96.3395 42.2321 96.2119 42.2959C96.2119 42.4872 96.3714 42.5829 96.6904 42.5829ZM96.7861 43.1571C97.424 43.0295 97.5835 42.7424 97.2645 42.2959C97.0731 42.2959 96.9137 42.5829 96.7861 43.1571ZM95.4463 44.2097C95.8929 44.4649 96.1481 44.4649 96.2119 44.2097L96.1162 44.114C95.9248 44.114 95.861 44.0184 95.9248 43.827L96.6904 43.0614C96.3076 42.9338 96.0524 42.8062 95.9248 42.6786C95.9248 42.9338 95.8929 43.1252 95.8291 43.2528C95.7653 43.3804 95.7015 43.5399 95.6377 43.7313C95.5739 43.8589 95.5101 44.0184 95.4463 44.2097ZM96.499 44.3054H96.6904V44.114H96.499V44.3054ZM91.4272 54.7361H91.3315C91.3315 54.9275 91.2039 55.0232 90.9487 55.0232C91.0763 55.3422 91.0444 55.6293 90.853 55.8845C90.7254 56.0759 90.6935 56.2672 90.7573 56.4586L90.1831 56.7457C90.1193 56.8733 90.1193 57.0009 90.1831 57.1285C90.2469 57.2561 90.2788 57.3518 90.2788 57.4156C90.2788 57.4794 90.1831 57.5113 89.9918 57.5113C89.8642 57.5113 89.8004 57.5432 89.8004 57.607C89.928 57.9259 89.8961 58.2768 89.7047 58.6596C89.5771 58.9786 89.3857 59.2019 89.1305 59.3295C89.0667 59.5847 89.0348 59.776 89.0348 59.9036C89.0986 59.9674 89.1624 60.0631 89.2262 60.1907C89.3538 60.2545 89.4176 60.3183 89.4176 60.3821C89.0348 60.3183 88.7796 60.414 88.652 60.6692C88.5244 60.9244 88.4925 61.2434 88.5563 61.6261C88.3012 61.6261 88.1098 61.7537 87.9822 62.0089C88.1098 62.1365 88.1736 62.2641 88.1736 62.3917C88.046 62.6469 87.7908 63.0296 87.408 63.54C87.089 64.0504 86.8338 64.4651 86.6424 64.784C86.5149 65.0392 86.3554 65.4539 86.164 66.0281C86.0364 66.5384 86.1321 66.9531 86.4511 67.2721C86.3873 67.2721 86.3235 67.304 86.2597 67.3678C86.1959 67.4316 86.1002 67.4316 85.9726 67.3678V66.985C85.3346 67.6868 84.601 68.9627 83.7716 70.8128C83.0061 72.6629 82.3362 73.9388 81.762 74.6406C81.762 74.832 81.7301 75.0553 81.6663 75.3104C81.5387 75.6294 81.6025 75.8208 81.8577 75.8846C81.9853 75.8208 81.9853 75.757 81.8577 75.6932C81.7939 75.5656 81.762 75.438 81.762 75.3104C81.8258 75.2466 81.9853 75.1509 82.2405 75.0233C82.4957 74.8958 82.6552 74.7682 82.719 74.6406C82.719 74.3216 82.7828 73.9707 82.9104 73.5879C83.1018 73.2052 83.325 72.7905 83.5802 72.3439C83.8354 71.8335 84.0268 71.4508 84.1544 71.1956C84.282 71.1956 84.3777 71.2913 84.4415 71.4827C84.4415 71.6103 84.5053 71.674 84.6329 71.674C84.6329 71.4827 84.7605 71.2594 85.0156 71.0042C85.0156 71.1318 85.0475 71.1956 85.1113 71.1956C85.1751 71.1318 85.2389 71.0042 85.3027 70.8128C85.2389 70.8128 85.1751 70.8447 85.1113 70.9085L85.0156 71.0042C85.0156 70.43 85.1432 70.1429 85.3984 70.1429C85.4622 70.0153 85.4303 69.9197 85.3027 69.8559C85.1751 69.7283 85.1432 69.6326 85.207 69.5688C85.3346 69.5688 85.4303 69.6326 85.4941 69.7602C85.6217 69.8877 85.7493 69.9197 85.8769 69.8559C86.0683 69.7283 86.0683 69.6326 85.8769 69.5688C85.7493 69.505 85.6855 69.4093 85.6855 69.2817C85.7493 69.1541 85.8131 69.1541 85.8769 69.2817C86.0045 69.3455 86.1321 69.3774 86.2597 69.3774C86.0683 68.9946 86.0683 68.4842 86.2597 67.8463C86.3873 67.9739 86.4511 68.0696 86.4511 68.1334C86.4511 68.1971 86.4192 68.2928 86.3554 68.4204C86.2916 68.4842 86.2597 68.5799 86.2597 68.7075C86.77 68.0058 87.408 66.7298 88.1736 64.8797C88.9391 62.9659 89.609 61.6899 90.1831 61.052C89.928 60.733 90.0237 60.5097 90.4702 60.3821C90.534 60.2545 90.534 60.1269 90.4702 59.9993C90.4064 59.8717 90.3745 59.776 90.3745 59.7122C90.7573 59.5847 90.8849 59.3295 90.7573 58.9467C90.8211 58.9467 90.9168 58.8829 91.0444 58.7553C91.172 58.5639 91.2996 58.4682 91.4272 58.4682C91.4272 58.3406 91.3634 58.2449 91.2358 58.1811C91.1082 58.0535 91.0444 57.9578 91.0444 57.8941C91.0444 57.8303 91.1082 57.7984 91.2358 57.7984C91.4272 57.7984 91.5229 57.7346 91.5229 57.607C91.4591 57.4794 91.3634 57.4475 91.2358 57.5113C91.172 57.5113 91.1082 57.4794 91.0444 57.4156C91.0444 57.1604 91.172 57.0966 91.4272 57.2242C91.491 57.288 91.5548 57.3199 91.6186 57.3199C91.6824 57.1285 91.778 56.8095 91.9056 56.3629C92.0332 55.8526 92.1608 55.4698 92.2884 55.2146C92.2246 55.2146 92.1289 55.2784 92.0013 55.406C91.9375 55.5336 91.8418 55.5655 91.7142 55.5017C91.7142 55.4379 91.7461 55.3422 91.8099 55.2146C91.8737 55.087 91.8418 54.9913 91.7142 54.9275C91.7142 55.1827 91.6186 55.1827 91.4272 54.9275C91.4272 54.8637 91.4272 54.7999 91.4272 54.7361C91.5548 54.7999 91.6186 54.768 91.6186 54.6404C91.6186 54.4491 91.7142 54.3853 91.9056 54.4491C91.8418 54.5766 91.8418 54.6723 91.9056 54.7361C91.9694 54.7999 92.0332 54.7999 92.097 54.7361C92.1608 54.7361 92.1927 54.6404 92.1927 54.4491C92.1927 54.1939 92.2884 54.0663 92.4798 54.0663C92.4798 54.1301 92.4479 54.2258 92.3841 54.3534C92.2565 54.7361 92.2884 54.9594 92.4798 55.0232C92.4798 54.8318 92.5436 54.6085 92.6712 54.3534C92.8626 54.0982 92.9264 53.843 92.8626 53.5878C92.6712 53.7154 92.4798 53.6516 92.2884 53.3964C92.4798 53.2688 92.5755 53.205 92.5755 53.205C92.3841 53.0136 92.3522 52.886 92.4798 52.8222C92.6074 52.8222 92.7031 52.9179 92.7669 53.1093C92.8945 53.3007 93.054 53.3964 93.2454 53.3964C93.1816 53.0774 93.2773 52.7584 93.5324 52.4395C93.7876 52.0567 93.9152 51.7696 93.9152 51.5782C93.9152 51.5144 93.8514 51.4825 93.7238 51.4825C93.5962 51.4825 93.5005 51.4187 93.4368 51.2911C93.6281 50.9722 93.7557 50.7808 93.8195 50.717C93.8833 50.8446 93.8833 50.9722 93.8195 51.0997C93.7557 51.1635 93.7238 51.2273 93.7238 51.2911C94.0428 51.3549 94.298 51.2911 94.4894 51.0997C94.4256 50.9722 94.3618 50.8127 94.298 50.6213C94.298 50.3661 94.298 50.1747 94.298 50.0471C94.4256 49.9833 94.5213 49.9514 94.5851 49.9514C94.7765 50.0152 94.8722 49.8876 94.8722 49.5686C94.6808 49.5686 94.4894 49.5367 94.298 49.4729C94.1066 49.4091 93.979 49.3772 93.9152 49.3772C93.9152 49.1859 94.0428 49.0583 94.298 48.9945C94.617 48.9307 94.8084 48.8669 94.8722 48.8031C94.7446 48.9307 94.6808 49.0902 94.6808 49.2816C94.7446 49.4091 94.8403 49.4729 94.9679 49.4729C94.9679 49.3453 94.9679 49.1221 94.9679 48.8031C95.0317 48.4203 95.0955 48.1651 95.1593 48.0375C95.0955 47.9737 95.0317 47.9737 94.9679 48.0375L94.8722 48.1332C94.8084 47.9418 94.8403 47.8461 94.9679 47.8461C95.0955 47.7823 95.1593 47.7185 95.1593 47.6547C94.9041 47.5909 94.9041 47.4315 95.1593 47.1763C95.4144 46.8573 95.5739 46.8254 95.6377 47.0806C95.6377 47.0168 95.7015 46.7935 95.8291 46.4107C96.0205 46.0279 95.9886 45.8047 95.7334 45.7409C95.6696 45.7409 95.6377 45.8366 95.6377 46.0279C95.6377 46.3469 95.542 46.4745 95.3506 46.4107C95.4144 46.3469 95.4463 46.2512 95.4463 46.1236C95.4463 45.9322 95.4463 45.7728 95.4463 45.6452C95.4463 45.5176 95.4782 45.4219 95.542 45.3581C95.6058 45.2305 95.7334 45.1667 95.9248 45.1667C95.9248 45.0391 95.8291 44.9434 95.6377 44.8796C95.5101 44.752 95.4782 44.5925 95.542 44.4011C94.5851 45.8047 94.4256 46.5702 95.0636 46.6978C94.936 47.0168 94.8403 47.1763 94.7765 47.1763L94.6808 47.0806C94.5532 47.0806 94.4575 47.0806 94.3937 47.0806C94.3299 47.4634 94.1704 47.9737 93.9152 48.6117C93.66 49.2497 93.5005 49.76 93.4368 50.1428C93.373 50.2066 93.2454 50.2704 93.054 50.3342C92.9264 50.398 92.8307 50.4618 92.7669 50.5256C92.7031 50.6532 92.7031 50.7808 92.7669 50.9084C92.8307 51.0359 92.8626 51.1316 92.8626 51.1954C92.735 51.1316 92.6393 51.1635 92.5755 51.2911C92.5755 51.4187 92.5436 51.4825 92.4798 51.4825C92.6074 51.6739 92.5755 51.8972 92.3841 52.1524C92.2565 52.4076 92.1927 52.6309 92.1927 52.8222H91.7142C91.778 53.0774 91.7143 53.3007 91.5229 53.4921C91.3953 53.6835 91.3315 53.843 91.3315 53.9706C91.3953 54.0982 91.4272 54.3534 91.4272 54.7361ZM95.3506 47.6547H95.542V47.4634H95.3506V47.6547ZM80.1352 54.5447C80.6456 53.7154 81.2198 52.3438 81.8577 50.4299C81.8577 50.2385 81.7939 50.2066 81.6663 50.3342C81.6025 50.398 81.3474 51.0041 80.9008 52.1524C80.518 53.2369 80.2628 54.0344 80.1352 54.5447ZM94.5851 50.6213C94.6489 50.5575 94.7127 50.5256 94.7765 50.5256C94.6489 50.398 94.5532 50.3342 94.4894 50.3342C94.4894 50.5256 94.5213 50.6213 94.5851 50.6213ZM79.6568 55.6931C79.9119 55.6931 80.0714 55.5655 80.1352 55.3103C80.2628 55.0551 80.2628 54.8637 80.1352 54.7361C79.9438 54.7999 79.7843 55.1189 79.6568 55.6931ZM79.5611 56.1716H79.8481V55.8845H79.5611V56.1716ZM78.8912 57.9897C79.0826 57.9259 79.2421 57.7665 79.3697 57.5113C79.4973 57.1923 79.4973 56.9371 79.3697 56.7457C79.1145 57.2561 78.955 57.6708 78.8912 57.9897ZM80.0395 57.9897C80.1671 58.1173 80.2309 58.0535 80.2309 57.7984C80.1671 57.7346 80.1033 57.6708 80.0395 57.607V57.9897ZM79.8481 58.7553H80.0395V58.3725H79.8481V58.7553ZM78.5084 58.9467C78.6998 59.0105 78.8274 58.9148 78.8912 58.6596C78.955 58.5958 78.9231 58.532 78.7955 58.4682C78.7955 58.532 78.7636 58.5958 78.6998 58.6596C78.5722 58.7234 78.5084 58.8191 78.5084 58.9467ZM78.6998 59.9036C78.6998 59.8398 78.6998 59.7441 78.6998 59.6165C78.6998 59.489 78.6679 59.4252 78.6041 59.4252C78.6041 59.3614 78.5403 59.3295 78.4127 59.3295C78.2851 59.4571 78.2532 59.6165 78.317 59.8079C78.3808 59.9355 78.5084 59.9674 78.6998 59.9036ZM79.5611 59.9036C79.5611 59.8398 79.593 59.8079 79.6568 59.8079C79.6568 59.6165 79.593 59.5528 79.4654 59.6165C79.4654 59.8079 79.4973 59.9036 79.5611 59.9036ZM77.3601 62.5831C77.6153 62.3279 77.8386 61.9132 78.03 61.3391C78.2851 60.7011 78.3489 60.2864 78.2213 60.095C78.1575 60.2864 78.03 60.6692 77.8386 61.2434C77.6472 61.8175 77.4877 62.2641 77.3601 62.5831ZM80.1352 62.3917H80.4223V62.1046H80.1352V62.3917ZM77.2644 62.9659H77.3601C77.4239 63.0297 77.4877 63.0615 77.5515 63.0615C77.4239 62.8064 77.3282 62.6788 77.2644 62.6788V62.9659ZM76.7859 64.784C76.7859 64.6565 76.8497 64.4651 76.9773 64.2099C77.1687 63.9547 77.2644 63.7633 77.2644 63.6357C77.3282 63.5081 77.2963 63.3805 77.1687 63.2529C77.1687 63.3805 77.073 63.6357 76.8816 64.0185C76.754 64.3375 76.7221 64.5927 76.7859 64.784ZM76.4031 65.8367C76.6583 65.8367 76.7859 65.6453 76.7859 65.2625C76.5945 65.3263 76.4669 65.5177 76.4031 65.8367ZM75.9247 68.229C75.9247 68.0377 75.9885 67.8463 76.1161 67.6549C76.2437 67.4635 76.3393 67.2721 76.4031 67.0807C76.3393 67.0807 76.2756 67.0488 76.2118 66.985C76.148 66.9212 76.0842 66.9212 76.0204 66.985C76.0204 67.1126 75.9885 67.2721 75.9247 67.4635C75.8609 67.6549 75.7971 67.8144 75.7333 67.942C75.7333 68.0058 75.7971 68.1015 75.9247 68.229ZM77.3601 69.0903C77.4877 69.1541 77.5834 69.1541 77.6472 69.0903C77.711 68.9627 77.6791 68.867 77.5515 68.8032C77.4877 68.7394 77.4239 68.7394 77.3601 68.8032V69.0903ZM75.4462 69.6645H75.6376V69.2817H75.4462V69.6645ZM77.2644 69.9515H77.5515V69.6645H77.2644V69.9515ZM84.0587 72.1525H84.2501V71.8654H84.0587V72.1525ZM84.5372 72.3439C84.6648 72.4077 84.7605 72.312 84.8243 72.0568C84.8881 71.993 84.8561 71.9292 84.7286 71.8654C84.7286 71.9292 84.6648 71.993 84.5372 72.0568C84.4734 72.1206 84.4734 72.2163 84.5372 72.3439ZM83.5802 73.4922C83.5802 73.3646 83.644 73.2052 83.7716 73.0138C83.8992 72.7586 83.9949 72.5353 84.0587 72.3439C83.8673 72.4077 83.7078 72.5991 83.5802 72.9181C83.4526 73.1733 83.4526 73.3646 83.5802 73.4922ZM84.0587 73.4922C84.1863 73.4284 84.282 73.3009 84.3458 73.1095C84.4096 72.9181 84.4734 72.7905 84.5372 72.7267C84.2182 72.7267 84.0587 72.9819 84.0587 73.4922ZM73.5323 77.9899C73.7237 77.7985 73.7556 77.6071 73.628 77.4157C73.5642 77.3519 73.4685 77.32 73.3409 77.32C73.3409 77.4476 73.3409 77.5752 73.3409 77.7028C73.2771 77.8304 73.3409 77.9261 73.5323 77.9899ZM73.2452 78.277H73.5323V78.0856H73.2452V78.277ZM98.6042 90.2388C98.8594 90.2388 99.0189 90.1431 99.0827 89.9517C99.0827 89.8879 99.0189 89.8241 98.8913 89.7603C98.8913 89.8879 98.8275 89.9517 98.6999 89.9517C98.6361 90.0793 98.6042 90.175 98.6042 90.2388ZM70.8529 96.2675C70.8529 96.3313 70.821 96.3951 70.7572 96.4589V96.5546C70.821 96.6184 70.8848 96.6184 70.9486 96.5546C70.9486 96.427 70.9167 96.3313 70.8529 96.2675ZM70.9486 97.0331L70.8529 96.9374L70.7572 96.8417C70.7572 96.9055 70.821 96.9693 70.9486 97.0331ZM71.5227 100.957C71.5227 100.638 71.4908 100.478 71.427 100.478C71.2356 100.733 71.2675 100.893 71.5227 100.957ZM86.4511 102.009C86.5787 102.009 86.9295 101.818 87.5037 101.435C87.4399 101.435 87.408 101.371 87.408 101.244L87.3123 101.148L86.4511 102.009ZM88.2692 101.818C88.5882 101.818 88.7477 101.69 88.7477 101.435C88.5563 101.435 88.3968 101.563 88.2692 101.818ZM85.3027 102.775V102.966H85.5898C85.7174 102.839 85.6536 102.743 85.3984 102.679C85.3984 102.743 85.3665 102.775 85.3027 102.775ZM86.3554 104.593C86.3554 104.529 86.3873 104.497 86.4511 104.497C86.5787 104.37 86.6105 104.242 86.5467 104.114C86.3554 104.051 86.2597 104.146 86.2597 104.402C86.1959 104.465 86.2278 104.529 86.3554 104.593ZM85.9726 105.263C86.1002 105.327 86.2278 105.295 86.3554 105.167C86.483 105.04 86.483 104.944 86.3554 104.88C86.3554 104.944 86.2916 105.008 86.164 105.071C85.9726 105.071 85.9088 105.135 85.9726 105.263ZM81.5706 106.698C82.3362 106.379 82.719 106.156 82.719 106.028C82.6552 106.156 82.4638 106.252 82.1448 106.315C81.8258 106.443 81.6344 106.571 81.5706 106.698ZM84.1544 106.603C84.4734 106.475 84.6648 106.347 84.7286 106.22C84.4734 106.156 84.282 106.284 84.1544 106.603ZM97.743 37.4154C97.9982 37.4792 98.0301 37.6387 97.8387 37.8939C97.7749 37.8939 97.743 37.7344 97.743 37.4154ZM94.8722 48.1332L94.5851 48.4203C94.7765 48.4841 94.8722 48.3884 94.8722 48.1332ZM93.8195 50.717C93.8195 50.3342 93.9471 50.1428 94.2023 50.1428C94.0747 50.5256 93.9471 50.717 93.8195 50.717ZM93.3411 50.4299H93.6281V50.6213H93.3411V50.4299ZM93.1497 51.0041L93.2454 51.3868C93.2454 51.5144 93.1816 51.5463 93.054 51.4825C93.1178 51.4187 93.1497 51.2592 93.1497 51.0041ZM93.2454 51.6739H93.4368V51.8653H93.2454V51.6739ZM91.1401 55.8845C91.3953 56.0121 91.5229 56.1716 91.5229 56.3629C91.2677 56.2353 91.1401 56.0759 91.1401 55.8845ZM91.5229 56.4586V56.8414C91.2677 56.969 91.0763 56.8414 90.9487 56.4586C91.0125 56.3948 91.0763 56.3948 91.1401 56.4586C91.2677 56.4586 91.3953 56.4586 91.5229 56.4586ZM90.7573 57.4156C90.6935 57.4156 90.6297 57.4794 90.5659 57.607C90.5659 57.7346 90.5021 57.7984 90.3745 57.7984L90.4702 57.607C90.4702 57.4156 90.5659 57.3518 90.7573 57.4156ZM90.1831 58.0854C90.3107 58.0854 90.4064 58.1173 90.4702 58.1811C90.5978 58.3087 90.6935 58.3725 90.7573 58.3725C90.6935 58.7553 90.5021 58.7872 90.1831 58.4682C90.1193 58.3406 90.1193 58.213 90.1831 58.0854ZM89.8004 59.0424C90.1193 59.0424 90.2788 59.1381 90.2788 59.3295C89.9599 59.3295 89.8004 59.2338 89.8004 59.0424ZM89.8961 59.9036V60.2864V59.9036ZM88.7477 61.3391C88.9391 61.3391 89.0348 61.5304 89.0348 61.9132C88.8434 61.977 88.7158 61.9451 88.652 61.8175C88.5882 61.6261 88.6201 61.4666 88.7477 61.3391ZM88.7477 62.1046C89.0029 62.1046 89.1305 62.2003 89.1305 62.3917H88.7477V62.1046ZM88.2692 62.5831C88.333 62.5193 88.3968 62.4874 88.4606 62.4874C88.5882 62.4874 88.652 62.5193 88.652 62.5831C88.7158 62.7107 88.652 62.7745 88.4606 62.7745C88.333 62.7745 88.2692 62.7107 88.2692 62.5831ZM88.2692 63.2529H88.5563V63.54H88.2692V63.2529ZM87.5037 64.2099C87.5675 64.1461 87.6313 64.1461 87.6951 64.2099C87.7589 64.2737 87.8227 64.3056 87.8865 64.3056C87.8865 64.4332 87.7908 64.497 87.5994 64.497C87.4718 64.4332 87.4399 64.3375 87.5037 64.2099ZM86.7381 66.7936L86.9295 66.6022C87.0571 66.666 87.0571 66.7936 86.9295 66.985C86.8657 67.0488 86.8338 67.1126 86.8338 67.1764C86.6424 67.1764 86.6105 67.0488 86.7381 66.7936ZM84.8243 70.5257C84.8243 70.8447 84.7286 71.0042 84.5372 71.0042C84.2182 70.6852 84.3139 70.5257 84.8243 70.5257ZM101.475 88.4206C101.666 88.5482 101.507 88.8352 100.997 89.2818C100.805 89.4094 100.71 89.537 100.71 89.6646C100.582 89.4732 100.837 89.0585 101.475 88.4206ZM100.04 90.1431C99.8483 90.6534 99.5293 91.0043 99.0827 91.1957C99.1465 90.9405 99.4655 90.5896 100.04 90.1431ZM98.2215 91.6742C98.3491 91.6742 98.4129 91.7699 98.4129 91.9613C98.3491 92.0251 98.2853 92.0251 98.2215 91.9613C98.1577 91.8975 98.0939 91.8656 98.0301 91.8656L98.2215 91.6742ZM97.9344 92.057H98.2215V92.344H97.9344V92.057ZM96.499 93.6838C96.4352 93.62 96.4352 93.5562 96.499 93.4924C96.6266 93.5562 96.7223 93.62 96.7861 93.6838H96.499ZM96.499 93.6838C96.499 93.8114 96.4352 93.9389 96.3076 94.0665C96.18 94.0665 96.1481 94.0027 96.2119 93.8752C96.2757 93.6838 96.3714 93.62 96.499 93.6838ZM97.9344 93.7795C98.1258 93.9071 98.062 94.0346 97.743 94.1622C97.743 94.0984 97.7749 94.0346 97.8387 93.9708C97.9025 93.9071 97.9344 93.8433 97.9344 93.7795ZM96.2119 94.2579H96.5947C96.5309 94.2579 96.4671 94.3536 96.4033 94.545C96.4033 94.6726 96.3395 94.7045 96.2119 94.6407V94.2579ZM97.4559 94.2579H97.743V94.545C97.6792 94.4812 97.6473 94.5131 97.6473 94.6407H97.3602V94.3536C97.424 94.4174 97.4559 94.3855 97.4559 94.2579ZM95.0636 95.1192C95.0636 94.864 95.1911 94.7364 95.4463 94.7364C95.4463 94.9916 95.3187 95.1192 95.0636 95.1192ZM96.2119 94.7364H96.7861C96.1481 95.3744 95.6696 95.8209 95.3506 96.0761C95.223 96.1399 95.1273 96.1399 95.0636 96.0761C94.9998 95.9485 94.936 95.8847 94.8722 95.8847C95.2549 95.6934 95.4782 95.4382 95.542 95.1192C95.6058 95.1192 95.6696 95.1511 95.7334 95.2149C95.7972 95.2787 95.861 95.3106 95.9248 95.3106C95.9886 95.3106 95.9567 95.2468 95.8291 95.1192C95.7653 94.9916 95.7334 94.8959 95.7334 94.8321C95.7972 94.8321 95.8929 94.864 96.0205 94.9278C96.0843 94.9916 96.1162 95.0235 96.1162 95.0235C96.18 94.9597 96.2119 94.864 96.2119 94.7364ZM94.3937 94.8321H94.4894H94.3937ZM95.0636 95.1192C95.1273 95.2468 95.0955 95.3425 94.9679 95.4063C94.9041 95.4701 94.7765 95.4701 94.5851 95.4063C94.7127 95.1511 94.8722 95.0554 95.0636 95.1192ZM96.5947 95.6934C95.9567 96.5865 94.7446 97.8305 92.9583 99.4254C91.172 100.957 90.1193 101.882 89.8004 102.201C89.8004 102.264 89.8323 102.296 89.8961 102.296C90.0236 102.232 90.1193 102.169 90.1831 102.105C90.1193 102.36 89.8004 102.743 89.2262 103.253C88.652 103.7 88.333 104.051 88.2692 104.306C88.2055 104.306 88.1417 104.242 88.0779 104.114C88.0779 103.987 88.0141 103.955 87.8865 104.019C88.0779 103.636 88.1417 103.221 88.0779 102.775C88.1417 102.775 88.3649 102.839 88.7477 102.966C88.8753 102.966 88.8753 102.934 88.7477 102.87C88.6201 102.807 88.5882 102.711 88.652 102.583C92.2246 99.5211 94.8722 97.2245 96.5947 95.6934ZM89.1305 102.775C89.2581 102.839 89.3538 102.807 89.4176 102.679C89.4814 102.551 89.4495 102.456 89.3219 102.392C89.3219 102.456 89.29 102.52 89.2262 102.583C89.1624 102.647 89.1305 102.711 89.1305 102.775ZM94.4894 95.9804C94.617 95.9166 94.7127 95.9485 94.7765 96.0761C94.8403 96.2037 94.936 96.2675 95.0636 96.2675C94.9998 96.3951 94.8722 96.5546 94.6808 96.746C94.5532 96.8736 94.4575 96.9693 94.3937 97.0331C94.1385 96.9055 94.0109 96.746 94.0109 96.5546C94.0747 96.4908 94.1704 96.4908 94.298 96.5546C94.4256 96.5546 94.5213 96.5546 94.5851 96.5546C94.5851 96.4908 94.5532 96.427 94.4894 96.3632C94.4256 96.2356 94.4256 96.108 94.4894 95.9804ZM94.2023 97.2245C93.8833 97.1607 93.5962 97.1607 93.3411 97.2245C93.3411 97.0969 93.4049 97.0012 93.5324 96.9374C93.979 96.8098 94.2023 96.9055 94.2023 97.2245ZM92.7669 97.0331H93.054V97.2245H92.7669V97.0331ZM92.5755 97.7029C92.3841 97.7029 92.2884 97.6072 92.2884 97.4159C92.4798 97.4159 92.6074 97.4477 92.6712 97.5115C92.6712 97.5753 92.6393 97.6072 92.5755 97.6072C92.5755 97.6072 92.5755 97.6391 92.5755 97.7029ZM93.1497 97.6072C93.3411 97.671 93.4687 97.671 93.5324 97.6072C93.66 97.4797 93.7876 97.4159 93.9152 97.4159C93.9152 97.4796 93.8514 97.5434 93.7238 97.6072C93.66 97.6072 93.66 97.671 93.7238 97.7986C93.341 97.671 93.1497 97.6072 93.1497 97.6072ZM92.0013 97.7029C92.2565 98.0219 92.416 98.2133 92.4798 98.2771C92.2884 98.3409 92.1289 98.1495 92.0013 97.7029ZM92.5755 97.7029C92.8307 97.7029 92.8945 97.7986 92.7669 97.99H92.5755V97.7029ZM91.6186 98.3728H91.9056V98.7556H91.5229V98.5642C91.5867 98.5642 91.6186 98.5004 91.6186 98.3728ZM69.6088 98.5642H69.8002V98.7556H69.6088V98.5642ZM90.5659 98.8513H90.853V99.1383H90.5659V98.8513ZM90.9487 98.8513H91.4272C91.2996 99.1065 91.1401 99.234 90.9487 99.234V98.8513ZM91.5229 100.957C91.6505 101.02 91.6505 101.116 91.5229 101.244C91.3953 101.307 91.2677 101.307 91.1401 101.244C91.1401 101.18 91.2039 101.148 91.3315 101.148C91.4591 101.084 91.5229 101.02 91.5229 100.957ZM90.5659 101.626C90.8211 101.69 90.853 101.818 90.6616 102.009C90.5978 102.073 90.5021 102.105 90.3745 102.105C90.3107 101.977 90.3107 101.882 90.3745 101.818C90.5021 101.754 90.5659 101.69 90.5659 101.626ZM74.2979 104.019C74.3617 104.019 74.5212 104.242 74.7763 104.689C74.4574 104.689 74.2979 104.465 74.2979 104.019ZM87.6951 104.306C87.8865 104.242 87.9822 104.338 87.9822 104.593H87.5994C87.6632 104.529 87.6951 104.433 87.6951 104.306ZM75.2548 106.028C75.191 106.028 75.1272 105.996 75.0634 105.933C74.9996 105.869 74.9358 105.805 74.872 105.741C74.872 105.55 74.8082 105.327 74.6806 105.071C74.8082 104.944 74.9039 104.976 74.9677 105.167C75.0953 105.358 75.191 105.646 75.2548 106.028Z" fill="white"/>
<path d="M105.587 86.6024C105.523 86.6024 105.491 86.6343 105.491 86.6981C105.555 86.6981 105.587 86.6662 105.587 86.6024C105.778 86.5386 106.353 86.0282 107.309 85.0713C108.266 84.1143 109.319 83.6996 110.467 83.8272C110.85 84.0824 111.297 84.5609 111.807 85.2627C112.381 85.9644 112.796 86.4429 113.051 86.6981C113.243 88.293 112.86 90.5258 111.903 93.3967C110.946 96.2037 110.372 98.0857 110.18 99.0427C111.775 98.2133 113.976 96.4589 116.783 93.7795C119.654 91.1 122.142 89.3456 124.247 88.5163C124.311 88.5801 124.79 88.9947 125.683 89.7603C126.576 90.5258 127.15 91.2276 127.405 91.8656C127.341 91.8656 127.31 91.8337 127.31 91.7699C127.31 91.7061 127.278 91.6742 127.214 91.6742C127.405 92.6949 127.278 94.1303 126.831 95.9804C126.385 97.8305 126.289 99.234 126.544 100.191C129.67 101.595 134.327 100.063 140.515 95.5976C141.983 94.8321 143.897 93.4605 146.257 91.4828C148.681 89.5051 150.244 88.2611 150.946 87.7507C150.946 88.6439 150.595 89.537 149.893 90.4302C149.256 91.2595 148.586 91.7061 147.884 91.7699C147.884 91.8975 147.692 92.3121 147.31 93.0139C147.565 92.9501 147.884 92.7906 148.267 92.5354C148.649 92.2165 149.064 92.0251 149.511 91.9613C149.447 92.0889 149.319 92.2483 149.128 92.4397C149 92.6311 148.905 92.7587 148.841 92.8225C148.841 92.8863 148.905 93.0458 149.032 93.301C144.63 97.7667 138.984 101.403 132.094 104.21C129.734 104.465 127.629 104.178 125.778 103.349C125.715 103.158 125.396 102.775 124.822 102.201C123.609 99.8401 123.163 97.0012 123.482 93.6838C123.099 94.0665 122.142 94.8002 120.611 95.8847C119.144 96.9693 118.059 97.9262 117.357 98.7556C116.337 99.9677 115.507 100.893 114.869 101.531C114.231 102.105 113.338 102.679 112.19 103.253C111.042 103.764 109.925 103.827 108.841 103.445C108.649 103.253 108.394 102.839 108.075 102.201C107.756 101.563 107.469 101.116 107.214 100.861C107.022 99.3935 106.99 98.0219 107.118 96.746C107.309 95.4701 107.66 94.0027 108.171 92.344C108.681 90.6215 109 89.4732 109.128 88.899C107.597 90.3664 106.129 92.2483 104.726 94.545C103.322 96.7779 102.301 98.5961 101.663 99.9996C101.026 101.403 100.005 103.7 98.6013 106.89C98.4099 106.89 98.1866 106.922 97.9314 106.985C97.6762 107.113 97.4529 107.145 97.2615 107.081C96.6236 105.996 96.3365 105.231 96.4003 104.784C95.6985 103.7 95.858 101.818 96.8788 99.1383C99.622 92.1208 101.217 87.4955 101.663 85.2627C101.026 84.2419 101.121 83.3169 101.951 82.4875C102.716 82.4875 103.354 82.7427 103.864 83.2531C104.375 83.6996 104.726 84.1462 104.917 84.5928C105.108 85.0394 105.332 85.7092 105.587 86.6024ZM148.745 90.7172C148.618 90.781 148.362 90.9086 147.98 91.1C147.661 91.2914 147.405 91.4509 147.214 91.5785C147.023 91.7061 146.799 91.8975 146.544 92.1527C146.353 92.344 146.193 92.5673 146.066 92.8225C146.002 92.8225 145.97 92.7587 145.97 92.6311L145.874 92.5354C145.619 92.5992 145.396 92.6949 145.204 92.8225C145.013 92.9501 144.79 93.1415 144.535 93.3967C144.279 93.5881 144.088 93.7476 143.96 93.8752C144.216 94.1303 144.566 94.0665 145.013 93.6838C145.46 93.301 145.811 93.1734 146.066 93.301V92.8225C146.129 92.8863 146.225 92.8863 146.353 92.8225C146.48 92.6949 146.608 92.6949 146.736 92.8225C146.672 92.5673 146.736 92.3759 146.927 92.2483C147.182 92.1208 147.342 92.0251 147.405 91.9613C147.405 92.2165 147.469 92.344 147.597 92.344C147.533 91.9613 147.692 91.6104 148.075 91.2914C148.458 90.9724 148.681 90.781 148.745 90.7172C148.809 90.6534 148.905 90.6215 149.032 90.6215C149.287 90.5577 149.383 90.4302 149.319 90.2388C148.937 90.4302 148.745 90.5896 148.745 90.7172ZM122.525 91.0043C122.589 91.0681 122.684 91.1 122.812 91.1C123.003 91.1 123.163 91.0681 123.29 91.0043C123.29 90.6215 123.131 90.4302 122.812 90.4302C122.812 90.5577 122.748 90.6534 122.621 90.7172C122.493 90.7172 122.461 90.8129 122.525 91.0043ZM122.333 91.3871C122.461 91.2595 122.461 91.1638 122.333 91.1V91.3871ZM120.228 93.0139C120.547 93.0139 120.834 92.8225 121.089 92.4397C121.408 92.057 121.759 91.8656 122.142 91.8656C122.142 91.5466 122.014 91.3871 121.759 91.3871C121.632 91.5785 121.377 91.8337 120.994 92.1527C120.611 92.4716 120.356 92.7587 120.228 93.0139ZM119.271 93.9708C119.526 93.7795 119.782 93.4286 120.037 92.9182C119.654 92.9182 119.399 93.2691 119.271 93.9708ZM147.214 93.3967C147.15 93.5243 146.991 93.5562 146.736 93.4924C146.544 93.3648 146.417 93.301 146.353 93.301C146.161 93.4924 145.842 93.7157 145.396 93.9708C144.949 94.1622 144.566 94.3855 144.247 94.6407C143.992 94.8321 143.865 95.0873 143.865 95.4063C143.992 95.3425 144.247 95.1511 144.63 94.8321C145.077 94.4493 145.46 94.1941 145.779 94.0665C146.098 93.8752 146.385 93.8433 146.64 93.9708C146.257 94.0984 146.066 94.1622 146.066 94.1622C146.385 94.1622 146.576 94.0984 146.64 93.9708C146.704 93.9071 146.767 93.8752 146.831 93.8752C146.959 93.8114 147.055 93.7476 147.118 93.6838C147.182 93.62 147.214 93.5243 147.214 93.3967H147.405V93.1096C147.278 93.1096 147.214 93.2053 147.214 93.3967ZM143.96 94.4493C143.96 94.1941 143.897 94.0027 143.769 93.8752C143.769 94.3217 143.833 94.5131 143.96 94.4493ZM118.601 94.2579L118.793 94.4493C118.793 94.1303 118.729 94.0027 118.601 94.0665V94.2579ZM108.745 95.1192V94.7364C108.617 94.9278 108.617 95.0554 108.745 95.1192ZM108.171 96.5546C108.171 96.4908 108.203 96.4589 108.266 96.4589C108.394 96.3951 108.426 96.2994 108.362 96.1718C108.234 96.108 108.139 96.1718 108.075 96.3632C108.011 96.4908 108.043 96.5546 108.171 96.5546ZM140.898 97.0331H141.09V96.8417H140.898V97.0331ZM149.893 91.3871C150.021 91.4509 150.021 91.5785 149.893 91.7699C149.83 91.8975 149.734 91.9294 149.606 91.8656C149.543 91.738 149.574 91.6742 149.702 91.6742C149.83 91.6104 149.893 91.5147 149.893 91.3871Z" fill="white"/>
<path d="M99.3539 26.49C99.637 24.8651 100.168 23.4282 100.933 22.1349C102.054 20.2426 103.708 18.6051 105.935 17.1287L110.904 14.1332C115.197 11.5817 120.439 11.338 124.912 13.4001L109.878 23.0902C106.021 23.5504 102.476 24.2589 99.3539 26.49Z" stroke="white" stroke-width="2"/>
<path d="M133.02 39.9525L131.835 39.7182C131.998 40.0801 132.147 40.4496 132.283 40.826L133.416 41.0499C133.296 40.678 133.164 40.312 133.02 39.9525ZM113.316 29.2574C113.316 29.2574 113.316 29.2575 113.316 29.2575L113.509 28.2762L113.315 29.2572L113.316 29.2574ZM100.271 32.5351C99.8325 32.4658 99.3919 32.4062 98.9498 32.3565C98.6311 32.6477 98.3222 32.9524 98.0242 33.2704C98.4488 33.306 98.8723 33.3509 99.2942 33.4052C99.6091 33.1004 99.9352 32.8103 100.271 32.5351ZM108.646 35.1687C108.607 35.1496 108.568 35.1307 108.529 35.1119L108.403 35.087L108.209 36.068L108.646 35.1687Z" stroke="white" stroke-width="2"/>
<path d="M116.555 66.3724L100.699 38.613C106.71 39.5116 112.106 42.8907 115.539 47.9749C118.871 53.607 119.217 60.4753 116.555 66.3724Z" stroke="white" stroke-width="2"/>
<path d="M87.7471 36.8053L63.9258 56.6358C63.7326 50.1955 66.664 44.0079 71.8707 40.083C76.5265 36.929 82.2377 35.7563 87.7471 36.8053Z" stroke="white" stroke-width="2"/>
<path d="M79.9612 21.956L72.832 20.547C67.2065 19.4272 61.4284 21.2528 57.4705 25.3308L58.6557 25.565M79.9612 21.956L79.7659 22.9367C79.7661 22.9368 79.7663 22.9368 79.7665 22.9369M79.9612 21.956C85.208 23.0008 89.6159 26.4752 91.8736 31.2688C91.446 31.1468 91.016 31.0345 90.584 30.932M79.9612 21.956L79.7673 22.937L79.7665 22.9369M79.7665 22.9369L72.6381 21.528L72.6368 21.5277C67.5632 20.5178 62.3575 22.055 58.6557 25.565M79.7665 22.9369C84.4177 23.8633 88.3678 26.8199 90.584 30.932M58.6557 25.565C58.3679 25.8379 58.0892 26.1228 57.8203 26.4193L81.9088 31.1802M58.6557 25.565L81.977 30.1744M81.977 30.1744C81.9336 30.1769 81.8902 30.1795 81.8468 30.1822L81.9088 31.1802M81.977 30.1744L82.1027 30.1992L81.9088 31.1802M81.977 30.1744C84.8705 30.0073 87.7702 30.2638 90.584 30.932M81.9088 31.1802C85.0231 30.9867 88.1465 31.3012 91.1562 32.1079C90.981 31.7064 90.79 31.3142 90.584 30.932" stroke="white" stroke-width="2"/>
<path d="M94.4819 17.2683C95.259 18.3444 95.8725 19.5288 96.3028 20.7831C95.6832 21.8579 95.3226 23.048 95.0535 24.1917C94.9187 24.7645 94.8027 25.3453 94.6915 25.9023C94.6835 25.9422 94.6755 25.982 94.6676 26.0217C92.8907 24.1792 90.585 22.4225 88.5594 21.2711L78.3411 6.58823C83.2613 6.38146 88.0182 8.60084 91.0162 12.5952C91.0167 12.596 91.0173 12.5967 91.0178 12.5974L94.4819 17.2683Z" stroke="white" stroke-width="2"/>
</svg>
