<svg width="20" height="20" viewBox="0 0 20 20" fill="none" xmlns="http://www.w3.org/2000/svg">
<path d="M2.52321 6.67956L5.46733 8.31518C7.12169 9.23427 7.94887 9.69382 8.82487 9.87398C9.60018 10.0334 10.3998 10.0334 11.1751 9.87398C12.0511 9.69382 12.8783 9.23427 14.5327 8.31518L17.4768 6.67956M2.52321 6.67956C2.5 7.0701 2.5 7.55062 2.5 8.16667V11.8333C2.5 13.2335 2.5 13.9335 2.77248 14.4683C3.01217 14.9387 3.39462 15.3212 3.86502 15.5608C4.3998 15.8333 5.09987 15.8333 6.5 15.8333H13.5C14.9001 15.8333 15.6002 15.8333 16.135 15.5608C16.6054 15.3212 16.9878 14.9387 17.2275 14.4683C17.5 13.9335 17.5 13.2335 17.5 11.8333V8.16667C17.5 7.55062 17.5 7.0701 17.4768 6.67956M2.52321 6.67956C2.55275 6.18249 2.61989 5.83117 2.77248 5.53169C3.01217 5.06129 3.39462 4.67883 3.86502 4.43915C4.3998 4.16667 5.09987 4.16667 6.5 4.16667H13.5C14.9001 4.16667 15.6002 4.16667 16.135 4.43915C16.6054 4.67883 16.9878 5.06129 17.2275 5.53169C17.3801 5.83117 17.4472 6.18249 17.4768 6.67956" stroke="#2A2A2B" stroke-width="2" stroke-linecap="round" stroke-linejoin="round"/>
</svg>
