<svg width="20" height="20" viewBox="0 0 20 20" fill="none" xmlns="http://www.w3.org/2000/svg">
<path d="M2.5 4.58333C2.5 11.717 8.28299 17.5 15.4167 17.5C15.7385 17.5 16.0576 17.4882 16.3736 17.4651C16.7362 17.4385 16.9174 17.4253 17.0825 17.3302C17.2192 17.2516 17.3488 17.1121 17.4173 16.97C17.5 16.7985 17.5 16.5984 17.5 16.1983V13.8506C17.5 13.5141 17.5 13.3459 17.4446 13.2016C17.3957 13.0743 17.3163 12.9608 17.2133 12.8713C17.0966 12.77 16.9385 12.7125 16.6223 12.5975L13.95 11.6257C13.5821 11.492 13.3981 11.4251 13.2236 11.4364C13.0697 11.4464 12.9216 11.499 12.7958 11.5881C12.6531 11.6893 12.5524 11.8571 12.351 12.1928L11.6667 13.3333C9.45845 12.3333 7.66825 10.5407 6.66667 8.33333L7.80719 7.64902C8.14288 7.44761 8.31072 7.3469 8.41186 7.20422C8.50104 7.0784 8.55356 6.93031 8.56357 6.77641C8.57493 6.60189 8.50804 6.41794 8.37426 6.05004L7.40249 3.37768C7.2875 3.06147 7.23001 2.90336 7.12868 2.78675C7.03918 2.68374 6.92575 2.60429 6.79835 2.55538C6.65413 2.5 6.4859 2.5 6.14943 2.5H3.80168C3.40157 2.5 3.20151 2.5 3.02998 2.58271C2.88792 2.65121 2.74845 2.78085 2.66975 2.91753C2.57474 3.08255 2.56146 3.26385 2.53491 3.62644C2.51177 3.94238 2.5 4.26148 2.5 4.58333Z" stroke="#2A2A2B" stroke-width="2" stroke-linecap="round" stroke-linejoin="round"/>
</svg>
