<svg width="37" height="24" viewBox="0 0 37 24" fill="none" xmlns="http://www.w3.org/2000/svg">
<path d="M18 9V7.2C18 6.0799 18 5.51984 17.782 5.09202C17.5903 4.71569 17.2843 4.40973 16.908 4.21799C16.4802 4 15.9201 4 14.8 4H7.2C6.0799 4 5.51984 4 5.09202 4.21799C4.71569 4.40973 4.40973 4.71569 4.21799 5.09202C4 5.51984 4 6.0799 4 7.2V18L8.01863 15.9907M8.01863 15.9907C8 15.6781 8 15.2934 8 14.8V12.2C8 11.0799 8 10.5198 8.21799 10.092C8.40973 9.71569 8.71569 9.40973 9.09202 9.21799C9.51984 9 10.0799 9 11.2 9H16.8C17.9201 9 18.4802 9 18.908 9.21799C19.2843 9.40973 19.5903 9.71569 19.782 10.092C20 10.5198 20 11.0799 20 12.2V20L17.8062 18.5374C17.5065 18.3377 17.3567 18.2378 17.1946 18.167C17.0507 18.1042 16.9 18.0586 16.7454 18.031C16.5713 18 16.3912 18 16.0311 18H11.2C10.0799 18 9.51984 18 9.09202 17.782C8.71569 17.5903 8.40973 17.2843 8.21799 16.908C8.09601 16.6686 8.04229 16.3878 8.01863 15.9907Z" stroke="white" stroke-width="2" stroke-linecap="round" stroke-linejoin="round"/>
<path d="M29.054 17V16.1051L32.4148 12.4261C32.8092 11.9953 33.134 11.6207 33.3892 11.3026C33.6444 10.9811 33.8333 10.6795 33.956 10.3977C34.0819 10.1127 34.1449 9.81439 34.1449 9.50284C34.1449 9.14489 34.0587 8.83499 33.8864 8.57315C33.7173 8.31132 33.4853 8.10914 33.1903 7.96662C32.8954 7.8241 32.5639 7.75284 32.196 7.75284C31.8049 7.75284 31.4635 7.83404 31.1719 7.99645C30.8835 8.15554 30.6598 8.37926 30.5007 8.66761C30.3449 8.95597 30.267 9.29403 30.267 9.68182H29.0938C29.0938 9.08523 29.2313 8.56155 29.5064 8.1108C29.7815 7.66004 30.156 7.30871 30.63 7.05682C31.1072 6.80492 31.6425 6.67898 32.2358 6.67898C32.8324 6.67898 33.361 6.80492 33.8217 7.05682C34.2824 7.30871 34.6437 7.64844 34.9055 8.07599C35.1674 8.50355 35.2983 8.97917 35.2983 9.50284C35.2983 9.87737 35.2304 10.2436 35.0945 10.6016C34.9619 10.9562 34.7299 11.3523 34.3984 11.7898C34.0703 12.224 33.6146 12.7543 33.0312 13.3807L30.7443 15.8267V15.9062H35.4773V17H29.054Z" fill="#EAEAEA"/>
</svg>
