<svg width="375" height="150" viewBox="0 0 375 150" fill="none" xmlns="http://www.w3.org/2000/svg">
<path fill-rule="evenodd" clip-rule="evenodd" d="M343.8 30.9943C343.8 30.9943 347.873 106.32 347.274 126L356.282 124.494C356.282 124.494 349.6 38.4337 347.201 31.2341C347.201 31.2341 352 30.274 357.2 34.1141L355.6 30.5137C355.6 30.5137 361.001 30.9943 365.001 38.4337L364.4 34.1141C364.4 34.1141 370.201 36.0342 375 46.1139C375 46.1139 375 36.0342 370 28.8345C365.001 21.6349 348.4 25.9545 347 27.1542C347 27.1542 349.001 22.3541 355.4 19.7148L351.2 18.9945C351.2 18.9945 353.6 12.9947 365.6 14.675L362.2 12.0346C362.2 12.0346 372.801 8.19449 380 17.0745C380 17.0745 373.2 3.39547 362.2 0.274558C351.2 -2.84413 344.801 21.6349 344.801 21.6349C344.801 21.6349 336.8 7.47531 329.4 6.99472C322.001 6.51528 315 21.1543 315 21.1543C315 21.1543 319.601 17.0745 323.601 16.3542L322.4 20.6748C322.4 20.6748 327.001 16.8347 333.2 18.0345L329.601 20.9146C329.601 20.9146 336 19.9546 341.6 27.8745C341.6 27.8745 329 29.5537 324.8 36.5136C320.6 43.4736 325 52.5933 325 52.5933C325 52.5933 326.201 44.6733 327.801 42.0341L328.2 48.2737C328.2 48.2737 330.401 41.074 334 38.194L334.601 43.4736C334.601 43.4736 339.2 32.1941 343.8 30.9943H343.8Z" fill="#B86948"/>
<path fill-rule="evenodd" clip-rule="evenodd" d="M359.164 83.3857C359.164 83.3857 357.337 117.084 357.606 125.888L353.564 125.214C353.564 125.214 356.562 86.7138 357.638 83.4929C357.638 83.4929 355.485 83.0635 353.152 84.7814L353.87 83.1707C353.87 83.1707 351.447 83.3857 349.652 86.7138L349.921 84.7814C349.921 84.7814 347.319 85.6403 345.165 90.1496C345.165 90.1496 345.165 85.6403 347.409 82.4195C349.652 79.1987 357.1 81.1311 357.729 81.6678C357.729 81.6678 356.831 79.5204 353.959 78.3397L355.844 78.0175C355.844 78.0175 354.767 75.3333 349.383 76.085L350.908 74.9038C350.908 74.9038 346.152 73.1859 342.922 77.1585C342.922 77.1585 345.973 71.039 350.908 69.6428C355.844 68.2477 358.715 79.1987 358.715 79.1987C358.715 79.1987 362.305 72.8642 365.626 72.6492C368.946 72.4347 372.087 78.9837 372.087 78.9837C372.087 78.9837 370.023 77.1585 368.228 76.8363L368.766 78.7692C368.766 78.7692 366.702 77.0512 363.92 77.588L365.536 78.8764C365.536 78.8764 362.664 78.4469 360.151 81.99C360.151 81.99 365.805 82.7412 367.69 85.8548C369.574 88.9684 367.6 93.0482 367.6 93.0482C367.6 93.0482 367.061 89.5051 366.343 88.3245L366.164 91.1158C366.164 91.1158 365.177 87.895 363.561 86.6065L363.292 88.9684C363.292 88.9684 361.228 83.9224 359.164 83.3857H359.164Z" fill="#B86948"/>
<path fill-rule="evenodd" clip-rule="evenodd" d="M375 109.528V150H0V82.1328C0 82.1328 16.6665 74.5286 28.2215 70.179C29.0285 69.8751 30.0675 70.0397 31.0995 70.0874C51.61 71.0381 100.273 102.041 216.574 111.386C268.426 115.551 306.625 115.355 333.419 113.746C369.737 111.574 375 109.528 375 109.528V109.528Z" fill="url(#paint0_linear_158_21898)"/>
<path fill-rule="evenodd" clip-rule="evenodd" d="M333.419 113.746C309.692 117.409 188.008 134.709 107.579 117.457C25.7385 99.8997 29.8155 74.3134 31.0995 70.0875C51.61 71.0382 100.274 102.041 216.574 111.386C268.426 115.551 306.625 115.355 333.419 113.746H333.419Z" fill="url(#paint1_linear_158_21898)"/>
<path fill-rule="evenodd" clip-rule="evenodd" d="M289.002 101.729V111.101C289.002 111.446 289.281 111.73 289.625 111.73C289.791 111.73 289.949 111.795 290.066 111.912C290.183 112.029 290.249 112.188 290.249 112.353V121.726C290.249 122.416 289.692 122.978 289.002 122.978H285.874L288.633 121.051C288.868 120.817 289.001 120.499 289.002 120.167V116.137C289.002 115.845 288.898 115.561 288.709 115.334L285.251 111.73V116.104L284.188 121.953C284.135 122.24 283.983 122.5 283.759 122.687C283.534 122.875 283.252 122.977 282.96 122.978H279.624L282.908 120.54C283.054 120.423 283.172 120.274 283.253 120.105C283.334 119.935 283.376 119.75 283.375 119.563V115.793L281.599 112.06C281.536 111.839 281.505 111.61 281.504 111.38V109.656C281.504 108.81 280.697 108.196 279.879 108.418L275.703 109.557C275.094 109.727 274.711 110.331 274.824 110.955L275.878 116.723L275.377 121.731C275.302 122.44 274.711 122.973 274.002 122.973H272.75L274.428 120.739C274.558 120.478 274.626 120.19 274.626 119.898V118.911C274.626 118.618 274.579 118.329 274.475 118.051L272.127 111.408L272.113 121.745C272.113 122.435 271.551 122.997 270.861 122.997H268.362L270.237 121.433C270.643 120.892 270.861 120.234 270.861 119.558V117.319C270.861 117.007 270.814 116.7 270.724 116.402L268.664 111.257C268.111 109.457 265.839 108.815 264.034 108.291C263.141 108.044 262.35 107.515 261.782 106.783C261.213 106.051 260.896 105.155 260.878 104.228V98.6011C260.878 98.2723 260.814 97.9467 260.688 97.643C260.562 97.3392 260.378 97.0631 260.145 96.8306C259.913 96.5981 259.637 96.4137 259.333 96.2879C259.029 96.1621 258.703 96.0973 258.375 96.0973H257.751C257.421 96.096 257.104 95.9642 256.871 95.7306C256.637 95.497 256.505 95.1805 256.504 94.8501V94.6233C256.503 94.3345 256.603 94.0544 256.786 93.8305C256.968 93.6067 257.222 93.4528 257.505 93.395L261.261 92.6581C261.711 92.5684 262.176 92.6038 262.607 92.7604C263.037 92.917 263.417 93.1888 263.704 93.5462L264.431 94.458C264.962 95.1218 265.252 95.9463 265.253 96.7965V101.11C265.254 101.44 265.386 101.757 265.62 101.99C265.853 102.224 266.17 102.356 266.5 102.357H267.124L269.751 99.2106C270.081 98.8132 270.489 98.4884 270.951 98.2563L273.265 97.1035C273.753 96.8584 274.198 96.5362 274.583 96.1493L276.275 94.458C276.818 93.9139 277.556 93.608 278.325 93.6076H279.298C279.911 93.6079 280.503 93.8332 280.961 94.2407L290.66 102.858C290.924 103.092 291.135 103.379 291.28 103.701C291.425 104.022 291.5 104.371 291.501 104.724V107.979" fill="#B96A47"/>
<path fill-rule="evenodd" clip-rule="evenodd" d="M182.002 109.729V119.101C182.002 119.446 182.281 119.73 182.625 119.73C182.791 119.73 182.949 119.795 183.066 119.912C183.183 120.029 183.249 120.188 183.249 120.353V129.726C183.249 130.416 182.692 130.978 182.002 130.978H178.874L181.633 129.051C181.868 128.817 182.001 128.499 182.002 128.167V124.137C182.002 123.845 181.898 123.561 181.709 123.334L178.251 119.73V124.104L177.188 129.953C177.135 130.24 176.983 130.5 176.759 130.687C176.534 130.875 176.252 130.977 175.96 130.978H172.624L175.908 128.54C176.054 128.423 176.172 128.274 176.253 128.105C176.334 127.935 176.376 127.75 176.375 127.563V123.793L174.599 120.06C174.536 119.839 174.505 119.61 174.504 119.38V117.656C174.504 116.81 173.697 116.196 172.879 116.418L168.703 117.557C168.094 117.727 167.711 118.331 167.824 118.955L168.878 124.723L168.377 129.731C168.302 130.44 167.711 130.973 167.002 130.973H165.75L167.428 128.739C167.558 128.478 167.626 128.19 167.626 127.898V126.911C167.626 126.618 167.579 126.329 167.475 126.051L165.127 119.408L165.113 129.745C165.113 130.435 164.551 130.997 163.861 130.997H161.362L163.237 129.433C163.643 128.892 163.861 128.234 163.861 127.558V125.319C163.861 125.007 163.814 124.7 163.724 124.402L161.664 119.257C161.111 117.457 158.839 116.815 157.034 116.291C156.141 116.044 155.35 115.515 154.782 114.783C154.213 114.051 153.896 113.155 153.878 112.228V106.601C153.878 106.272 153.814 105.947 153.688 105.643C153.562 105.339 153.378 105.063 153.145 104.831C152.913 104.598 152.637 104.414 152.333 104.288C152.029 104.162 151.703 104.097 151.375 104.097H150.751C150.421 104.096 150.104 103.964 149.871 103.731C149.637 103.497 149.505 103.18 149.504 102.85V102.623C149.503 102.334 149.603 102.054 149.786 101.831C149.968 101.607 150.222 101.453 150.505 101.395L154.261 100.658C154.711 100.568 155.176 100.604 155.607 100.76C156.037 100.917 156.417 101.189 156.704 101.546L157.431 102.458C157.962 103.122 158.252 103.946 158.253 104.796V109.11C158.254 109.44 158.386 109.757 158.62 109.99C158.853 110.224 159.17 110.356 159.5 110.357H160.124L162.751 107.211C163.081 106.813 163.489 106.488 163.951 106.256L166.265 105.104C166.753 104.858 167.198 104.536 167.583 104.149L169.275 102.458C169.818 101.914 170.556 101.608 171.325 101.608H172.298C172.911 101.608 173.503 101.833 173.961 102.241L183.66 110.858C183.924 111.092 184.135 111.379 184.28 111.701C184.425 112.022 184.5 112.371 184.501 112.724V115.979" fill="url(#paint2_linear_158_21898)"/>
<path fill-rule="evenodd" clip-rule="evenodd" d="M74.9982 109.729V119.101C74.9982 119.446 74.7195 119.73 74.3746 119.73C74.2092 119.73 74.0506 119.795 73.9337 119.912C73.8167 120.029 73.751 120.188 73.751 120.353V129.726C73.751 130.416 74.3085 130.978 74.9982 130.978H78.1256L75.3667 129.051C75.1317 128.817 74.9992 128.499 74.9982 128.167V124.137C74.9982 123.845 75.1021 123.561 75.2911 123.334L78.7492 119.73V124.104L79.8122 129.953C79.8651 130.24 80.0169 130.5 80.2412 130.687C80.4655 130.875 80.7483 130.977 81.0405 130.978H84.3758L81.0924 128.54C80.9462 128.423 80.8282 128.274 80.7473 128.105C80.6663 127.935 80.6244 127.75 80.6247 127.563V123.793L82.4011 120.06C82.4637 119.839 82.4954 119.61 82.4955 119.38V117.656C82.4955 116.81 83.3034 116.196 84.1207 116.418L88.2969 117.557C88.9063 117.727 89.289 118.331 89.1756 118.955L88.1221 124.723L88.6229 129.731C88.6984 130.44 89.289 130.973 89.9976 130.973H91.2495L89.5724 128.739C89.4417 128.478 89.3738 128.19 89.374 127.898V126.911C89.374 126.618 89.4213 126.329 89.5252 126.051L91.8731 119.408L91.8873 129.745C91.8873 130.435 92.4495 130.997 93.1392 130.997H95.6383L93.7628 129.433C93.3574 128.892 93.1385 128.234 93.1392 127.558V125.319C93.1392 125.007 93.1865 124.7 93.2762 124.402L95.336 119.257C95.8887 117.457 98.1611 116.815 99.9657 116.291C100.859 116.044 101.65 115.515 102.218 114.783C102.787 114.051 103.104 113.155 103.122 112.228V106.601C103.122 106.272 103.186 105.947 103.312 105.643C103.438 105.339 103.622 105.063 103.855 104.831C104.087 104.598 104.363 104.414 104.667 104.288C104.971 104.162 105.297 104.097 105.625 104.097H106.249C106.579 104.096 106.896 103.964 107.129 103.731C107.363 103.497 107.495 103.18 107.496 102.85V102.623C107.497 102.334 107.397 102.054 107.214 101.831C107.032 101.607 106.778 101.453 106.495 101.395L102.739 100.658C102.289 100.568 101.824 100.604 101.393 100.76C100.963 100.917 100.583 101.189 100.296 101.546L99.5689 102.458C99.0378 103.122 98.748 103.946 98.7469 104.796V109.11C98.7456 109.44 98.6138 109.757 98.3802 109.99C98.1466 110.224 97.8301 110.356 97.4997 110.357H96.8761L94.2494 107.211C93.9194 106.813 93.5109 106.488 93.0495 106.256L90.7346 105.104C90.2468 104.858 89.8017 104.536 89.4165 104.149L87.7253 102.458C87.1816 101.914 86.4441 101.608 85.6749 101.608H84.7018C84.0886 101.608 83.4969 101.833 83.0388 102.241L73.34 110.858C73.0763 111.092 72.8651 111.379 72.7202 111.701C72.5752 112.022 72.4999 112.371 72.4991 112.724V115.979" fill="url(#paint3_linear_158_21898)"/>
<defs>
<linearGradient id="paint0_linear_158_21898" x1="101.76" y1="24.9916" x2="185.664" y2="200.821" gradientUnits="userSpaceOnUse">
<stop stop-color="#FCFFD6"/>
<stop offset="0.0100894" stop-color="#FAF7CA"/>
<stop offset="0.0459996" stop-color="#F3DFA6"/>
<stop offset="0.086405" stop-color="#EECA85"/>
<stop offset="0.131076" stop-color="#E9B86A"/>
<stop offset="0.181533" stop-color="#E6AA54"/>
<stop offset="0.240414" stop-color="#E39F43"/>
<stop offset="0.313232" stop-color="#E19737"/>
<stop offset="0.415366" stop-color="#E09330"/>
<stop offset="0.698925" stop-color="#E0922F"/>
<stop offset="0.978495" stop-color="#B86948"/>
</linearGradient>
<linearGradient id="paint1_linear_158_21898" x1="30.6315" y1="97.5358" x2="333.419" y2="97.5358" gradientUnits="userSpaceOnUse">
<stop stop-color="#B86948"/>
<stop offset="1" stop-color="#E0922F"/>
</linearGradient>
<linearGradient id="paint2_linear_158_21898" x1="167.002" y1="100.61" x2="167.002" y2="130.997" gradientUnits="userSpaceOnUse">
<stop stop-color="#FF8F00"/>
<stop offset="1" stop-color="#B96A47"/>
</linearGradient>
<linearGradient id="paint3_linear_158_21898" x1="89.9976" y1="100.61" x2="89.9976" y2="130.997" gradientUnits="userSpaceOnUse">
<stop stop-color="#E09534"/>
<stop offset="1" stop-color="#B96A47"/>
</linearGradient>
</defs>
</svg>
